SplineFontDB: 3.0
FontName: LinLibertineIO
FullName: Linux Libertine Initials O
FamilyName: Linux Libertine Initials O
Weight: Book
Copyright: Linux Libertine by Philipp H. Poll,\nOpen Font under Terms of following Free Software Licenses:\nGPL (General Public License) with font-exception and OFL (Open Font License).\nCreated with FontForge (http://fontforge.sf.net)\nSept 2003, 2004, 2005, 2006, 2007, 2008, 2009, 2010, 2011,2012
UComments: "2003-08-29: Created.+AAoA-2004-07-25: v(1.0) release candidate+AAoA-2005-12-28: v(1.1.0) stable+AAoA-2006-01-01: v(2.0.0) stable+AAoA-2006-09-05: v(2.2.0) stable+AAoA-2006-12-04: v(2.3.0) stable+AAoA-2007-03-11: v(2.4.0) stable+AAoA-2007-12-00: v(2.7.0) stable+AAoA-2008-06-00: v(2.8.14) stable+AAoA" 
Version: 5.0.6
ItalicAngle: 0
UnderlinePosition: -98
UnderlineWidth: 40
Ascent: 754
Descent: 246
LayerCount: 2
Layer: 0 0 "Back"  1
Layer: 1 0 "Fore"  0
XUID: [1021 993 1524925707 2876416]
FSType: 0
OS2Version: 3
OS2_WeightWidthSlopeOnly: 0
OS2_UseTypoMetrics: 1
CreationTime: 1156455862
ModificationTime: 1341180410
PfmFamily: 17
TTFWeight: 400
TTFWidth: 5
LineGap: 0
VLineGap: 0
OS2TypoAscent: 894
OS2TypoAOffset: 0
OS2TypoDescent: -246
OS2TypoDOffset: 0
OS2TypoLinegap: 0
OS2WinAscent: 894
OS2WinAOffset: 0
OS2WinDescent: 246
OS2WinDOffset: 0
HheadAscent: 894
HheadAOffset: 0
HheadDescent: -246
HheadDOffset: 0
OS2FamilyClass: 261
OS2Vendor: 'PfEd'
Lookup: 3 0 0 "'aalt' Alle Alternativen zeigen"  {"'aalt' Alle Alternativen zeigen 1"  } ['aalt' ('DFLT' <'dflt' > 'cyrl' <'dflt' > 'grek' <'dflt' > 'latn' <'AZE ' 'CRT ' 'DEU ' 'MOL ' 'ROM ' 'TRK ' 'dflt' > ) ]
Lookup: 1 0 0 "'locl' Localized Forms Romaenisch"  {"'locl' Localized Forms Romaenisch 1"  } ['locl' ('latn' <'MOL ' 'ROM ' > ) ]
Lookup: 1 0 0 "'smcp' Gemeine nach Kapitaelchen i > i.sc"  {"'smcp' Gemeine nach Kapitaelchen i > i.sc 1"  } ['smcp' ('DFLT' <'dflt' > 'cyrl' <'dflt' > 'grek' <'dflt' > 'latn' <'DEU ' 'MOL ' 'ROM ' 'dflt' > ) ]

StartChar: one
Encoding: 49 49 3
Width: 618
VWidth: 999
Flags: HW
HStem: -36.3 8<191.346 327.439 331.952 461.448> -5 23<200.056 268.379 384.467 452.79> 40.6 7.9<190.732 231.367 420.113 462.292> 590 20G<331.256 360.673> 633 8<350.087 370.87>
VStem: 259.9 8<70.8765 470.187> 290.9 71<30.3808 507.982> 384.9 8<72.9462 620.043>
CounterMasks: 1 07
LayerCount: 2
Fore
SplineSet
361.9 109 m 2
 361.9 26 378.9 21 448.9 18 c 1
 454.9 12 454.9 1 448.9 -5 c 1
 398.9 -4 376.4 0 329.9 0 c 0
 280.7 0 252.9 -4 203.9 -5 c 1
 197.9 1 197.9 12 203.9 18 c 1
 273.9 21 290.9 26 290.9 109 c 2
 290.9 450 l 2
 290.9 484 287.4 508 270.9 508 c 0
 251.9 508 229.4 502 183.9 483 c 1
 174.9 489.1 170.5 498.6 168.9 510 c 1
 256.9 551 303.6 575.7 358.9 610 c 1
 362.4 610 364.9 609.8 364.9 605 c 0
 363.2 592 361.9 531 361.9 471 c 2
 361.9 109 l 2
392.9 129 m 2
 392.9 50.8 393.7 51.4 460.8 48.5 c 2
 462.3 48.5 l 1
 463.4 47.4 l 2
 494.3 16.5 484.4 -13.4 462.7 -35.1 c 2
 461.5 -36.3 l 1
 459.8 -36.3 l 1
 402.3 -35.1 373 -31 329.9 -31 c 0
 276.6 -31 244.4 -35.3 193 -36.3 c 1
 191.3 -36.3 l 1
 190.1 -35.1 l 2
 159.9 -4.9 167 25 189.4 47.4 c 2
 190.5 48.5 l 1
 192.7 48.5 l 2
 263.8 51.6 259.9 56 259.9 129 c 2
 259.9 450 l 2
 259.9 459.9 258.7 464.5 257.5 467.7 c 0
 249.8 487.5 219.7 464.3 182.3 448.7 c 2
 180.3 447.9 l 1
 178.6 449.1 l 2
 147.8 470.1 140.6 488.8 135.4 525.5 c 2
 135 528.4 l 1
 137.7 529.7 l 2
 232.7 574 292.3 605.1 349.1 640.4 c 2
 350.1 641 l 1
 358.9 641 l 2
 379.5 641 395.9 618.4 395.9 605 c 0
 395.9 591.4 392.9 527.5 392.9 471 c 2
 392.9 129 l 2
384.9 129 m 2
 384.9 471 l 2
 384.9 527.6 387.9 592 387.9 605 c 0
 387.9 613.9 374 633 358.9 633 c 2
 352.4 633 l 1
 296.2 598.2 238.3 567.8 143.8 523.7 c 1
 148.7 491.3 154.5 475.7 181.3 457 c 1
 210.2 469.5 252.2 500.9 264.6 471.3 c 0
 266.4 466.9 267.9 461 267.9 450 c 2
 267.9 129 l 2
 267.9 55.7 267.5 43.9 194 40.6 c 1
 175.8 21.6 168.9 -1.3 194.6 -28.2 c 1
 243.6 -27.1 276.8 -23 329.9 -23 c 0
 373.4 -23 400.8 -26.9 458.2 -28.2 c 1
 475.9 -9.9 485 13.1 458.8 40.6 c 1
 391.1 43.6 384.9 49.7 384.9 129 c 2
EndSplineSet
Substitution2: "'case' Versalformen 1" one.cap
AlternateSubs2: "'aalt' Alle Alternativen zeigen 1" one.oldstyle one.superior one.fitted
Substitution2: "'sups' Hochgestellte 1" one.superior
Substitution2: "'sinf' Wissenschaftliche Indices 1" one.inferior
Substitution2: "'pnum' Proportionalziffern 1" one.fitted
Substitution2: "'onum' Minuskelziffern 1" one.taboldstyle
EndChar

StartChar: two
Encoding: 50 50 4
Width: 618
VWidth: 487
Flags: HW
HStem: -34.3 8.2<111.256 478.103> 0 55<207.256 434.258> 78 8<248.188 401.811> 405 8<150.132 195.376> 436 21G<162.756 181.756> 554 8<268.143 313.959> 585 25<241.604 337.923> 633 8<168.988 343.569>
VStem: 103.3 8<-26.1387 40.1247 445.922 501.495> 133.3 70<55 86.125 453.596 533.813> 238.3 8<450.414 492.742> 363.3 8<402.837 489.882> 394.3 88<375.443 534.727> 465.3 19<127.576 160.756> 505.3 8<95.7838 170.113 419.905 493.987>
LayerCount: 2
Fore
SplineSet
133.3 468 m 0
 133.3 528 192.3 610 303.3 610 c 0
 384.3 610 482.3 566 482.3 458 c 0
 482.3 382 439.3 338 382.3 283 c 2
 281.3 186 l 2
 276.3 181 207.3 103 207.3 55 c 1
 395.3 55 l 2
 431.3 55 448.3 90 465.3 161 c 1
 475.3 163 478.3 161 484.3 156 c 1
 483.3 126 473.3 51 460.3 -2 c 1
 460.3 -2 414.3 0 382.3 0 c 2
 207.3 0 l 2
 175.3 0 134.3 -2 134.3 -2 c 1
 134.3 57 150.3 105 248.3 205 c 1
 322.3 278 l 1
 381.3 338 394.3 390 394.3 454 c 0
 394.3 550 333.3 585 297.3 585 c 0
 224.3 585 203.3 539 203.3 514 c 0
 203.3 506 209.3 497 211.3 490 c 0
 213.3 483 215.3 478 215.3 470 c 0
 215.3 451 190.3 436 173.3 436 c 0
 152.3 436 133.3 447 133.3 468 c 0
102.3 468 m 0
 102.3 541.1 164.1 620.2 261.7 637.4 c 0
 278.9 640.4 292.4 641 303.3 641 c 0
 396.5 641 513.3 586.8 513.3 458 c 0
 513.3 364.9 457.3 312.3 403.8 260.7 c 2
 303.1 164 l 2
 291 152.4 261.9 113.7 248.2 86 c 1
 395.3 86 l 2
 406.1 86 423.3 119 439.1 185 c 2
 439.7 187.5 l 1
 442.2 188 l 2
 480.6 195.7 498.5 184.5 514.2 171.4 c 2
 515.7 170.1 l 1
 515.7 168.2 l 2
 514.1 121 505.2 50.8 490.4 -9.4 c 2
 484.3 -34.1 l 1
 481 -33.9 l 2
 452.8 -32.7 431.4 -31 382.3 -31 c 2
 207.3 -31 l 2
 154.4 -31 140.2 -32.7 107.4 -34.3 c 2
 103.3 -34.5 l 1
 103.3 -2 l 2
 103.3 68.3 127.7 129.6 226.3 226.9 c 2
 300.3 299.9 l 1
 355.9 356.5 363.3 397.8 363.3 454 c 0
 363.3 539 312.2 554 297.3 554 c 0
 286.8 554 284.9 553.5 282.1 553.1 c 0
 238.9 547.7 235 523.1 234.3 515.5 c 1
 236.6 509.6 239.8 503.2 241.1 498.5 c 0
 243.4 490.4 246.3 478.4 246.3 470 c 0
 246.3 419.3 194.4 405 173.3 405 c 0
 138.1 405 102.3 427.8 102.3 468 c 0
110.3 468 m 0
 110.3 433.5 141 413 173.3 413 c 0
 193 413 238.3 426.4 238.3 470 c 0
 238.3 477.1 235.7 488.3 233.4 496.3 c 0
 232.1 500.8 228.4 508.1 226.5 513.7 c 2
 226.2 514.4 l 1
 226.3 515.2 l 2
 226.8 525 232.7 554.9 281.1 561 c 0
 284 561.4 286.4 562 297.3 562 c 0
 316.6 562 371.3 543.1 371.3 454 c 0
 371.3 396.7 363.1 352.4 306 294.3 c 1
 231.9 221.2 l 2
 133.9 124.6 111.3 65.9 111.3 -2 c 2
 111.3 -26.1 l 1
 140.6 -24.6 156.4 -23 207.3 -23 c 2
 382.3 -23 l 2
 429.2 -23 450.4 -24.5 478.1 -25.8 c 1
 482.6 -7.5 l 2
 497 51.2 505.8 119.2 507.6 166.5 c 1
 494 177.4 479.9 186.7 446.3 180.6 c 1
 431.5 119.9 415.8 78 395.3 78 c 2
 235.6 78 l 1
 238.2 83.7 l 2
 252.8 115.7 283.4 156.2 297.5 169.8 c 2
 398.2 266.4 l 2
 451.9 318.2 505.3 368.6 505.3 458 c 0
 505.3 580.5 394.3 633 303.3 633 c 0
 292.8 633 279.7 632.5 263.1 629.6 c 0
 169 613 110.3 536.8 110.3 468 c 0
EndSplineSet
Substitution2: "'case' Versalformen 1" two.cap
AlternateSubs2: "'aalt' Alle Alternativen zeigen 1" two.oldstyle two.superior two.fitted
Substitution2: "'sups' Hochgestellte 1" two.superior
Substitution2: "'sinf' Wissenschaftliche Indices 1" two.inferior
Substitution2: "'pnum' Proportionalziffern 1" two.fitted
Substitution2: "'onum' Minuskelziffern 1" two.taboldstyle
EndChar

StartChar: three
Encoding: 51 51 5
Width: 465
VWidth: 487
Flags: HW
HStem: -42 8<146.38 238.838> -11 25<162.154 247.227> 37 8<182.094 222.163> 114 8<68.1786 112.966> 288 8<145.035 245.347> 317 22<158.409 191.321> 416 8<63.3228 105.932> 554 8<199.959 240.208> 585 25<173.36 262.941> 633 8<189.459 281.546>
VStem: 17 8<35.9845 75.2854 471.297 492.31> 51 73<451.833 536.318> 147 8<474.391 515.063> 278 8<471.041 513.823> 304 8<147.414 225.413> 309 71<432.513 551.843> 335 82<108.579 271.424> 403 8<469.977 530.782> 440 8<161.17 244.12>
LayerCount: 2
Fore
SplineSet
219 585 m 0
 193 585 124 563 124 499 c 0
 124 480 114 447 85 447 c 0
 61 447 51 467 51 481 c 0
 51 514 93 610 240 610 c 0
 342 610 380 546 380 504 c 0
 380 470 375 424 280 364 c 1
 281 362 l 1
 340 352 417 311 417 202 c 0
 417 70 311 -11 192 -11 c 0
 132 -11 48 16 48 56 c 0
 48 72 69 91 90 91 c 0
 110 91 123 79 133 65 c 0
 145 47 154 14 205 14 c 0
 240 14 335 55 335 188 c 0
 335 301 260 319 203 319 c 0
 190 319 177 319 160 317 c 1
 155 339 l 1
 245 353 309 440 309 489 c 0
 309 551 263 585 219 585 c 0
219 554 m 0
 196.8 554 155 532.9 155 499 c 0
 155 471.4 138.7 416 85 416 c 0
 33.7 416 20 461 20 481 c 0
 20 528.7 66.2 612.6 177.6 635.1 c 0
 200.7 639.8 221.7 641 240 641 c 0
 361.8 641 411 560.4 411 504 c 0
 411 468.3 399.9 421.2 345.7 373.6 c 1
 402.9 345.4 448 289.1 448 202 c 0
 448 70.2 355.4 -13.8 251.5 -35.8 c 0
 228.6 -40.7 209.3 -42 192 -42 c 0
 131 -42 17 -19.4 17 56 c 0
 17 100.3 60.7 122 90 122 c 0
 129 122 148.4 96.7 158.5 82.6 c 0
 178.2 53 173 45 205 45 c 0
 208.4 45 217 47 221.7 48.6 c 0
 256 60.5 304 99 304 188 c 0
 304 282.1 250.7 288 203 288 c 0
 186.9 288 175.5 287.6 163.6 286.2 c 2
 135.9 283 l 1
 117.4 364.5 l 1
 150.2 369.6 l 2
 191.8 376.1 224.7 400.7 246.5 425.8 c 0
 270.7 453.7 278 478.6 278 489 c 0
 278 536.6 244.4 554 219 554 c 0
219 562 m 0
 247.9 562 286 541.5 286 489 c 0
 286 475.7 277.7 449.7 252.5 420.6 c 0
 229.9 394.5 195.6 368.6 151.5 361.7 c 2
 127.1 357.9 l 1
 142.2 291.7 l 1
 162.7 294.2 l 2
 175 295.7 186.8 296 203 296 c 0
 251.8 296 312 287.7 312 188 c 0
 312 95.7 261.5 53.9 224.3 41 c 0
 218.9 39.1 210.3 37 205 37 c 0
 168.9 37 170 50.9 151.9 78.1 c 0
 142.3 91.6 124.9 114 90 114 c 0
 63.3 114 25 94 25 56 c 0
 25 -10.1 129.9 -34 192 -34 c 0
 208.8 -34 227.6 -32.7 249.8 -28 c 0
 350.7 -6.6 440 74.5 440 202 c 0
 440 289.1 393.5 343.3 336.7 369 c 2
 330.9 371.6 l 1
 335.8 375.7 l 2
 392.7 423.2 403 469.5 403 504 c 0
 403 555.9 357.7 633 240 633 c 0
 222.1 633 201.6 631.7 179.2 627.2 c 0
 71.2 605.4 28 524.4 28 481 c 0
 28 463.2 40 424 85 424 c 0
 131.6 424 147 472.6 147 499 c 0
 147 539.7 194.3 562 219 562 c 0
EndSplineSet
Substitution2: "'case' Versalformen 1" three.cap
AlternateSubs2: "'aalt' Alle Alternativen zeigen 1" three.oldstyle three.superior three.fitted
Substitution2: "'sups' Hochgestellte 1" three.superior
Substitution2: "'sinf' Wissenschaftliche Indices 1" three.inferior
Substitution2: "'pnum' Proportionalziffern 1" three.fitted
Substitution2: "'onum' Minuskelziffern 1" three.taboldstyle
EndChar

StartChar: four
Encoding: 52 52 6
Width: 465
VWidth: 487
Flags: HW
HStem: -36.3 8.1<186.563 308.604 312.769 424.437> -5 25<195.243 264.572 354.015 415.757> 131 8<46.2704 249 375.966 437.477> 162 37<86 280 345 444.733> 222 8<143.924 249 376 446.627> 437 8<310.034 348.723> 590 20G<325.5 349> 633 8<314.02 363.268>
VStem: 3 8<199.489 217.571> 249 8<64.3183 131 230 391.624> 280 65<28.4943 162 199 403.72> 368 8<54.0601 131 230 415.639> 468 8<164.754 199.597>
LayerCount: 2
Fore
SplineSet
430 199 m 2
 441 199 445 193 445 183 c 0
 445 171 430 162 416 162 c 2
 345 162 l 1
 345 67 l 2
 345 20 363 24 412 20 c 1
 418 14 418 1 412 -5 c 1
 380 -4 350.4 0 311 0 c 0
 267.3 0 231 -4 199 -5 c 1
 193 1 193 14 199 20 c 1
 242 23 280 21 280 67 c 2
 280 162 l 1
 67 162 l 2
 37 162 37 189 34 204 c 0
 34 205 35 206 36 207 c 2
 314 599 l 2
 317 604 322 610 329 610 c 2
 346 610 l 2
 352 610 355 603 352 598 c 0
 277 489 162 311 86 199 c 1
 280 199 l 1
 280 375 l 2
 280 382 280 391 290 396 c 1
 302 404 315 414 331 414 c 0
 345 414 345 402 345 381 c 2
 345 199 l 1
 430 199 l 2
430 222 m 2
 368 222 l 1
 368 381 l 2
 368 387.7 374.5 437 331 437 c 0
 310.3 437 292.6 425.4 278.4 415.9 c 2
 278.3 415.8 l 1
 278.2 415.8 l 2
 274.1 413.5 269.4 409.5 265.3 402.8 c 0
 260.1 394.4 257 381.8 257 375 c 2
 257 222 l 1
 129 222 l 1
 371.5 585.8 l 1
 371.7 586.2 l 2
 375.5 592.6 380.7 618.9 363.4 629 c 0
 360.2 630.8 355.7 633 346 633 c 2
 329 633 l 2
 314.9 633 301.9 623 294.8 611.7 c 2
 294.8 611.6 l 1
 18.3 221.7 l 1
 18.1 221.6 l 2
 16.4 219.7 11 214.4 11 204 c 2
 11 201.7 l 1
 11.4 199.5 l 2
 11.7 197.8 11.5 139 67 139 c 2
 257 139 l 1
 257 77 l 2
 257 54.9 241.6 46.1 188.8 42.3 c 1
 169.5 22.2 164.2 -1.5 189.8 -28.2 c 1
 225.1 -27 260 -23 311 -23 c 0
 348.8 -23 380.2 -26.8 421.2 -28.2 c 1
 439.2 -9.5 449 14.2 422.3 42.2 c 1
 409.1 43.3 379.3 45.1 372.3 47.2 c 2
 370.2 47.8 l 1
 369.6 49.9 l 2
 363.6 71.1 368 108.7 368 135 c 2
 368 139 l 1
 416 139 l 2
 429.9 139 468 145.4 468 183 c 0
 468 194.3 460.2 222 430 222 c 2
251.8 391.9 m 1
 143.9 230 l 1
 249 230 l 1
 249 375 l 2
 249 380.2 250.4 387 251.8 391.9 c 1
273.9 422.6 m 1
 287.8 432 307.6 445 331 445 c 0
 384.1 445 376 384.1 376 381 c 2
 376 230 l 1
 430 230 l 2
 466.8 230 476 196.1 476 183 c 0
 476 137.8 430.5 131 416 131 c 2
 376 131 l 1
 375.5 103 372.5 73.2 376.7 54.5 c 1
 387.3 52.8 412 51.1 424.4 50.1 c 2
 425.9 49.9 l 1
 426.9 48.9 l 2
 458.3 17.5 447.6 -13.3 425.7 -35.2 c 2
 424.4 -36.4 l 1
 422.7 -36.3 l 2
 381 -35 348.8 -31 311 -31 c 0
 259.6 -31 226.2 -35.1 188.3 -36.3 c 2
 186.6 -36.4 l 1
 185.3 -35.2 l 2
 155.4 -5.3 160.5 25.4 184.2 49.1 c 2
 185.3 50.1 l 1
 186.8 50.2 l 1
 241.7 54 249 61.8 249 77 c 2
 249 131 l 1
 67 131 l 2
 4.3 131 3.7 197.3 3.6 198.1 c 2
 3 200.9 l 1
 3 204 l 2
 3 217.9 10.1 224.7 12.1 226.9 c 1
 12.2 226.8 67.2 304.6 288.1 616.1 c 0
 296.2 628.9 311.3 641 329 641 c 2
 346 641 l 2
 357.2 641 363.3 638.4 367.5 635.9 c 0
 391.2 622.1 383.3 590 378.6 582.1 c 2
 378.2 581.4 l 1
 271.5 421.3 l 1
 273.9 422.6 l 1
EndSplineSet
Substitution2: "'case' Versalformen 1" four.cap
AlternateSubs2: "'aalt' Alle Alternativen zeigen 1" four.oldstyle four.superior four.fitted
Substitution2: "'sups' Hochgestellte 1" four.superior
Substitution2: "'sinf' Wissenschaftliche Indices 1" four.inferior
Substitution2: "'pnum' Proportionalziffern 1" four.fitted
Substitution2: "'onum' Minuskelziffern 1" four.taboldstyle
EndChar

StartChar: five
Encoding: 53 53 7
Width: 465
VWidth: 487
Flags: HW
HStem: -42 8<157.458 241.421> -11 25<173.394 247.945> 37 8<193.878 226.052> 118 8<68.9572 114.986> 320 8<152.53 228.074> 351 40<121.777 264.656> 414 8<174.091 270.349> 512 8<188.446 348.71> 543 57<140.42 373.874> 549 62<140.54 216.266 220.485 265.754 269.409 373> 623 8<126.528 305.968>
VStem: 23 8<44.0022 84.7018> 294 8<150.621 232.312> 325 83<105.802 288.445> 431 8<161.651 246.263>
LayerCount: 2
Fore
SplineSet
325 189 m 0
 325 298 268 351 203 351 c 0
 167 351 129 347 76 327 c 1
 110 605 l 1
 145 602 181 600 218 600 c 0
 271 600 325 605 382 611 c 1
 389 607 l 1
 373 549 l 1
 332 545 298 543 268 543 c 0
 220 543 178 548 141 552 c 1
 121 375 l 1
 139 382 186 391 229 391 c 0
 341 391 408 304 408 207 c 0
 408 81 320 -11 196 -11 c 0
 139 -11 54 23 54 64 c 0
 54 84 73 95 92 95 c 0
 113 95 130 80 143 63 c 0
 158 43 171 14 209 14 c 0
 269 14 325 94 325 189 c 0
294 189 m 0
 294 290.7 244.7 320 203 320 c 0
 167.1 320 132.9 315.4 86.9 298 c 2
 39 279.9 l 1
 82.9 638.4 l 1
 86.7 638.1 l 2
 130.8 634.3 177.3 631 218 631 c 0
 274.8 631 332 636.9 387.4 642.7 c 2
 388.7 642.9 l 1
 425.3 622 l 1
 397.2 520.2 l 1
 394.5 519.9 l 2
 348.9 515.5 299.2 512 268 512 c 0
 227.2 512 193.3 515.3 168.3 517.9 c 1
 156.8 415.6 l 1
 184.1 420.2 206.5 422 229 422 c 0
 364.1 422 439 313.9 439 207 c 0
 439 80.1 358.8 -14.8 248.2 -36.9 c 0
 227.9 -41 210.7 -42 196 -42 c 0
 134.3 -42 23 -10.1 23 64 c 0
 23 113.5 70.1 126 92 126 c 0
 132.9 126 155.5 97.6 167.7 81.7 c 0
 190.1 51.8 191.2 45 209 45 c 0
 215.9 45 220.1 46.5 223.1 47.6 c 0
 257.3 60 294 119.7 294 189 c 0
302 189 m 0
 302 117.6 265 54.3 225.8 40.1 c 0
 222.3 38.8 217.4 37 209 37 c 0
 186.7 37 182.5 48.6 161.3 76.9 c 0
 149.3 92.5 128.6 118 92 118 c 0
 71.5 118 31 106.6 31 64 c 0
 31 -1.3 134.1 -34 196 -34 c 0
 210.3 -34 227 -33 246.6 -29.1 c 0
 353.4 -7.7 431 83.6 431 207 c 0
 431 310.4 359 414 229 414 c 0
 205.3 414 180 411.7 152.9 406.8 c 2
 147.6 405.8 l 1
 161.3 526.7 l 1
 165.2 526.2 l 2
 192.1 523.4 225.8 520 268 520 c 0
 298.2 520 345.4 523.2 391 527.6 c 1
 415.9 618.1 l 1
 387 634.6 l 1
 332.6 628.9 274.8 623 218 623 c 0
 178.1 623 133.2 626.1 89.9 629.8 c 1
 48.6 292.1 l 1
 84.1 305.5 l 2
 130.9 323.1 166.4 328 203 328 c 0
 249.6 328 302 293.8 302 189 c 0
EndSplineSet
Substitution2: "'case' Versalformen 1" five.cap
AlternateSubs2: "'aalt' Alle Alternativen zeigen 1" five.oldstyle five.superior five.fitted
Substitution2: "'sups' Hochgestellte 1" five.superior
Substitution2: "'sinf' Wissenschaftliche Indices 1" five.inferior
Substitution2: "'pnum' Proportionalziffern 1" five.fitted
Substitution2: "'onum' Minuskelziffern 1" five.taboldstyle
EndChar

StartChar: six
Encoding: 54 54 8
Width: 465
VWidth: 487
Flags: HW
HStem: -42 8<203.432 283.689> -11 25<203.442 291.149> 37 8<227.176 268.281> 314 8<194.951 250.312> 345 25<179.137 279.141> 393 8<209.213 296.367> 591 20G<305.5 360> 624.7 20G<358.846 362.104>
VStem: 13 8<175.779 282.714> 44 77<108.391 309.038> 144 8<166.761 279.908> 320 8<135.937 217.937> 351 77<101.831 275.878> 385 8<573.053 614.363> 451 8<158.851 243.516>
LayerCount: 2
Fore
SplineSet
129.9 310.4 m 1
 123.5 280.4 121 252.4 121 229 c 0
 121 58 192 14 255 14 c 0
 304 14 351 73 351 183 c 0
 351 233 326 345 228 345 c 0
 207.9 345 167.6 343.1 129.9 310.4 c 1
137 339 m 1
 167.3 358.4 217.6 370 249 370 c 0
 385 370 428 288 428 202 c 0
 428 116 375 -11 244 -11 c 0
 167 -11 44 29 44 232 c 0
 44 311 75 402 137 474 c 0
 193 539 255 581 356 611 c 1
 364 606 362 597 362 585 c 1
 226.9 534.4 163.3 431 137 339 c 1
158.1 293.3 m 1
 152.5 261.9 152 246.7 152 229 c 0
 152 62.9 214.9 45 255 45 c 0
 277.8 45 320 81.9 320 183 c 0
 320 235.6 292.5 314 228 314 c 0
 208.6 314 182.6 310.5 158.1 293.3 c 1
150.5 296.3 m 2
 150.8 297.9 l 1
 152.1 298.8 l 2
 179 318.5 207.7 322 228 322 c 0
 300.3 322 328 236.3 328 183 c 0
 328 81 285.5 37 255 37 c 0
 210 37 144 60.4 144 229 c 0
 144 247.1 144.8 265.2 150.5 296.3 c 2
191 393.4 m 1
 217 399.6 233.3 401 249 401 c 0
 407.1 401 459 296.3 459 202 c 0
 459 103.9 396.5 -42 244 -42 c 0
 151.3 -42 13 15.2 13 232 c 0
 13 322.2 48.9 419.2 113.5 494.2 c 0
 178 569 251.7 612.4 358.8 644.2 c 2
 360.6 644.7 l 1
 362.1 643.7 l 2
 402.5 618.4 393 593.5 393 570.3 c 2
 393 567.5 l 1
 390.4 566.5 l 2
 285.4 527.2 225.6 462.7 191 393.4 c 1
184.7 383.5 m 2
 176.4 381.3 l 1
 180.1 389.1 l 2
 214.6 462.8 275 531 385 573.1 c 1
 385.6 596.4 393.6 613.5 359.4 636 c 1
 255.1 604.7 182.7 562.2 119.6 489 c 0
 56.3 415.5 21 320.2 21 232 c 0
 21 19.8 154.6 -34 244 -34 c 0
 390 -34 451 106 451 202 c 0
 451 293.2 402.2 393 249 393 c 0
 232.4 393 212.2 390.9 184.7 383.5 c 2
EndSplineSet
Substitution2: "'case' Versalformen 1" six.cap
AlternateSubs2: "'aalt' Alle Alternativen zeigen 1" six.oldstyle six.superior six.fitted
Substitution2: "'sups' Hochgestellte 1" six.superior
Substitution2: "'sinf' Wissenschaftliche Indices 1" six.inferior
Substitution2: "'pnum' Proportionalziffern 1" six.fitted
Substitution2: "'onum' Minuskelziffern 1" six.taboldstyle
EndChar

StartChar: seven
Encoding: 55 55 9
Width: 465
VWidth: 487
Flags: HW
HStem: -44.6 8.2<126.856 211.819> -39.9 7.7<126.856 211.819> -13 21G<127 195> 419.4 7.6<37.7828 91.9521> 514 8<145.84 315.982> 545 55<109.953 360.901> 591 20G<399.5 424> 623 8<115.867 379.319> 637 8<59.6623 78.8316>
VStem: 40 8<561.526 625.875> 51 22<448.946 478.14>
LayerCount: 2
Fore
SplineSet
160 545 m 2
 128 545 95 528 73 448 c 1
 62 446.7 61.9 447.9 51 451 c 1
 59 503 70 563 71 611 c 0
 71 614 72 614 75 614 c 0
 93 610 91 600 125 600 c 2
 331 600 l 2
 369 600 391 606 408 611 c 1
 424 599 l 1
 312 326 252 160 195 -10 c 1
 135 -13 l 1
 127 -6 l 1
 195 146 284 351 362 545 c 1
 160 545 l 2
160 514 m 2
 138.2 514 116.8 490.3 98.1 422.3 c 2
 97.4 419.7 l 1
 94.7 419.4 l 2
 58.6 415 39.5 422.1 20 427.6 c 2
 16.2 428.7 l 1
 16.8 432.6 l 2
 26.1 493.1 39 564.9 40 611.3 c 0
 40 635.2 58.2 645 78 645 c 2
 78.4 645 l 1
 78.8 644.9 l 2
 121.3 635.4 108.6 631 135 631 c 2
 331 631 l 2
 379.3 631 387.2 637.2 412.2 644.6 c 2
 414.2 645.1 l 1
 461.8 609.4 l 1
 452.7 587.3 l 1
 335 290.5 l 1
 289.6 170.9 256.4 75.4 224.4 -19.9 c 2
 217.7 -39.9 l 1
 124 -44.6 l 1
 89.3 -14.2 l 1
 98.7 6.6 l 1
 254.9 366.3 l 1
 316 514 l 1
 160 514 l 2
160 522 m 2
 328 522 l 1
 262.2 363.2 l 1
 106 3.4 l 1
 99.1 -12.1 l 1
 126.9 -36.4 l 1
 211.8 -32.2 l 1
 216.8 -17.3 l 2
 248.8 78.1 282.1 173.6 327.6 293.4 c 1
 445.3 590.3 l 1
 452 606.7 l 1
 412.6 636.3 l 1
 390 629.5 378.9 623 331 623 c 2
 135 623 l 2
 107.3 623 115.6 637 78 637 c 0
 60.6 637 48 629.7 48 611.2 c 0
 47 564.4 34.5 494.1 25.2 434.4 c 1
 43.7 429.1 58 423.7 91.1 427 c 1
 109.3 491.6 131.5 522 160 522 c 2
EndSplineSet
Substitution2: "'case' Versalformen 1" seven.cap
AlternateSubs2: "'aalt' Alle Alternativen zeigen 1" seven.oldstyle seven.superior seven.fitted
Substitution2: "'sups' Hochgestellte 1" seven.superior
Substitution2: "'sinf' Wissenschaftliche Indices 1" seven.inferior
Substitution2: "'pnum' Proportionalziffern 1" seven.fitted
Substitution2: "'onum' Minuskelziffern 1" seven.taboldstyle
EndChar

StartChar: nine
Encoding: 57 57 10
Width: 465
VWidth: 487
Flags: HW
HStem: -45.7 20<108.896 112.154> -12 20<111 165.5> 198 8<174.633 261.787> 229 25<191.859 291.863> 277 8<220.688 276.049> 554 8<202.719 243.824> 585 25<179.851 267.558> 633 8<187.311 267.568>
VStem: 12 8<355.484 440.149> 43 77<323.122 497.169> 78 8<-15.3627 25.9466> 143 8<381.063 463.063> 319 8<319.092 432.239> 350 77<289.962 490.609> 450 8<316.286 423.221>
LayerCount: 2
Fore
SplineSet
341.1 288.6 m 1
 347.5 318.6 350 346.6 350 370 c 0
 350 541 279 585 216 585 c 0
 167 585 120 526 120 416 c 0
 120 366 145 254 243 254 c 0
 263.1 254 303.4 255.9 341.1 288.6 c 1
334 260 m 1
 303.7 240.6 253.4 229 222 229 c 0
 86 229 43 311 43 397 c 0
 43 483 96 610 227 610 c 0
 304 610 427 570 427 367 c 0
 427 288 396 197 334 125 c 0
 278 60 216 18 115 -12 c 1
 107 -7 109 2 109 14 c 1
 244.1 64.6 307.7 168 334 260 c 1
312.9 305.7 m 1
 318.5 337.1 319 352.3 319 370 c 0
 319 536.1 256.1 554 216 554 c 0
 193.2 554 151 517.1 151 416 c 0
 151 363.4 178.5 285 243 285 c 0
 262.4 285 288.4 288.5 312.9 305.7 c 1
320.5 302.7 m 2
 320.2 301.1 l 1
 318.9 300.2 l 2
 292 280.5 263.3 277 243 277 c 0
 170.7 277 143 362.7 143 416 c 0
 143 518 185.5 562 216 562 c 0
 261 562 327 538.6 327 370 c 0
 327 351.9 326.2 333.8 320.5 302.7 c 2
280 205.6 m 1
 254 199.4 237.7 198 222 198 c 0
 63.9 198 12 302.7 12 397 c 0
 12 495.1 74.5 641 227 641 c 0
 319.7 641 458 583.8 458 367 c 0
 458 276.8 422.1 179.8 357.5 104.8 c 0
 293 30 219.3 -13.4 112.2 -45.2 c 2
 110.4 -45.7 l 1
 108.9 -44.7 l 2
 68.5 -19.4 78 5.5 78 28.7 c 2
 78 31.5 l 1
 80.6 32.5 l 2
 185.6 71.8 245.4 136.3 280 205.6 c 1
286.3 215.5 m 2
 294.6 217.7 l 1
 290.9 209.9 l 2
 256.4 136.2 196 68 86 25.9 c 1
 85.4 2.6 77.4 -14.5 111.6 -37 c 1
 215.9 -5.7 288.3 36.8 351.4 110 c 0
 414.7 183.5 450 278.8 450 367 c 0
 450 579.2 316.4 633 227 633 c 0
 81 633 20 493 20 397 c 0
 20 305.8 68.8 206 222 206 c 0
 238.6 206 258.8 208.1 286.3 215.5 c 2
EndSplineSet
Substitution2: "'case' Versalformen 1" nine.cap
AlternateSubs2: "'aalt' Alle Alternativen zeigen 1" nine.oldstyle nine.superior nine.fitted
Substitution2: "'sups' Hochgestellte 1" nine.superior
Substitution2: "'sinf' Wissenschaftliche Indices 1" nine.inferior
Substitution2: "'pnum' Proportionalziffern 1" nine.fitted
Substitution2: "'onum' Minuskelziffern 1" nine.taboldstyle
Colour: ff00ff
EndChar

StartChar: A
Encoding: 65 65 14
Width: 820
VWidth: 999
Flags: HW
HStem: -36.3 8<152.363 261.844 265.7 384.306 583.363 724.711 728.699 847.255> -31 8<156.936 379.722 587.661 842.426> -5 23<160.988 213.669 317.181 375.722 591.988 662.124 782.044 838.722> 215 8<392.504 584.204> 246 32<390.68 594.855> 301 8<429.296 551.303> 638 20G<528.355 543.037> 661 8<481.639 497.12>
LayerCount: 2
Fore
SplineSet
325.9 278 m 2
 504.9 278 l 1
 408.9 555 l 1
 405.9 555 l 1
 300.7 296.3 l 2
 296.6 286.1 303.9 278 325.9 278 c 2
212.9 69 m 2
 196.7 27.3 244.3 20.6 281.9 18 c 1
 287.9 12 287.9 1 281.9 -5 c 1
 244.9 -4 214.9 0 173.9 0 c 0
 134.9 0 111.9 -4 74.9 -5 c 1
 68.9 1 68.9 12 74.9 18 c 1
 118.4 21 149 31.3 174.8 92 c 2
 406.9 638 l 1
 419.9 638 430.9 649 445.9 658 c 1
 654.9 76 l 2
 672.9 25 706.1 21.5 744.9 18 c 1
 750.9 12 750.9 1 744.9 -5 c 1
 707.9 -4 677.9 0 636.9 0 c 0
 597.9 0 542.9 -4 505.9 -5 c 1
 499.9 1 499.9 12 505.9 18 c 1
 553.5 21.4 594 21 579.9 62 c 2
 516.4 246 l 1
 307.9 246 l 2
 283.9 246 277.9 237 272.9 224 c 2
 212.9 69 l 2
339.3 309 m 1
 461.3 309 l 1
 405.2 471 l 1
 339.3 309 l 1
472.5 301 m 1
 327.4 301 l 1
 405.7 493.7 l 1
 472.5 301 l 1
251.9 83.2 m 2
 247.9 72.9 246.9 67.8 246.6 64 c 0
 245.5 49.9 258.8 50.6 294.1 48.2 c 2
 295.6 48.1 l 1
 296.6 47.1 l 2
 328 15.7 316.3 -14.4 295.6 -35.1 c 2
 294.3 -36.3 l 1
 292.6 -36.3 l 2
 246.4 -35.1 213.2 -31 173.9 -31 c 0
 131 -31 104.1 -35.2 64.7 -36.3 c 2
 62.4 -36.3 l 1
 61.1 -35.1 l 2
 30.8 -4.8 38.3 25.3 60.1 47.1 c 2
 61.1 48.1 l 1
 63.1 48.3 l 2
 111.5 51.6 124.1 51.9 146.3 104.1 c 2
 386.3 669 l 1
 405.7 669 l 1
 416.8 673.5 447.5 695.2 458.1 701.5 c 2
 462.3 704 l 1
 684.1 86.4 l 2
 698.1 46.8 715.8 51.8 757.4 48 c 2
 758.8 47.9 l 1
 759.9 46.8 l 2
 790.9 15.8 779.6 -14.1 758.6 -35.1 c 2
 757.3 -36.3 l 1
 755.1 -36.3 l 2
 708.1 -35 676.3 -31 636.9 -31 c 0
 591.3 -31 534.8 -35.2 495.1 -36.3 c 2
 493.4 -36.3 l 1
 492.1 -35.1 l 2
 462.2 -5.2 468.7 22.6 491.1 45 c 2
 492.1 46.1 l 1
 493.6 46.2 l 2
 511.1 47.2 520.7 48.9 527.2 51.1 c 0
 543.7 56.8 542.8 67.3 533.1 95.4 c 2
 494.2 215 l 1
 307.9 215 l 2
 298.1 215 303 215 302.5 214.9 c 0
 302.4 214.5 302.1 213.6 301.8 212.8 c 2
 251.9 83.2 l 2
244.5 86.1 m 2
 294.3 215.7 l 2
 295.4 218.5 295.6 223 307.9 223 c 2
 500 223 l 1
 540.6 97.9 l 2
 549.9 70.9 553.5 51.6 529.8 43.5 c 0
 522.1 40.9 514.4 39.5 495.7 38.3 c 1
 477.4 19.3 471.1 -1.7 496.6 -28.3 c 1
 533.9 -27.2 591.7 -23 636.9 -23 c 0
 676.4 -23 708.3 -27 754.1 -28.3 c 1
 771.4 -10.4 781.5 12.6 755.2 40.2 c 1
 716.6 43.5 691.9 40 676.5 83.7 c 2
 458.1 692.1 l 1
 446 684.4 418.8 665 407.8 661.2 c 2
 407.1 661 l 1
 391.6 661 l 1
 153.7 101 l 2
 130.8 47 113 43.7 64.7 40.4 c 1
 47 21.9 39.8 -1.3 65.6 -28.3 c 1
 103.7 -27.2 130.7 -23 173.9 -23 c 0
 213.4 -23 245.3 -27 291.1 -28.3 c 1
 308.7 -9.7 318.3 12.8 292 40.4 c 1
 262.7 42.4 236.8 40.7 238.6 64.6 c 0
 239 69.5 240.4 75.4 244.5 86.1 c 2
EndSplineSet
Position2: "'cpsp' Versalabstaende 1" dx=2 dy=0 dh=5 dv=0
Substitution2: "'c2sc' Versale nach Kapitaelchen 1" a.sc
EndChar

StartChar: B
Encoding: 66 66 15
Width: 744
VWidth: 999
Flags: HW
HStem: -36 8<96.4229 236.42 240.827 448.07> -5 23<105.133 172.918 310.386 452.094> 41 8<96.602 139.545 329.13 416.8> 306 8<310.004 395.728> 337 24<279.049 424.096> 384 8<310.151 397.576> 595 8<312.445 393.672> 626 24<105.489 174.41 288.506 418.464> 668 8<101.591 361.383> 673 8<96.4743 235.772 240.101 423.935>
VStem: 167 8<82.4326 555.438> 198 81<35.6889 337 360.997 612.475> 302.1 8<66.9915 306 391.997 591.918> 469 8<450.303 515.15> 500 75<425.884 562.652> 516 8<125.523 199.114> 547 87<94.8138 251.999> 598 8<462.192 531.963> 657 8<145.108 222.244>
AnchorPoint: "mittelpunkt" 236 185 basechar 0
AnchorPoint: "top_rechts" 599 732 basechar 0
AnchorPoint: "unten_punkt" 358 -110 basechar 0
AnchorPoint: "unten_anhang" 340 0 basechar 0
AnchorPoint: "top_akzent" 357 850 basechar 0
LayerCount: 2
Fore
SplineSet
279 361 m 1
 355 361 l 2
 438 361 500 396 500 481 c 0
 500 583 424 626 368 626 c 0
 281 626 281.5 616 281 583 c 0
 279.9 512.9 279.2 433.9 279 361 c 1
238 645 m 0
 281 645 328 650 363 650 c 0
 549 650 575 560 575 493 c 0
 575 438.7 533.1 387.4 483 362 c 1
 483 360 l 1
 570 335 634 280 634 184 c 0
 634 98 584 -5 385 -5 c 0
 296 -5 282 0 239 0 c 0
 188.3 0 158 -4 109 -5 c 1
 103 1 103 12 109 18 c 1
 179 21 194.3 25.3 196 109 c 0
 197.7 192 198 238 198 321 c 0
 198 404 197.3 453 196 536 c 0
 194.7 618.7 179 624 109 627 c 1
 103 633 103 644 109 650 c 1
 159 649 187.7 645 238 645 c 0
281 85 m 0
 281.7 52 294 18 364 18 c 0
 516 18 547 92 547 165 c 0
 547 255 487 337 350 337 c 2
 279 337 l 1
 279 331.7 279 326.5 279 321.3 c 0
 279 238.3 279.3 168 281 85 c 0
310.2 392 m 1
 355 392 l 2
 433.5 392 469 420.7 469 481 c 0
 469 567.7 406.5 595 368 595 c 0
 332.1 595 318.8 593 312.2 591.6 c 1
 311.9 585.6 312 584.4 312 582.5 c 0
 311 519.1 310.5 452 310.2 392 c 1
355 384 m 2
 302.1 384 l 1
 302.1 388 l 2
 302.3 449.4 303 517.8 304 582.6 c 0
 304 585.4 304.2 593.1 304.7 597.8 c 1
 315.3 601 324.2 603 368 603 c 0
 409.9 603 477 572.8 477 481 c 0
 477 415.5 435.7 384 355 384 c 2
238 676 m 0
 282.5 676 328.4 681 363 681 c 0
 568.7 681 606 569.6 606 493 c 0
 606 439.9 575.9 396.3 546.4 368.8 c 1
 619.3 332.4 665 269.7 665 184 c 0
 665 78.7 593.9 -36 385 -36 c 0
 289 -36 277.9 -31 239 -31 c 0
 183.6 -31 149.8 -35.1 98.1 -36.2 c 2
 96.4 -36.3 l 1
 95.2 -35.1 l 2
 64.8 -4.7 72.6 25 94.2 47 c 2
 95.6 48.5 l 1
 97.8 48.5 l 2
 169.4 51.6 162.9 55.8 165 119.7 c 0
 167.8 205.7 167 241.1 167 321 c 0
 167 407.1 166.6 445.7 165 525.5 c 0
 163.7 590.8 156.4 592.8 97.1 596.5 c 2
 95.6 596.6 l 1
 94.5 597.6 l 2
 63.6 628.5 73.5 658.4 95.2 680.1 c 2
 96.4 681.3 l 1
 98.1 681.2 l 2
 156 680 190.4 676 238 676 c 0
238 668 m 0
 190.2 668 157.3 671.9 99.7 673.2 c 1
 82 654.9 72.8 631.9 99.1 604.4 c 1
 158.7 600.6 171.6 593.2 173 525.6 c 0
 174.6 445.8 175 407.1 175 321 c 0
 175 241.2 175.9 205.6 173 119.4 c 0
 170.9 55.3 173 43.9 99.1 40.6 c 1
 80.9 21.6 74 -1.3 99.7 -28.2 c 1
 149.1 -27.1 183.8 -23 239 -23 c 0
 278.9 -23 289.3 -28 385 -28 c 0
 590.2 -28 657 83 657 184 c 0
 657 268.8 610.3 330 537.6 364.2 c 2
 532.1 366.8 l 1
 536.7 370.8 l 2
 567.7 398 598 441 598 493 c 0
 598 566.2 564.5 673 363 673 c 0
 329 673 283.1 668 238 668 c 0
312 85.5 m 0
 312.5 61.1 312.7 49 364 49 c 0
 504.6 49 516 107.8 516 165 c 0
 516 241.9 468.1 306 350 306 c 2
 310 306 l 1
 310 225.4 310.5 160.5 312 85.5 c 0
304 85.3 m 0
 302.5 161.6 302 228.1 302 310 c 2
 302 314 l 1
 350 314 l 2
 471.8 314 524 246.2 524 165 c 0
 524 104.9 508.5 41 364 41 c 0
 309.9 41 304.6 58.2 304 85.3 c 0
EndSplineSet
Position2: "'cpsp' Versalabstaende 1" dx=2 dy=0 dh=5 dv=0
Substitution2: "'c2sc' Versale nach Kapitaelchen 1" b.sc
EndChar

StartChar: C
Encoding: 67 67 16
Width: 764
VWidth: 999
Flags: HW
HStem: -41 8<303.967 403.143> -10 31<282.379 444.689> 44 8<321.394 398.576> 163 8<574.716 602.608> 600 8<319.189 394.657> 631 27<289.33 432.708> 681 8<304.884 425.042>
VStem: 10 8<259.625 372.437> 41 84<203.394 448.538> 148 8<279.903 392.666> 576 23<454.584 484.514>
AnchorPoint: "mittelpunkt" 396 315 basechar 0
AnchorPoint: "top_rechts" 659 732 basechar 0
AnchorPoint: "unten_punkt" 413 -110 basechar 0
AnchorPoint: "unten_anhang" 406 -7 basechar 0
AnchorPoint: "top_akzent" 390 850 basechar 0
LayerCount: 2
Fore
SplineSet
407 -10 m 0
 192 -10 91 154 91 315 c 0
 91 419.3 126.6 512.2 193 573 c 0
 252 627 323 658 408 658 c 0
 531 658 576 618 627 613 c 1
 636 558 644 510 649 458 c 1
 641.8 453.2 635.2 452.2 626 453 c 1
 600 539 541 631 403 631 c 0
 351 631 281.6 601 232 540 c 0
 195.5 495.1 175 420.3 175 334 c 0
 175 188 251 21 406 21 c 0
 499 21 567 62 638 140 c 1
 649 140 656 134 661 125 c 1
 593 36 504 -10 407 -10 c 0
407 -41 m 0
 168 -41 60 145.7 60 315 c 0
 60 430.1 100.5 530.3 172.1 595.9 c 0
 236.6 654.9 307.2 689 408 689 c 0
 542.6 689 595.3 647.3 630 643.9 c 2
 653.7 641.5 l 1
 654.2 638.5 l 2
 665.7 568.3 675.4 507.5 681.6 443 c 2
 681.8 440.3 l 1
 679.5 439 l 2
 658.8 428.1 634.7 417.4 602.9 428 c 2
 601 428.7 l 1
 596.3 444 l 2
 571.1 527.2 520 600 403 600 c 0
 345.3 600 294.4 567.5 256.1 520.4 c 0
 224.9 482 206 411.7 206 334 c 0
 206 189.1 281.5 52 406 52 c 0
 495.7 52 556.2 96.2 623.1 169.7 c 2
 624.3 171 l 1
 626.1 171 l 2
 674.5 171 683.3 146 695.7 123.6 c 2
 697 121.3 l 1
 695.4 119.2 l 2
 617.8 17.6 520.6 -41 407 -41 c 0
407 -33 m 0
 516.8 -33 610.5 22.5 687.4 122 c 1
 676.1 142.6 670.4 162.1 627.8 163 c 1
 561.4 90.4 498.4 44 406 44 c 0
 274.5 44 198 187.6 198 334 c 0
 198 412.8 216.8 484.8 249.8 525.5 c 0
 289.1 573.8 342.2 608 403 608 c 0
 524.4 608 578.4 531.1 604 446.3 c 2
 607.4 435 l 1
 633 427.2 652.8 434.2 673.4 444.9 c 1
 667.4 505.8 657.9 566.2 646.8 634.2 c 1
 629.2 635.9 l 2
 590.1 639.7 541.4 681 408 681 c 0
 309.1 681 240.9 648 177.5 590 c 0
 107.8 526.2 68 428.3 68 315 c 0
 68 148.8 173.3 -33 407 -33 c 0
EndSplineSet
Position2: "'cpsp' Versalabstaende 1" dx=2 dy=0 dh=5 dv=0
Substitution2: "'c2sc' Versale nach Kapitaelchen 1" c.sc
EndChar

StartChar: D
Encoding: 68 68 17
Width: 877
VWidth: 999
Flags: HW
HStem: -36 8<142.485 282.483 286.627 532.633> -5 24<151.55 220.248 362.979 537.619> 42 8<393.554 500.403> 596 8<382.525 462.824> 626 24<151.55 220.248 352.416 502.266> 668 8<147.654 454.978> 673 8<142.537 281.834 285.876 506.487>
VStem: 214.1 8<91.2341 545.698> 245.1 79<42.2091 610.336> 347.1 8<96.2975 550.513> 685 8<228.861 341.02> 716 89<178.393 416.821> 828 8<248.394 353.68>
AnchorPoint: "mittelpunkt" 446 315 basechar 0
AnchorPoint: "top_rechts" 719 732 basechar 0
AnchorPoint: "unten_punkt" 379 -110 basechar 0
AnchorPoint: "unten_anhang" 379 1 basechar 0
AnchorPoint: "top_akzent" 406 850 basechar 0
LayerCount: 2
Fore
SplineSet
287.1 109 m 0
 289.2 47.1 297 19 405 19 c 0
 546 19 676 82 676 284 c 0
 676 438 596 626 380 626 c 0
 288.3 626 288.6 597.9 287.1 536 c 0
 285 452 284.1 403 284.1 320 c 0
 284.1 237 284.3 191.5 287.1 109 c 0
244.1 645 m 0
 282 645 350.1 650 418 650 c 0
 610 650 765 494 765 308 c 0
 765 62 577 -5 436 -5 c 0
 333 -5 281 0 245.1 0 c 0
 194.4 0 164.1 -4 115.1 -5 c 1
 109.1 1 109.1 12 115.1 18 c 1
 185.1 21 200.1 26 202.1 109 c 0
 204.1 192 205.1 238 205.1 321 c 0
 205.1 404 204.1 453 202.1 536 c 0
 200.1 619 185.1 624 115.1 627 c 1
 109.1 633 109.1 644 115.1 650 c 1
 165.1 649 193.8 645 244.1 645 c 0
318 110.1 m 0
 319.9 62.5 324.7 50 405 50 c 0
 539.4 50 645 105 645 284 c 0
 645 434.3 568.5 596 380 596 c 0
 323.8 596 319.9 586.3 318 535.2 c 0
 314.8 448 315.1 399.7 315.1 320 c 0
 315.1 233.7 314.8 189.1 318 110.1 c 0
310.1 109.7 m 0
 306.9 188.8 307.1 233.7 307.1 320 c 0
 307.1 399.7 306.9 448.1 310.1 535.5 c 0
 312 588.6 320.6 604 380 604 c 0
 574.6 604 653 436.3 653 284 c 0
 653 100.1 542 42 405 42 c 0
 323 42 312.2 58.8 310.1 109.7 c 0
244.1 676 m 0
 282 676 353.5 681 418 681 c 0
 631.1 681 796 507.4 796 308 c 0
 796 35.4 581 -36 436 -36 c 0
 326.2 -36 277.9 -31 245.1 -31 c 0
 189.7 -31 155.9 -35.1 104.2 -36.2 c 2
 102.5 -36.3 l 1
 101.3 -35.1 l 2
 71.1 -4.9 78.2 25 100.6 47.4 c 2
 101.7 48.4 l 1
 103.2 48.5 l 2
 166.2 52.1 169.1 46 171.1 109.8 c 0
 173.8 196 174.1 241.4 174.1 321 c 0
 174.1 407 173.5 450.4 171.1 530.2 c 0
 169 597.6 159 592.2 103.1 596.5 c 2
 101.6 596.6 l 1
 100.6 597.6 l 2
 69.7 628.5 79.6 658.4 101.3 680.1 c 2
 102.5 681.3 l 1
 104.2 681.2 l 2
 162.1 680 196.5 676 244.1 676 c 0
244.1 668 m 0
 196.3 668 163.3 671.9 105.7 673.2 c 1
 88 654.9 78.9 631.9 105.2 604.3 c 1
 160 600.1 176.9 600.9 179.1 530.5 c 0
 181.5 450.7 182.1 407.1 182.1 321 c 0
 182.1 241.4 181.8 195.8 179.1 109.5 c 0
 177.1 43.6 168 44 105.2 40.6 c 1
 86.9 21.6 80 -1.3 105.7 -28.2 c 1
 155.1 -27.1 189.9 -23 245.1 -23 c 0
 278.6 -23 326.4 -28 436 -28 c 0
 579 -28 788 41.4 788 308 c 0
 788 503 626.6 673 418 673 c 0
 353.8 673 282.6 668 244.1 668 c 0
EndSplineSet
Position2: "'cpsp' Versalabstaende 1" dx=2 dy=0 dh=5 dv=0
Substitution2: "'c2sc' Versale nach Kapitaelchen 1" d.sc
EndChar

StartChar: E
Encoding: 69 69 18
Width: 787
VWidth: 999
Flags: HW
HStem: -36.2 8<121.479 263.961 492.068 634.954> -5 23<130.19 197.701> 0 26<315.052 547.776> 49 8<347.463 520.974> 296.9 8.1<334.941 455.287> 328 28<304.057 491.4> 378.9 8.1<334.923 458.558> 467.7 7.6<591.421 636.533> 587 8<340.861 521.495> 618 27<315.386 549.955> 627 23<130.19 197.691> 632 20G<598.557 608.557> 668 8<127.156 606.075> 675 8<123.108 262.876 559.206 622.906>
VStem: 192.1 8<92.8878 549.225> 221.1 85<30.5385 328 356 614.498> 326.9 8<71.5527 296.949 387.051 580.146> 511.1 23<256.133 305.939 373.908 427.867> 552.1 8<251.655 432.129> 557.4 8.1<247.528 336.547 339.433 436.385> 610.1 23<497.558 529.198> 629.1 25<133.241 168.922>
AnchorPoint: "top_rechts" 408 732 basechar 0
AnchorPoint: "unten_anhang" 168 4 basechar 0
AnchorPoint: "unten_punkt" 168 -110 basechar 0
AnchorPoint: "top_akzent" 162 850 basechar 0
LayerCount: 2
Fore
SplineSet
420.1 357 m 2
 505.1 357 508.1 369 511.1 424 c 1
 517.1 430 528.1 430 534.1 424 c 1
 533.1 394 529.1 371.6 529.1 338 c 0
 529.1 307.5 533.1 295 534.1 260 c 1
 528.1 254 517.1 254 511.1 260 c 1
 508.1 305 505.1 327 420.1 327 c 2
 304.1 328 l 1
 304.1 328 303.1 152.5 306.1 69 c 0
 307.1 42 320.1 26 342.1 26 c 2
 498.1 26 l 2
 574.1 26 609.1 98 629.1 170 c 1
 642.2 173.2 643.7 170.9 654.1 165 c 1
 646.1 114 631.1 45 617.1 -5 c 1
 617.1 -5 537.1 0 489.1 0 c 2
 264.1 0 l 1
 264.1 0 183.1 -4 134.1 -5 c 1
 128.1 1 128.1 12 134.1 18 c 1
 204.1 21 218.6 26 221.1 109 c 0
 223.6 191.5 223.1 238 223.1 321 c 0
 223.1 404 223.6 454.5 221.1 536 c 0
 218.6 619 204.1 624 134.1 627 c 1
 128.1 633 128.1 644 134.1 650 c 1
 184.1 649 263.1 645 263.1 645 c 1
 558.1 645 l 2
 582.1 645 590.1 649 607.1 652 c 0
 610.1 652 611.1 651 611.1 649 c 0
 613.1 641 628.1 542 633.1 501 c 1
 623.3 496.3 622.5 494.2 610.1 496 c 1
 588.1 565 572.1 618 497.1 618 c 2
 342.1 618 l 2
 318.1 618 307 598 306.1 574 c 0
 303.1 492 304.1 356 304.1 356 c 1
 420.1 357 l 2
640.4 660.3 m 0
 645.9 632.8 661.3 525.8 666.2 485.5 c 2
 666.5 482.6 l 1
 663.9 481.4 l 2
 641.7 470.8 620.2 463.3 588.9 467.7 c 2
 586.4 468 l 1
 585.7 470.4 l 2
 560.8 548.6 551.7 587 497.1 587 c 2
 352.1 587 l 2
 346.9 587 337.5 585.6 337 572.9 c 0
 334.8 511.7 334.8 427.3 334.9 387 c 1
 420 388 l 2
 494.3 388.9 476.7 396.7 480.7 436.2 c 2
 480.8 437.6 l 1
 481.8 438.6 l 2
 512.9 469.7 542.8 459.1 564.3 437.6 c 2
 565.5 436.4 l 1
 565.5 434.7 l 2
 564.2 395.8 560.1 368.3 560.1 338 c 0
 560.1 307.2 564.4 285.9 565.4 249.3 c 2
 565.5 247.5 l 1
 564.2 246.3 l 2
 533 215.1 503.7 223.6 482 245.3 c 2
 480.9 246.3 l 1
 480.8 247.7 l 2
 477.1 290.7 474.4 295.3 420 296 c 2
 334.9 296.9 l 1
 334.8 237.4 334.9 137.4 337 80.1 c 0
 337.7 61.8 352.1 57 362.1 57 c 2
 498.1 57 l 2
 557.2 57 583.4 121.8 603.4 193.6 c 2
 604.1 195.8 l 1
 606.3 196.4 l 2
 646.7 206.2 667.7 192.9 685.6 182.7 c 2
 688 181.3 l 1
 687.6 178.6 l 2
 676.3 106.6 658.2 27.2 641 -34.4 c 2
 640.1 -37.5 l 1
 636.9 -37.3 l 2
 610.1 -35.6 553.5 -31 489.1 -31 c 2
 264.8 -31 l 2
 253.7 -31.5 163.4 -35.4 123.2 -36.2 c 2
 121.5 -36.3 l 1
 120.3 -35.1 l 2
 89.9 -4.7 97.6 25 119.2 47 c 2
 120.6 48.4 l 1
 122.7 48.6 l 2
 184.2 52.7 187.7 56.1 190.1 120 c 0
 193.3 205.1 192.1 240.9 192.1 321 c 0
 192.1 407.6 193.5 447.2 190.1 525 c 0
 187.1 594.6 178.6 593.6 122.9 596.4 c 2
 120.6 596.6 l 1
 119.6 597.6 l 2
 88.7 628.5 98.6 658.4 120.3 680.1 c 2
 121.5 681.3 l 1
 123.2 681.2 l 2
 173.8 680.2 246.8 676 263.7 676 c 2
 558.1 676 l 2
 581.5 676 585.9 683 607.1 683 c 0
 633.8 683 639.5 664.4 640.4 660.3 c 0
632.6 658.7 m 0
 630.8 667.1 622.4 675 607.1 675 c 0
 588.1 675 584.3 668 558.1 668 c 2
 263.7 668 l 2
 246.2 668 176 672.1 124.7 673.2 c 1
 107 654.9 98 631.9 124.2 604.4 c 1
 181.1 601.5 195 597.1 198.1 525.3 c 0
 201.5 447.3 200.1 407.5 200.1 321 c 0
 200.1 241 201.3 205 198.1 119.7 c 0
 195.6 54.2 187.4 44.8 124.2 40.6 c 1
 105.9 21.6 99 -1.3 124.7 -28.2 c 1
 163.3 -27.4 253.7 -23.5 264.5 -23 c 2
 264.6 -23 l 1
 489.1 -23 l 2
 551 -23 606.3 -27.3 634.2 -29.1 c 1
 650.5 29.8 668.1 107.1 679.2 177.1 c 1
 662.6 186.5 646 197 610.5 189.1 c 1
 590.9 119.5 563.9 49 498.1 49 c 2
 362.1 49 l 2
 349.9 49 329.9 55.6 329 79.8 c 0
 326.9 138.6 326.7 243.9 326.9 301 c 2
 326.9 305 l 1
 420.1 304 l 2
 475.6 303.3 484.5 295 488.6 249.9 c 1
 507 232.2 529.6 224.3 557.3 250.8 c 1
 556.2 285 552.1 306.9 552.1 338 c 0
 552.1 368.6 556 394.8 557.4 433.2 c 1
 539.2 450.8 516.2 460.4 488.5 434 c 1
 485.1 397.2 496.8 381 420.1 380 c 2
 326.9 378.9 l 1
 326.9 383 l 2
 326.8 422.1 326.7 509.6 329 573.2 c 0
 329.7 591.9 345.9 595 352.1 595 c 2
 497.1 595 l 2
 557.5 595 568.7 550.2 592.5 475.3 c 1
 619 472.3 636.6 477.4 657.9 487.4 c 1
 653 527.2 637.8 632.9 632.6 658.7 c 0
EndSplineSet
Position2: "'cpsp' Versalabstaende 1" dx=2 dy=0 dh=5 dv=0
Substitution2: "'c2sc' Versale nach Kapitaelchen 1" e.sc
EndChar

StartChar: F
Encoding: 70 70 19
Width: 686
VWidth: 999
Flags: HW
HStem: -36.2 8<121.479 263.631 265.187 427.567> -5 23<130.19 197.701 342.403 418.857> 286.9 8.1<334.941 445.287> 318 28<304.057 481.4> 368.9 8.1<334.923 448.558> 467.7 7.6<551.421 596.532> 587 8<340.861 481.495> 618 27<315.386 509.955> 627 23<130.19 197.691> 632 20G<558.557 568.557> 668 8<127.156 566.075> 675 8<123.108 262.876 519.206 582.906>
VStem: 192.1 8<92.8878 549.225> 221.1 85<39.9098 318 346 614.498> 326.9 8<122.649 286.949 377.051 580.146> 501.1 23<246.133 295.939 363.908 417.867> 542.1 8<241.655 422.129> 547.4 8.1<237.528 326.547 329.433 426.385 475.27 477.639> 570.1 23<497.558 529.198>
AnchorPoint: "top_rechts" 408 732 basechar 0
AnchorPoint: "unten_anhang" 168 4 basechar 0
AnchorPoint: "unten_punkt" 168 -110 basechar 0
AnchorPoint: "top_akzent" 162 850 basechar 0
LayerCount: 2
Fore
SplineSet
306.1 109 m 0
 308.5 26 345 21 415 18 c 1
 421 12 421 1 415 -5 c 1
 366 -4 323.5 0 265 0 c 0
 213.9 0 183.1 -4 134.1 -5 c 1
 128.1 1 128.1 12 134.1 18 c 1
 204.1 21 218.6 26 221.1 109 c 0
 223.6 191.5 223.1 238 223.1 321 c 0
 223.1 404 223.6 454.5 221.1 536 c 0
 218.6 619 204.1 624 134.1 627 c 1
 128.1 633 128.1 644 134.1 650 c 1
 184.1 649 263.1 645 263.1 645 c 1
 518.1 645 l 2
 542.1 645 550.1 649 567.1 652 c 0
 570.1 652 571.1 651 571.1 649 c 0
 573.1 641 588.1 542 593.1 501 c 1
 583.3 496.3 582.5 494.2 570.1 496 c 1
 548.1 565 532.1 618 457.1 618 c 2
 342.1 618 l 2
 318.1 618 307 598 306.1 574 c 0
 303.1 492 304.1 346 304.1 346 c 1
 410.1 347 l 2
 495.1 347 498.1 359 501.1 414 c 1
 507.1 420 518.1 420 524.1 414 c 1
 523.1 384 519.1 361.6 519.1 328 c 0
 519.1 297.5 523.1 285 524.1 250 c 1
 518.1 244 507.1 244 501.1 250 c 1
 498.1 295 495.1 317 410.1 317 c 2
 304.1 318 l 1
 304.1 318 303.1 192.5 306.1 109 c 0
339 120 m 0
 341.4 56.1 364.8 52.7 426.3 48.6 c 2
 428.4 48.4 l 1
 429.8 47 l 2
 451.4 25 459.2 -4.7 428.8 -35.1 c 2
 427.6 -36.3 l 1
 425.9 -36.2 l 2
 385.7 -35.4 275.7 -31 264.2 -31 c 0
 252.6 -31 163.4 -35.4 123.2 -36.2 c 2
 121.5 -36.3 l 1
 120.3 -35.1 l 2
 89.9 -4.7 97.6 25 119.2 47 c 2
 120.6 48.4 l 1
 122.7 48.6 l 2
 184.2 52.7 187.7 56.1 190.1 120 c 0
 193.3 205.1 192.1 240.9 192.1 321 c 0
 192.1 407.6 193.5 447.2 190.1 525 c 0
 187.1 594.6 178.6 593.6 122.9 596.4 c 2
 120.6 596.6 l 1
 119.6 597.6 l 2
 88.7 628.5 98.6 658.4 120.3 680.1 c 2
 121.5 681.3 l 1
 123.2 681.2 l 2
 173.8 680.2 246.8 676 263.7 676 c 2
 518.1 676 l 2
 541.5 676 545.9 683 567.1 683 c 0
 593.8 683 599.5 664.4 600.4 660.3 c 0
 605.9 632.8 621.3 525.8 626.2 485.5 c 2
 626.5 482.6 l 1
 623.9 481.4 l 2
 601.7 470.8 580.2 463.3 548.9 467.7 c 2
 546.4 468 l 1
 545.7 470.4 l 2
 520.8 548.6 511.7 587 457.1 587 c 2
 352.1 587 l 2
 346.9 587 337.5 585.6 337 572.9 c 0
 334.8 511.7 334.8 417.3 334.9 377 c 1
 410 378 l 2
 484.3 378.9 466.7 386.7 470.7 426.2 c 2
 470.8 427.6 l 1
 471.8 428.6 l 2
 502.9 459.7 532.8 449.1 554.3 427.6 c 2
 555.5 426.4 l 1
 555.5 424.7 l 2
 554.2 385.8 550.1 358.3 550.1 328 c 0
 550.1 297.2 554.4 275.9 555.4 239.3 c 2
 555.5 237.5 l 1
 554.2 236.3 l 2
 523 205.1 493.7 213.6 472 235.3 c 2
 470.9 236.3 l 1
 470.8 237.7 l 2
 467.1 280.7 464.4 285.3 410 286 c 2
 334.9 286.9 l 1
 334.8 227.4 336.9 177.3 339 120 c 0
331 119.7 m 0
 328.9 178.5 326.7 233.9 326.9 291 c 2
 326.9 295 l 1
 410.1 294 l 2
 465.6 293.3 474.5 285 478.6 239.9 c 1
 497 222.2 519.6 214.3 547.3 240.8 c 1
 546.2 275 542.1 296.9 542.1 328 c 0
 542.1 358.6 546 384.8 547.4 423.2 c 1
 529.2 440.8 506.2 450.4 478.5 424 c 1
 475.1 387.2 486.8 371 410.1 370 c 2
 326.9 368.9 l 1
 326.9 373 l 2
 326.8 412.1 326.7 509.6 329 573.2 c 0
 329.7 591.9 345.9 595 352.1 595 c 2
 457.1 595 l 2
 517.5 595 528.7 550.2 552.5 475.3 c 1
 579 472.3 596.6 477.4 617.9 487.4 c 1
 613 527.2 597.8 632.9 592.6 658.7 c 0
 590.8 667.1 582.4 675 567.1 675 c 0
 548.1 675 544.3 668 518.1 668 c 2
 263.7 668 l 2
 246.2 668 176 672.1 124.7 673.2 c 1
 107 654.9 98 631.9 124.2 604.4 c 1
 181.1 601.5 195 597.1 198.1 525.3 c 0
 201.5 447.3 200.1 407.5 200.1 321 c 0
 200.1 241 201.3 205 198.1 119.7 c 0
 195.6 54.2 187.4 44.8 124.2 40.6 c 1
 105.9 21.6 99 -1.3 124.7 -28.2 c 1
 163.3 -27.4 253.7 -23 264.5 -23 c 0
 277.2 -23 383.1 -27.3 424.3 -28.2 c 1
 450 -1.3 443.2 21.6 424.9 40.6 c 1
 361.7 44.8 333.5 54.2 331 119.7 c 0
EndSplineSet
Position2: "'cpsp' Versalabstaende 1" dx=2 dy=0 dh=5 dv=0
Substitution2: "'c2sc' Versale nach Kapitaelchen 1" f.sc
EndChar

StartChar: G
Encoding: 71 71 20
Width: 821
VWidth: 999
Flags: HW
HStem: -41 8<378.062 489.206> -10 26<373.399 519.634> 39 8<412.814 483.649> 256 7.9<497.442 544.283> 284 26<513.361 582.245 689.397 727.639> 328 8<503.506 738.532> 333 8<499.459 637.728 642.094 742.171> 422 8<631.925 670.541> 602 8<386.011 463.142> 631 27<351.288 504.195> 636 8<629.658 670.316> 681 8<381.957 494.654>
VStem: 60 8<255.919 361.338> 91 85<214.802 432.033> 199 8<284.509 375.479> 567 8<85.4499 231.644> 599 79<83.4212 274.003> 649 24<455.186 485.34> 701 8<108.234 246.155>
AnchorPoint: "mittelpunkt" 218.6 335 basechar 0
AnchorPoint: "top_rechts" 541.6 732 basechar 0
AnchorPoint: "unten_anhang" 277.6 2 basechar 0
AnchorPoint: "unten_punkt" 277.6 -110 basechar 0
AnchorPoint: "top_akzent" 275.6 850 basechar 0
LayerCount: 2
Fore
SplineSet
433 658 m 0
 555 658 591 613 651 613 c 1
 658.2 577 665.2 527.5 673 459 c 1
 665.7 453.5 659 453 649 453 c 1
 623 539 564 631 419 631 c 0
 292 631 176 502 176 327 c 0
 176 195 273 16 451 16 c 0
 505 16 565 42 599 74 c 1
 599 236 l 2
 599 276.1 571.9 279.8 517 284 c 1
 511 290 511 304 517 310 c 1
 564 309 602 305 641 305 c 0
 681 305 694 309 724 310 c 1
 730 304 730 290 724 284 c 1
 695 281 678 271.2 678 236 c 2
 678 111 l 2
 678 100 683 92 694 83 c 1
 626 25 546 -10 428 -10 c 0
 227 -10 91 134 91 307 c 0
 91 527 261 658 433 658 c 0
568 185 m 1
 566.2 259.8 559.7 253.4 498.7 256 c 2
 497.1 256.1 l 1
 496 257.2 l 2
 472.6 280.3 478 320 497.7 339.8 c 2
 498.9 341 l 1
 500.6 341 l 2
 545.4 340 594.7 336 639.8 336 c 0
 688.3 336 699 340 741.2 341 c 2
 742.9 341 l 1
 744.1 339.8 l 2
 766.9 316.9 766.3 277.4 745.8 257.2 c 2
 744.8 256.1 l 1
 743.3 256 l 2
 704.7 253.1 710.6 258.5 709 185 c 1
 709 121 l 2
 709 101.9 732.8 91.2 738.6 86.5 c 2
 742.4 83.5 l 1
 738.7 80.4 l 2
 655.4 9.4 568.7 -41 428 -41 c 0
 206.9 -41 60 120.5 60 307 c 0
 60 549.3 249.6 689 433 689 c 0
 568.7 689 610.6 644 651 644 c 2
 676.4 644 l 1
 677 640.8 l 2
 688 586.2 696.6 525.6 705.5 447.2 c 2
 705.8 444.9 l 1
 704 443.5 l 2
 675.5 422.1 659.9 422 629 422 c 2
 626 422 l 1
 619.3 444 l 2
 594.3 526.8 543.6 602 419 602 c 0
 302.4 602 207 476.3 207 327 c 0
 207 201.5 300.5 47 451 47 c 0
 494.3 47 540.6 68.1 567 88.3 c 1
 568 185 l 1
576 185 m 1
 575 84.4 l 1
 573.5 83.2 l 2
 545.7 61.1 497.4 39 451 39 c 0
 294.4 39 199 198.6 199 327 c 0
 199 478.9 296.2 610 419 610 c 0
 548 610 601.5 530.7 627 446.3 c 2
 631.9 430 l 1
 659.3 430.1 672.1 430 697.3 448.5 c 1
 688.9 522.2 680.3 583.3 669.8 636 c 1
 651 636 l 2
 605.1 636 567.2 681 433 681 c 0
 253.5 681 68 544.5 68 307 c 0
 68 124.9 211.1 -33 428 -33 c 0
 564.3 -33 647.8 14.2 729.5 83.1 c 1
 722.5 87.6 701 99 701 121 c 2
 701 185 l 1
 702.5 255.9 699.7 260.8 741.2 263.9 c 1
 756 279.8 758.6 311.8 739.6 333 c 1
 699.9 332 688.4 328 639.8 328 c 0
 595 328 546.4 331.9 502.2 333 c 1
 486.9 315.9 482.3 283.5 500.6 263.9 c 1
 560.7 261.4 574.2 262.4 576 185 c 1
EndSplineSet
Position2: "'cpsp' Versalabstaende 1" dx=2 dy=0 dh=5 dv=0
Substitution2: "'c2sc' Versale nach Kapitaelchen 1" g.sc
EndChar

StartChar: afii10057
Encoding: 1032 1032 59
Width: 384
VWidth: 999
Flags: HW
HStem: -7.3 40.3<106.417 176.927> 614 33<109.625 191.5 311 375.375>
VStem: 210 85<100.045 600.635>
LayerCount: 2
Fore
SplineSet
295 523 m 2
 295 225 l 2
 295 125 263.1 58.7 215 24 c 0
 182.6 0.700001 149.7 -7.3 122.6 -7.3 c 0
 96.9 -7.3 10 4.5 10 54 c 0
 10 76 34 90 48 90 c 0
 79 90 90.3 76.2 100 63 c 0
 107.3 53 114 33 128 33 c 0
 161 33 210 42 210 203 c 2
 210 523 l 2
 210 606 193 611 113 614 c 1
 107 620 107 641 113 647 c 1
 163 646 198 645 252 645 c 0
 299 645 323 646 372 647 c 1
 378 641 378 620 372 614 c 1
 312 611 295 606 295 523 c 2
EndSplineSet
EndChar

StartChar: afii10061
Encoding: 1036 1036 60
Width: 606
VWidth: 999
Flags: HW
HStem: -2 29<20 52 246 278 576 599> 324 42<191 293.192> 590 61<425.487 520.042> 618 29<20 52 246 278> 698 122
VStem: 106 85<35.2953 324 366 609.248> 288 201
LayerCount: 2
Fore
SplineSet
427 820 m 1
 455.6 806.7 476.3 789.3 489 768 c 1
 345 710 l 2
 324 701 312 698 303 698 c 0
 294 698 288 705 288 713 c 0
 288 720 290 725 303 734 c 2
 427 820 l 1
18 0 m 1
 18 19 l 2
 18 24 21 27 25 27 c 2
 52 29 l 2
 94 32 106 43 106 71 c 2
 106 574 l 2
 106 604 91 613 52 616 c 2
 26 618 l 2
 22 618 18 621 18 626 c 2
 18 645 l 1
 20 647 l 1
 70 646 100 645 150 645 c 0
 200 645 229 646 278 647 c 1
 280 645 l 1
 280 626 l 2
 280 621 277 618 272 618 c 2
 246 616 l 2
 206 613 191 602 191 574 c 2
 191 366 l 1
 227 366 272 367 296 381 c 0
 355 413 369 477 378 533 c 0
 388 595 416 651 495 651 c 0
 548 651 566 622 566 599 c 0
 566 570 543 559 522 559 c 0
 509 559 495 564 485 574 c 0
 474 585 466 590 453 590 c 0
 423 590 416 557 411 528 c 0
 400 466 379 380 303 352 c 1
 303 347 l 1
 372 347 411 304 438 234 c 0
 490 99 541 31 576 28 c 2
 592 27 l 2
 597 27 600 24 600 19 c 2
 600 0 l 1
 599 -2 l 1
 520 -1 l 2
 442 0 406 81 363 191 c 0
 324 291 305 324 191 324 c 1
 191 71 l 2
 191 41 206 32 246 29 c 2
 272 27 l 2
 276 27 280 24 280 19 c 2
 280 0 l 1
 278 -2 l 1
 230 0 201 0 151 0 c 0
 101 0 69 0 20 -2 c 1
 18 0 l 1
EndSplineSet
LCarets2: 1 0 
Colour: ff00ff
EndChar

StartChar: uni040D
Encoding: 1037 1037 61
Width: 925
VWidth: 999
Flags: HW
HStem: -35.5 7.9<117.925 255.342 259.743 399.635 524.925 662.342 666.743 806.635> -30.7 8<121.013 396.948 528.013 803.948> -5 23<125.598 193.276 324.659 392.332 532.598 600.276 731.659 799.332> 41.4 7.8<115.907 159.631 359.466 401.33 522.907 566.631 766.466 808.33> 596.2 7.8<117.446 159.213 359.316 402.868 524.446 566.213 766.316 809.868> 627 23<125.598 193.276 324.807 392.332 532.598 600.276 731.807 799.332> 668 8<121.811 397.774 528.811 804.774> 673 8.1<119.14 259.031 263.432 400.851 526.14 666.031 670.432 807.851> 698 21G<486 494>
VStem: 188.5 8<84.4885 563.687> 219.5 79<33.5092 611.486> 321.5 8<88.0471 545.098> 594.5 28.9<468.472 478 520 540.587> 595.5 8<84.4885 520 522.253 563.687> 626.5 79<33.5092 611.486> 728.5 8<88.0471 545.098>
LayerCount: 2
Fore
SplineSet
369 818 m 1
 490 734 l 2
 501 726 505 720 505 713 c 0
 505 705 498 698 490 698 c 0
 482 698 468 701 447 710 c 2
 293 773 l 1
 311.3 790.7 334.8 806.4 369 818 c 1
301.4 167 m 1
 306 167.3 311.8 170.7 319.1 178 c 1
 322.1 181.7 l 1
 321.4 226.5 321.5 260.9 321.5 320 c 0
 321.5 402.9 321.8 441.7 324.3 525.4 c 0
 326.2 602.3 339.7 601.5 399.7 604 c 1
 418 623.6 413.4 655.9 398.1 673 c 1
 353.5 671.9 306.3 668 261.3 668 c 0
 213.1 668 161 672 121.7 673 c 1
 102.7 651.8 105.4 619.8 120.1 604 c 1
 184.4 601.3 193.7 598.6 195.5 525.4 c 0
 197.5 442.4 196.5 403.7 196.5 321 c 0
 196.5 238.3 197.5 202.9 195.5 119.9 c 0
 193.6 42.9 179.1 43.9 119.1 41.4 c 1
 100.8 21.8 105.4 -10.5 120.7 -27.6 c 1
 165.3 -26.5 212.5 -22.7 257.5 -22.7 c 0
 305.7 -22.7 357.8 -26.6 397.1 -27.6 c 1
 416.1 -6.4 413.4 25.6 398.7 41.4 c 1
 336.3 44 325.7 46.5 323.5 113.7 c 1
 315.4 104 308.5 94.5 303.5 75.8 c 1
 309.4 24.5 329.3 20.5 388.5 18 c 1
 394.5 12 394.5 1 388.5 -5 c 1
 338.5 -4 309.8 0 259.5 0 c 0
 208.8 0 178.5 -4 129.5 -5 c 1
 123.5 1 123.5 12 129.5 18 c 1
 199.5 21 214.5 26 216.5 109 c 0
 218.5 192 219.5 238 219.5 321 c 0
 219.5 404 218.5 453 216.5 536 c 0
 214.5 619 199.5 624 129.5 627 c 1
 123.5 633 123.5 644 129.5 650 c 1
 179.5 649 208.2 645 258.5 645 c 0
 309.2 645 339.5 649 388.5 650 c 1
 394.5 644 394.5 633 388.5 627 c 1
 318.5 624 304 619 301.5 536 c 0
 299 452 298.5 403 298.5 320 c 0
 298.5 237.9 299.4 192.5 301.4 111.6 c 1
 301.4 167 l 1
708.5 109 m 0
 710.5 26 725.5 21 795.5 18 c 1
 801.5 12 801.5 1 795.5 -5 c 1
 745.5 -4 716.8 0 666.5 0 c 0
 615.8 0 585.5 -4 536.5 -5 c 1
 530.5 1 530.5 12 536.5 18 c 1
 606.5 21 621.5 26 623.5 109 c 0
 625.5 192 626.5 238 626.5 321 c 0
 626.5 404 625.5 453 623.5 536 c 0
 623.5 536.8 623.4 537.6 623.4 538.4 c 2
 623.4 478 l 1
 615.9 475.5 610.8 471 605.9 465 c 2
 603.6 462 l 1
 604 416.1 603.5 379.6 603.5 321 c 0
 603.5 238.3 604.5 202.9 602.5 119.9 c 0
 600.6 42.9 586.1 43.9 526.1 41.4 c 1
 507.8 21.8 512.4 -10.5 527.7 -27.6 c 1
 572.3 -26.5 619.5 -22.7 664.5 -22.7 c 0
 712.7 -22.7 764.8 -26.6 804.1 -27.6 c 1
 823.1 -6.4 820.4 25.6 805.7 41.4 c 1
 741.4 44.1 732.1 46.7 730.3 119.9 c 0
 728.3 202.6 728.5 236.9 728.5 320 c 0
 728.5 402.9 728.8 441.7 731.3 525.4 c 0
 733.2 602.3 746.7 601.5 806.7 604 c 1
 825 623.6 820.4 655.9 805.1 673 c 1
 760.5 671.9 713.3 668 668.3 668 c 0
 620.1 668 568 672 528.7 673 c 1
 509.7 651.8 512.4 619.8 527.1 604 c 1
 589.5 601.4 600.1 598.8 602.3 531.8 c 1
 610.3 544.4 616.9 558.5 621.2 571.1 c 1
 615 620.6 594.9 624.5 536.5 627 c 1
 530.5 633 530.5 644 536.5 650 c 1
 586.5 649 615.2 645 665.5 645 c 0
 716.2 645 746.5 649 795.5 650 c 1
 801.5 644 801.5 633 795.5 627 c 1
 725.5 624 711 619 708.5 536 c 0
 706 452 705.5 403 705.5 320 c 0
 705.5 237 706.5 191.5 708.5 109 c 0
594.5 123.1 m 0
 596.5 206 595.5 238.2 595.5 321 c 0
 595.5 376.4 595.9 410.7 595.6 452.2 c 1
 332.8 125 l 2
 332.3 124.4 331.8 123.8 331.3 123.2 c 2
 331.3 123.1 l 2
 333 51.4 338.5 51.9 402.3 49.2 c 1
 422.8 29 423.4 -12.7 400.6 -35.6 c 1
 359.1 -34.6 306 -30.7 257.5 -30.7 c 0
 212.3 -30.7 162.3 -34.5 117.2 -35.5 c 1
 97.5 -15.7 92 26.1 115.4 49.2 c 1
 176.4 51.8 185.7 48.6 187.5 123.1 c 0
 189.5 206 188.5 238.2 188.5 321 c 0
 188.5 403.8 189.5 439.4 187.5 522.3 c 0
 185.8 594 180.2 593.5 116.4 596.2 c 1
 95.9 616.4 95.4 658.2 118.2 681.1 c 1
 159.7 680.1 212.8 676 261.3 676 c 0
 306.5 676 356.5 680 401.6 681 c 1
 421.3 661.2 426.8 619.1 403.4 596 c 1
 342.4 593.4 334.1 596.9 332.3 522.3 c 0
 329.8 438.5 329.5 402.9 329.5 320 c 0
 329.5 264.2 329.3 231.8 329.9 191.5 c 1
 593.9 520 l 2
 594.1 520.3 594.3 520.5 594.5 520.8 c 0
 594.5 521.3 594.5 521.8 594.5 522.3 c 0
 592.8 594 587.2 593.5 523.4 596.2 c 1
 502.9 616.4 502.4 658.2 525.2 681.1 c 1
 566.7 680.1 619.8 676 668.3 676 c 0
 713.5 676 763.5 680 808.6 681 c 1
 828.3 661.2 833.8 619.1 810.4 596 c 1
 749.4 593.4 741.1 596.9 739.3 522.3 c 0
 736.8 438.5 736.5 402.9 736.5 320 c 0
 736.5 236.9 736.3 205.8 738.3 123.1 c 0
 740 51.4 745.5 51.9 809.3 49.2 c 1
 829.8 29 830.4 -12.7 807.6 -35.6 c 1
 766.1 -34.6 713 -30.7 664.5 -30.7 c 0
 619.3 -30.7 569.3 -34.5 524.2 -35.5 c 1
 504.5 -15.7 499 26.1 522.4 49.2 c 1
 583.4 51.8 592.7 48.6 594.5 123.1 c 0
EndSplineSet
LCarets2: 1 0 
Colour: ff00ff
EndChar

StartChar: afii10062
Encoding: 1038 1038 62
Width: 580
VWidth: 999
Flags: HW
HStem: -22 62<133 229.447> 614 33<1.46875 58.6416 176.509 232.375 383.625 442.046 535.176 587.375> 697 31<266.585 357.415>
VStem: 187 69<734.873 803.004> 368 69<736.589 803.004>
LayerCount: 2
Fore
SplineSet
312 728 m 0
 345 728 368 745 368 762 c 0
 368 767 367 773 367 775 c 0
 367 790 377 805 400 805 c 0
 427 805 437 791 437 772 c 0
 437 720 378 697 312 697 c 0
 246 697 187 720 187 772 c 0
 187 791 197 805 224 805 c 0
 247 805 257 790 257 775 c 0
 257 773 256 767 256 762 c 0
 256 745 279 728 312 728 c 0
104.5 523 m 2
 72 594 62 609 5 614 c 1
 -1 620 -2 641 4 647 c 1
 51 646 68 645 108 645 c 0
 147 645 182 646 229 647 c 1
 235 641 235 620 229 614 c 1
 161 607 162 591 188.4 534 c 2
 327 229 l 1
 329 229 l 1
 438 528 l 2
 458 584 461 609 387 614 c 1
 381 620 381 641 387 647 c 1
 434 646 473 645 496 645 c 0
 519 645 544 646 584 647 c 1
 590 641 590 620 584 614 c 1
 518 606 502 569 483.7 521 c 2
 342 161 l 2
 299 52 244 -22 154 -22 c 0
 112 -22 64 1 64 33 c 0
 64 61 83 81 113 81 c 0
 127 81 149 74 159 62 c 0
 166 53 181 40 195 40 c 0
 227 40 252 61 283 136 c 1
 104.5 523 l 2
EndSplineSet
LCarets2: 1 0 
Colour: ff00ff
EndChar

StartChar: afii10020
Encoding: 1043 1043 63
Width: 481
VWidth: 999
Flags: HW
HStem: -2 33<8.625 81.75 201.25 274.375> 605 40<185.978 404.91> 614 33<8.625 81.75>
VStem: 99 85<43.3808 601.619> 452 29<487.513 529.662>
LayerCount: 2
Fore
SplineSet
141 645 m 1
 346 645 l 1
 346 645 427 646 466 647 c 1
 471.5 613.2 476.9 574.3 481 490 c 1
 471.3 485.7 461.7 484.8 452 486 c 1
 431 555 418 605 343 605 c 2
 220 605 l 2
 196 605 184 595 184 571 c 2
 184 122 l 2
 184 39 201 34 271 31 c 1
 277 25 277 4 271 -2 c 1
 221 -1 192 0 142 0 c 0
 91 0 61 -1 12 -2 c 1
 6 4 6 25 12 31 c 1
 82 34 99 39 99 122 c 2
 99 523 l 2
 99 606 82 611 12 614 c 1
 6 620 6 641 12 647 c 1
 62 646 141 645 141 645 c 1
EndSplineSet
Colour: ff00ff
EndChar

StartChar: afii10021
Encoding: 1044 1044 64
Width: 659
VWidth: 999
Flags: HW
HStem: 0 39<182.009 462.022> 605 40<269.132 462.578> 618 29<151 187 586 621>
VStem: 34 27<-140 -94.0922> 464 85<40.4891 603.884> 599 27<-140 -98.3137>
LayerCount: 2
Fore
SplineSet
112 47 m 0
 138.1 73.1 156 145 188 301 c 1
 210 415 222 518 222 581 c 0
 222 602 213 612.4 187 615 c 2
 157 618 l 2
 152 618 149 620 149 624 c 2
 149 645 l 1
 151 647 l 1
 151 647 221 645 251 645 c 2
 512 645 l 2
 542 645 621 647 621 647 c 1
 623 645 l 1
 623 626 l 2
 623 620 619 618.3 615 618 c 2
 586 616 l 2
 553.8 613.8 549 601 549 565 c 2
 549 78 l 2
 549 41 571.5 30 589 27 c 0
 610.7 23.3 618.4 20 619 8 c 2
 626 -140 l 1
 599 -140 599 -141 599 -141 c 1
 587 -85 551 0 471 0 c 2
 181 0 l 2
 98 0 72 -89 61 -141 c 1
 34 -140 l 1
 41 8 l 2
 41.6 20 52.1 25.5 62 27 c 0
 81.5 30 97.5 32.5 112 47 c 0
427 605 m 2
 304 605 l 2
 277 605 267 591 265 566 c 0
 257 465 241 361 229 293 c 0
 207 176 182 77 182 56 c 0
 182 44 195 39 209 39 c 2
 428 39 l 2
 452 39 464 42 464 79 c 2
 464 566 l 2
 464 597 458 605 427 605 c 2
EndSplineSet
EndChar

StartChar: afii10024
Encoding: 1046 1046 65
Width: 863
Flags: HW
HStem: -2 29<6 28 303 335 529 561 835 856> 324 42<294.678 389 474 568.322> 590 61<79.7859 169.758 693.242 783.214> 618 29<303 335 529 561>
VStem: 389 85<35.2953 324 366 609.248>
LayerCount: 2
Fore
SplineSet
6 0 m 1
 6 19 l 2
 6 24 8 27 13 27 c 2
 28 28 l 2
 60 31 107 99 155 234 c 1
 181 304 218 347 284 347 c 1
 284 352 l 1
 212 380 191 466 181 528 c 0
 176 557 170 590 142 590 c 0
 130 590 122 585 112 574 c 0
 103 564 90 559 78 559 c 0
 58 559 37 570 37 599 c 0
 37 622 54 651 104 651 c 0
 179 651 205 595 214 533 c 0
 222 477 236 413 291 381 c 1
 313 367 355 366 389 366 c 1
 389 574 l 2
 389 604 374 613 335 616 c 2
 309 618 l 2
 305 618 301 621 301 626 c 2
 301 645 l 1
 303 647 l 1
 353 646 381 645 431 645 c 0
 481 645 512 646 561 647 c 1
 563 645 l 1
 563 626 l 2
 563 621 560 618 555 618 c 2
 529 616 l 2
 489 613 474 602 474 574 c 2
 474 366 l 1
 508 366 550 367 572 381 c 1
 627 413 641 477 649 533 c 0
 658 595 684 651 759 651 c 0
 809 651 826 622 826 599 c 0
 826 570 805 559 785 559 c 0
 773 559 760 564 751 574 c 0
 741 585 733 590 721 590 c 0
 693 590 687 557 682 528 c 0
 672 466 651 380 579 352 c 1
 579 347 l 1
 645 347 682 304 708 234 c 1
 756 99 803 31 835 28 c 2
 850 27 l 2
 855 27 857 24 857 19 c 2
 857 0 l 1
 856 -2 l 1
 782 -1 l 2
 708 0 674 81 633 191 c 1
 597 291 579 324 474 324 c 1
 474 71 l 2
 474 41 489 32 529 29 c 2
 555 27 l 2
 559 27 563 24 563 19 c 2
 563 0 l 1
 561 -2 l 1
 513 0 482 0 432 0 c 0
 382 0 352 0 303 -2 c 1
 301 0 l 1
 301 19 l 2
 301 24 304 27 308 27 c 2
 335 29 l 2
 377 32 389 43 389 71 c 2
 389 324 l 1
 284 324 266 291 230 191 c 1
 189 81 155 0 81 -1 c 2
 6 -2 l 1
 6 0 l 1
EndSplineSet
Colour: ff9ccc
EndChar

StartChar: afii10025
Encoding: 1047 1047 66
Width: 578
Flags: HW
HStem: -12 36<200.078 368.458> 317 49<169.194 379.155> 624 34<212.7 364.797>
VStem: 68 30<465.533 503.865> 421 88<427.266 574.759> 445 92<91.578 257.488>
LayerCount: 2
Fore
SplineSet
44 115 m 0
 44 139 57 155 77 155 c 0
 105 155 120 129 133 103 c 0
 158 56 209 24 287 24 c 0
 386 24 445 85 445 176 c 0
 445 249 408 323 287 323 c 0
 254 323 225 317 198 317 c 0
 186 317 169 322 169 342 c 0
 169 362 186 366 198 366 c 0
 225 366 261 360 288 360 c 0
 394 360 421 429 421 498 c 0
 421 568 382 624 296 624 c 0
 182 624 124 552 98 464 c 1
 68 466 l 1
 92 626 l 1
 163 633 229 658 304 658 c 0
 443 658 509 587 509 505 c 0
 509 421 448 372 378 352 c 1
 378 346 l 1
 472 331 537 262 537 177 c 0
 537 46 415 -12 288 -12 c 0
 188 -12 120 12 90 39 c 0
 63 63 44 82 44 115 c 0
EndSplineSet
EndChar

StartChar: afii10026
Encoding: 1048 1048 67
Width: 925
VWidth: 999
Flags: HW
HStem: -35.5 7.9<117.925 255.342 259.743 399.635 524.925 662.342 666.743 806.635> -30.7 8<121.013 396.948 528.013 803.948> -5 23<125.598 193.276 324.659 392.332 532.598 600.276 731.659 799.332> 41.4 7.8<115.907 159.631 359.466 401.33 522.907 566.631 766.466 808.33> 596.2 7.8<117.446 159.213 359.316 402.868 524.446 566.213 766.316 809.868> 627 23<125.598 193.276 324.807 392.332 532.598 600.276 731.807 799.332> 668 8<121.811 397.774 528.811 804.774> 673 8.1<119.14 259.031 263.432 400.851 526.14 666.031 670.432 807.851>
VStem: 188.5 8<84.4885 563.687> 219.5 79<33.5092 611.486> 321.5 8<88.0471 545.098> 594.5 28.9<468.472 478 520 540.587> 595.5 8<84.4885 520 522.253 563.687> 626.5 79<33.5092 611.486> 728.5 8<88.0471 545.098>
LayerCount: 2
Fore
SplineSet
301.4 167 m 1
 306 167.3 311.8 170.7 319.1 178 c 1
 322.1 181.7 l 1
 321.4 226.5 321.5 260.9 321.5 320 c 0
 321.5 402.9 321.8 441.7 324.3 525.4 c 0
 326.2 602.3 339.7 601.5 399.7 604 c 1
 418 623.6 413.4 655.9 398.1 673 c 1
 353.5 671.9 306.3 668 261.3 668 c 0
 213.1 668 161 672 121.7 673 c 1
 102.7 651.8 105.4 619.8 120.1 604 c 1
 184.4 601.3 193.7 598.6 195.5 525.4 c 0
 197.5 442.4 196.5 403.7 196.5 321 c 0
 196.5 238.3 197.5 202.9 195.5 119.9 c 0
 193.6 42.9 179.1 43.9 119.1 41.4 c 1
 100.8 21.8 105.4 -10.5 120.7 -27.6 c 1
 165.3 -26.5 212.5 -22.7 257.5 -22.7 c 0
 305.7 -22.7 357.8 -26.6 397.1 -27.6 c 1
 416.1 -6.4 413.4 25.6 398.7 41.4 c 1
 336.3 44 325.7 46.5 323.5 113.7 c 1
 315.4 104 308.5 94.5 303.5 75.8 c 1
 309.4 24.5 329.3 20.5 388.5 18 c 1
 394.5 12 394.5 1 388.5 -5 c 1
 338.5 -4 309.8 0 259.5 0 c 0
 208.8 0 178.5 -4 129.5 -5 c 1
 123.5 1 123.5 12 129.5 18 c 1
 199.5 21 214.5 26 216.5 109 c 0
 218.5 192 219.5 238 219.5 321 c 0
 219.5 404 218.5 453 216.5 536 c 0
 214.5 619 199.5 624 129.5 627 c 1
 123.5 633 123.5 644 129.5 650 c 1
 179.5 649 208.2 645 258.5 645 c 0
 309.2 645 339.5 649 388.5 650 c 1
 394.5 644 394.5 633 388.5 627 c 1
 318.5 624 304 619 301.5 536 c 0
 299 452 298.5 403 298.5 320 c 0
 298.5 237.9 299.4 192.5 301.4 111.6 c 1
 301.4 167 l 1
708.5 109 m 0
 710.5 26 725.5 21 795.5 18 c 1
 801.5 12 801.5 1 795.5 -5 c 1
 745.5 -4 716.8 0 666.5 0 c 0
 615.8 0 585.5 -4 536.5 -5 c 1
 530.5 1 530.5 12 536.5 18 c 1
 606.5 21 621.5 26 623.5 109 c 0
 625.5 192 626.5 238 626.5 321 c 0
 626.5 404 625.5 453 623.5 536 c 0
 623.5 536.8 623.4 537.6 623.4 538.4 c 2
 623.4 478 l 1
 615.9 475.5 610.8 471 605.9 465 c 2
 603.6 462 l 1
 604 416.1 603.5 379.6 603.5 321 c 0
 603.5 238.3 604.5 202.9 602.5 119.9 c 0
 600.6 42.9 586.1 43.9 526.1 41.4 c 1
 507.8 21.8 512.4 -10.5 527.7 -27.6 c 1
 572.3 -26.5 619.5 -22.7 664.5 -22.7 c 0
 712.7 -22.7 764.8 -26.6 804.1 -27.6 c 1
 823.1 -6.4 820.4 25.6 805.7 41.4 c 1
 741.4 44.1 732.1 46.7 730.3 119.9 c 0
 728.3 202.6 728.5 236.9 728.5 320 c 0
 728.5 402.9 728.8 441.7 731.3 525.4 c 0
 733.2 602.3 746.7 601.5 806.7 604 c 1
 825 623.6 820.4 655.9 805.1 673 c 1
 760.5 671.9 713.3 668 668.3 668 c 0
 620.1 668 568 672 528.7 673 c 1
 509.7 651.8 512.4 619.8 527.1 604 c 1
 589.5 601.4 600.1 598.8 602.3 531.8 c 1
 610.3 544.4 616.9 558.5 621.2 571.1 c 1
 615 620.6 594.9 624.5 536.5 627 c 1
 530.5 633 530.5 644 536.5 650 c 1
 586.5 649 615.2 645 665.5 645 c 0
 716.2 645 746.5 649 795.5 650 c 1
 801.5 644 801.5 633 795.5 627 c 1
 725.5 624 711 619 708.5 536 c 0
 706 452 705.5 403 705.5 320 c 0
 705.5 237 706.5 191.5 708.5 109 c 0
594.5 123.1 m 0
 596.5 206 595.5 238.2 595.5 321 c 0
 595.5 376.4 595.9 410.7 595.6 452.2 c 1
 332.8 125 l 2
 332.3 124.4 331.8 123.8 331.3 123.2 c 2
 331.3 123.1 l 2
 333 51.4 338.5 51.9 402.3 49.2 c 1
 422.8 29 423.4 -12.7 400.6 -35.6 c 1
 359.1 -34.6 306 -30.7 257.5 -30.7 c 0
 212.3 -30.7 162.3 -34.5 117.2 -35.5 c 1
 97.5 -15.7 92 26.1 115.4 49.2 c 1
 176.4 51.8 185.7 48.6 187.5 123.1 c 0
 189.5 206 188.5 238.2 188.5 321 c 0
 188.5 403.8 189.5 439.4 187.5 522.3 c 0
 185.8 594 180.2 593.5 116.4 596.2 c 1
 95.9 616.4 95.4 658.2 118.2 681.1 c 1
 159.7 680.1 212.8 676 261.3 676 c 0
 306.5 676 356.5 680 401.6 681 c 1
 421.3 661.2 426.8 619.1 403.4 596 c 1
 342.4 593.4 334.1 596.9 332.3 522.3 c 0
 329.8 438.5 329.5 402.9 329.5 320 c 0
 329.5 264.2 329.3 231.8 329.9 191.5 c 1
 593.9 520 l 2
 594.1 520.3 594.3 520.5 594.5 520.8 c 0
 594.5 521.3 594.5 521.8 594.5 522.3 c 0
 592.8 594 587.2 593.5 523.4 596.2 c 1
 502.9 616.4 502.4 658.2 525.2 681.1 c 1
 566.7 680.1 619.8 676 668.3 676 c 0
 713.5 676 763.5 680 808.6 681 c 1
 828.3 661.2 833.8 619.1 810.4 596 c 1
 749.4 593.4 741.1 596.9 739.3 522.3 c 0
 736.8 438.5 736.5 402.9 736.5 320 c 0
 736.5 236.9 736.3 205.8 738.3 123.1 c 0
 740 51.4 745.5 51.9 809.3 49.2 c 1
 829.8 29 830.4 -12.7 807.6 -35.6 c 1
 766.1 -34.6 713 -30.7 664.5 -30.7 c 0
 619.3 -30.7 569.3 -34.5 524.2 -35.5 c 1
 504.5 -15.7 499 26.1 522.4 49.2 c 1
 583.4 51.8 592.7 48.6 594.5 123.1 c 0
EndSplineSet
EndChar

StartChar: afii10027
Encoding: 1049 1049 68
Width: 925
VWidth: 999
Flags: HW
HStem: -35.5 7.9<167.522 304.939 309.34 449.233 574.522 711.939 716.34 856.233> -5 23<175.195 242.873 374.256 441.929 582.195 649.873 781.256 848.929> 41.4 7.8<165.505 209.229 409.064 450.927 572.505 616.229 816.064 857.927> 596.2 7.8<167.043 208.81 408.913 452.466 574.043 615.81 815.913 859.466> 627 23<175.195 242.873 374.404 441.929 582.195 649.873 781.404 848.929> 668 8<171.409 447.372 578.409 854.372> 673 8.1<168.737 308.629 313.03 450.449 575.737 715.629 720.03 857.449> 697 31<305.585 396.415>
VStem: 226 69<734.873 803.004> 238.1 8<84.4886 563.687> 269.1 79<33.5092 611.486> 371.1 8<88.0469 545.098> 407 69<736.589 803.004> 645.1 8<84.4886 563.687> 676.1 79<33.5092 611.486> 778.1 8<88.0469 545.098>
LayerCount: 2
Fore
SplineSet
461 728 m 0
 494 728 517 745 517 762 c 0
 517 767 516 773 516 775 c 0
 516 790 526 805 549 805 c 0
 576 805 586 791 586 772 c 0
 586 720 527 697 461 697 c 0
 395 697 336 720 336 772 c 0
 336 791 346 805 373 805 c 0
 396 805 406 790 406 775 c 0
 406 773 405 767 405 762 c 0
 405 745 428 728 461 728 c 0
301.4 167 m 1
 306 167.3 311.8 170.7 319.1 178 c 1
 322.1 181.7 l 1
 321.4 226.5 321.5 260.9 321.5 320 c 0
 321.5 402.9 321.8 441.7 324.3 525.4 c 0
 326.2 602.3 339.7 601.5 399.7 604 c 1
 418 623.6 413.4 655.9 398.1 673 c 1
 353.5 671.9 306.3 668 261.3 668 c 0
 213.1 668 161 672 121.7 673 c 1
 102.7 651.8 105.4 619.8 120.1 604 c 1
 184.4 601.3 193.7 598.6 195.5 525.4 c 0
 197.5 442.4 196.5 403.7 196.5 321 c 0
 196.5 238.3 197.5 202.9 195.5 119.9 c 0
 193.6 42.9 179.1 43.9 119.1 41.4 c 1
 100.8 21.8 105.4 -10.5 120.7 -27.6 c 1
 165.3 -26.5 212.5 -22.7 257.5 -22.7 c 0
 305.7 -22.7 357.8 -26.6 397.1 -27.6 c 1
 416.1 -6.4 413.4 25.6 398.7 41.4 c 1
 336.3 44 325.7 46.5 323.5 113.7 c 1
 315.4 104 308.5 94.5 303.5 75.8 c 1
 309.4 24.5 329.3 20.5 388.5 18 c 1
 394.5 12 394.5 1 388.5 -5 c 1
 338.5 -4 309.8 0 259.5 0 c 0
 208.8 0 178.5 -4 129.5 -5 c 1
 123.5 1 123.5 12 129.5 18 c 1
 199.5 21 214.5 26 216.5 109 c 0
 218.5 192 219.5 238 219.5 321 c 0
 219.5 404 218.5 453 216.5 536 c 0
 214.5 619 199.5 624 129.5 627 c 1
 123.5 633 123.5 644 129.5 650 c 1
 179.5 649 208.2 645 258.5 645 c 0
 309.2 645 339.5 649 388.5 650 c 1
 394.5 644 394.5 633 388.5 627 c 1
 318.5 624 304 619 301.5 536 c 0
 299 452 298.5 403 298.5 320 c 0
 298.5 237.9 299.4 192.5 301.4 111.6 c 1
 301.4 167 l 1
708.5 109 m 0
 710.5 26 725.5 21 795.5 18 c 1
 801.5 12 801.5 1 795.5 -5 c 1
 745.5 -4 716.8 0 666.5 0 c 0
 615.8 0 585.5 -4 536.5 -5 c 1
 530.5 1 530.5 12 536.5 18 c 1
 606.5 21 621.5 26 623.5 109 c 0
 625.5 192 626.5 238 626.5 321 c 0
 626.5 404 625.5 453 623.5 536 c 0
 623.5 536.8 623.4 537.6 623.4 538.4 c 2
 623.4 478 l 1
 615.9 475.5 610.8 471 605.9 465 c 2
 603.6 462 l 1
 604 416.1 603.5 379.6 603.5 321 c 0
 603.5 238.3 604.5 202.9 602.5 119.9 c 0
 600.6 42.9 586.1 43.9 526.1 41.4 c 1
 507.8 21.8 512.4 -10.5 527.7 -27.6 c 1
 572.3 -26.5 619.5 -22.7 664.5 -22.7 c 0
 712.7 -22.7 764.8 -26.6 804.1 -27.6 c 1
 823.1 -6.4 820.4 25.6 805.7 41.4 c 1
 741.4 44.1 732.1 46.7 730.3 119.9 c 0
 728.3 202.6 728.5 236.9 728.5 320 c 0
 728.5 402.9 728.8 441.7 731.3 525.4 c 0
 733.2 602.3 746.7 601.5 806.7 604 c 1
 825 623.6 820.4 655.9 805.1 673 c 1
 760.5 671.9 713.3 668 668.3 668 c 0
 620.1 668 568 672 528.7 673 c 1
 509.7 651.8 512.4 619.8 527.1 604 c 1
 589.5 601.4 600.1 598.8 602.3 531.8 c 1
 610.3 544.4 616.9 558.5 621.2 571.1 c 1
 615 620.6 594.9 624.5 536.5 627 c 1
 530.5 633 530.5 644 536.5 650 c 1
 586.5 649 615.2 645 665.5 645 c 0
 716.2 645 746.5 649 795.5 650 c 1
 801.5 644 801.5 633 795.5 627 c 1
 725.5 624 711 619 708.5 536 c 0
 706 452 705.5 403 705.5 320 c 0
 705.5 237 706.5 191.5 708.5 109 c 0
594.5 123.1 m 0
 596.5 206 595.5 238.2 595.5 321 c 0
 595.5 376.4 595.9 410.7 595.6 452.2 c 1
 332.8 125 l 2
 332.3 124.4 331.8 123.8 331.3 123.2 c 2
 331.3 123.1 l 2
 333 51.4 338.5 51.9 402.3 49.2 c 1
 422.8 29 423.4 -12.7 400.6 -35.6 c 1
 359.1 -34.6 306 -30.7 257.5 -30.7 c 0
 212.3 -30.7 162.3 -34.5 117.2 -35.5 c 1
 97.5 -15.7 92 26.1 115.4 49.2 c 1
 176.4 51.8 185.7 48.6 187.5 123.1 c 0
 189.5 206 188.5 238.2 188.5 321 c 0
 188.5 403.8 189.5 439.4 187.5 522.3 c 0
 185.8 594 180.2 593.5 116.4 596.2 c 1
 95.9 616.4 95.4 658.2 118.2 681.1 c 1
 159.7 680.1 212.8 676 261.3 676 c 0
 306.5 676 356.5 680 401.6 681 c 1
 421.3 661.2 426.8 619.1 403.4 596 c 1
 342.4 593.4 334.1 596.9 332.3 522.3 c 0
 329.8 438.5 329.5 402.9 329.5 320 c 0
 329.5 264.2 329.3 231.8 329.9 191.5 c 1
 593.9 520 l 2
 594.1 520.3 594.3 520.5 594.5 520.8 c 0
 594.5 521.3 594.5 521.8 594.5 522.3 c 0
 592.8 594 587.2 593.5 523.4 596.2 c 1
 502.9 616.4 502.4 658.2 525.2 681.1 c 1
 566.7 680.1 619.8 676 668.3 676 c 0
 713.5 676 763.5 680 808.6 681 c 1
 828.3 661.2 833.8 619.1 810.4 596 c 1
 749.4 593.4 741.1 596.9 739.3 522.3 c 0
 736.8 438.5 736.5 402.9 736.5 320 c 0
 736.5 236.9 736.3 205.8 738.3 123.1 c 0
 740 51.4 745.5 51.9 809.3 49.2 c 1
 829.8 29 830.4 -12.7 807.6 -35.6 c 1
 766.1 -34.6 713 -30.7 664.5 -30.7 c 0
 619.3 -30.7 569.3 -34.5 524.2 -35.5 c 1
 504.5 -15.7 499 26.1 522.4 49.2 c 1
 583.4 51.8 592.7 48.6 594.5 123.1 c 0
EndSplineSet
LCarets2: 1 0 
Colour: ff00ff
EndChar

StartChar: afii10033
Encoding: 1055 1055 69
Width: 667
VWidth: 999
Flags: HW
HStem: -2 33<13.625 86.75 206.25 279.375 387.625 460.75 580.25 653.375> 605 40<199.245 467.755> 614 33<13.625 86.75 580.25 653.375>
VStem: 104 85<43.3808 598.5> 478 85<43.3808 598.5>
LayerCount: 2
Fore
SplineSet
521 645 m 2
 548 645 600 646 650 647 c 1
 656 641 656 620 650 614 c 1
 580 611 563 606 563 523 c 2
 563 122 l 2
 563 39 580 34 650 31 c 1
 656 25 656 4 650 -2 c 1
 601 -1 571 0 520 0 c 0
 470 0 441 -1 391 -2 c 1
 385 4 385 25 391 31 c 1
 461 34 478 39 478 122 c 2
 478 531 l 2
 478 593 456 605 432 605 c 2
 235 605 l 2
 211 605 189 593 189 531 c 2
 189 122 l 2
 189 39 206 34 276 31 c 1
 282 25 282 4 276 -2 c 1
 226 -1 197 0 147 0 c 0
 96 0 66 -1 17 -2 c 1
 11 4 11 25 17 31 c 1
 87 34 104 39 104 122 c 2
 104 523 l 2
 104 606 87 611 17 614 c 1
 11 620 11 641 17 647 c 1
 67 646 123 645 146 645 c 2
 521 645 l 2
EndSplineSet
Colour: ff00ff
EndChar

StartChar: afii10034
Encoding: 1056 1056 70
Width: 1000
VWidth: 999
Flags: HW
HStem: -2 33<254.159 327.284 451.284 534.909> 282 34<430.319 588.074> 618 34<256.237 323.393 419.839 594.609>
VStem: 344.5 85<47.6546 292 318.199 600.635> 654.5 93<395.93 561.649>
LayerCount: 2
Fore
SplineSet
428.5 296.4 m 1
 428.6 223.9 429.2 159.6 430.5 85 c 0
 431.5 27.3 462.5 21.5 531.5 18 c 1
 537.5 12 537.5 1 531.5 -5 c 1
 481.5 -4 444.3 0 388.5 0 c 0
 337.8 0 307.5 -4 258.5 -5 c 1
 252.5 1 252.5 12 258.5 18 c 1
 328.5 21 343.8 25.3 345.5 109 c 0
 347.2 192 347.5 238 347.5 321 c 0
 347.5 404 346.8 453 345.5 536 c 0
 344.2 618.7 328.5 624 258.5 627 c 1
 252.5 633 252.5 644 258.5 650 c 1
 308.5 649 337.2 645 387.5 645 c 0
 427.5 645 497.5 655 523.5 655 c 0
 708.5 655 744.5 545 744.5 486 c 0
 744.5 401 692.5 287 510.5 287 c 0
 476.6 287 450.1 289.8 428.5 296.4 c 1
430.5 583 m 0
 429.2 500 428.5 404.3 428.5 321.3 c 2
 428.5 315.5 l 1
 442 312.8 481.8 311 505.5 311 c 0
 602.5 311 657.5 360 657.5 468 c 0
 657.5 595 585.5 631 516.5 631 c 0
 444.5 631 431.7 611.8 430.5 583 c 0
459.7 258.6 m 1
 460 196.3 460.5 153.8 461.5 95.5 c 0
 462.2 57 475.1 51.9 543.5 48.4 c 2
 545 48.3 l 1
 546.1 47.3 l 2
 577 16.4 566.9 -13.5 545.3 -35.1 c 2
 544.1 -36.3 l 1
 541.8 -36.3 l 1
 482.3 -35.1 442.9 -31 388.5 -31 c 0
 333.1 -31 299.4 -35.2 247.7 -36.3 c 1
 246 -36.3 l 1
 244.8 -35.1 l 2
 214.4 -4.7 222.1 25 243.7 47 c 2
 245.1 48.4 l 1
 246.5 48.5 l 2
 309 54.1 313.4 54.5 314.5 118.9 c 0
 315.9 208.9 316.5 239.9 316.5 321 c 0
 316.5 407.1 315.8 445.7 314.5 525.5 c 0
 313.5 584.9 295.2 593 247.2 596.4 c 2
 245.1 596.6 l 1
 243.6 598.1 l 2
 212.7 629.7 223.8 658.7 244.4 679.7 c 2
 246 681.3 l 1
 247.7 681.2 l 2
 305.6 680 339.9 676 387.5 676 c 0
 427.9 676 495.6 686 523.5 686 c 0
 730.2 686 775.5 555 775.5 486 c 0
 775.5 383.6 705.7 256 510.5 256 c 0
 488.1 256 470.8 257.3 459.7 258.6 c 1
451.6 263.2 m 2
 451.6 267.7 l 1
 456.2 267.1 l 2
 468.7 265.4 486.1 264 510.5 264 c 0
 701.3 264 767.5 387.4 767.5 486 c 0
 767.5 551.5 725.6 678 523.5 678 c 0
 496.7 678 428.9 668 387.5 668 c 0
 339.7 668 306.8 671.9 249.2 673.2 c 1
 231.5 654.9 222.4 631.9 248.7 604.4 c 1
 298.2 600.8 321.4 588.2 322.5 525.6 c 0
 323.8 445.8 324.5 407.1 324.5 321 c 0
 324.5 239.9 323.9 208.8 322.5 118.8 c 0
 321.3 52.9 312.3 46.4 248.7 40.7 c 1
 230.3 21.6 223.5 -1.3 249.2 -28.2 c 1
 298.6 -27.1 333.3 -23 388.5 -23 c 0
 442.8 -23 482.4 -26.9 540.8 -28.2 c 1
 558.4 -10 567.7 13 541.5 40.5 c 1
 476.4 43.9 454.3 51 453.5 95.4 c 0
 452.5 155 451.8 200.2 451.6 263.2 c 2
461.5 582.1 m 0
 460.2 502.3 459.7 415.8 459.6 343.5 c 1
 480.1 342.2 495.2 342 505.5 342 c 0
 591.1 342 626.5 377.8 626.5 468 c 0
 626.5 582 569.4 600 516.5 600 c 0
 460.1 600 461.8 588.5 461.5 582.1 c 0
453.5 582.3 m 0
 454.1 595.4 459.8 608 516.5 608 c 0
 572.3 608 634.5 586.3 634.5 468 c 0
 634.5 374.5 594.9 334 505.5 334 c 0
 494.5 334 475.9 334.4 455.3 335.8 c 2
 451.5 336 l 1
 451.5 339.8 l 2
 451.6 414.7 452.2 500.9 453.5 582.3 c 0
EndSplineSet
Colour: ff00ff
EndChar

StartChar: afii10035
Encoding: 1057 1057 71
Width: 646
VWidth: 999
Flags: HW
HStem: -41 8<303.967 403.143> -10 31<282.379 444.689> 44 8<321.394 398.576> 163 8<574.716 602.608> 600 8<319.189 394.657> 631 27<289.33 432.708> 681 8<304.884 425.042>
VStem: 10 8<259.625 372.437> 41 84<203.394 448.538> 148 8<279.903 392.666> 576 23<454.584 484.514>
LayerCount: 2
Fore
SplineSet
357 -10 m 0
 142 -10 41 154 41 315 c 0
 41 419.3 76.6 512.2 143 573 c 0
 202 627 273 658 358 658 c 0
 481 658 526 618 577 613 c 1
 586 558 594 510 599 458 c 1
 591.8 453.2 585.2 452.2 576 453 c 1
 550 539 491 631 353 631 c 0
 301 631 231.6 601 182 540 c 0
 145.5 495.1 125 420.3 125 334 c 0
 125 188 201 21 356 21 c 0
 449 21 517 62 588 140 c 1
 599 140 606 134 611 125 c 1
 543 36 454 -10 357 -10 c 0
357 -41 m 0
 118 -41 10 145.7 10 315 c 0
 10 430.1 50.5 530.3 122.1 595.9 c 0
 186.6 654.9 257.2 689 358 689 c 0
 492.6 689 545.3 647.3 580 643.9 c 2
 603.7 641.5 l 1
 604.2 638.5 l 2
 615.7 568.3 625.4 507.5 631.6 443 c 2
 631.8 440.3 l 1
 629.5 439 l 2
 608.8 428.1 584.7 417.4 552.9 428 c 2
 551 428.7 l 1
 546.3 444 l 2
 521.1 527.2 470 600 353 600 c 0
 295.3 600 244.4 567.5 206.1 520.4 c 0
 174.9 482 156 411.7 156 334 c 0
 156 189.1 231.5 52 356 52 c 0
 445.7 52 506.2 96.2 573.1 169.7 c 2
 574.3 171 l 1
 576.1 171 l 2
 624.5 171 633.3 146 645.7 123.6 c 2
 647 121.3 l 1
 645.4 119.2 l 2
 567.8 17.6 470.6 -41 357 -41 c 0
357 -33 m 0
 466.8 -33 560.5 22.5 637.4 122 c 1
 626.1 142.6 620.4 162.1 577.8 163 c 1
 511.4 90.4 448.4 44 356 44 c 0
 224.5 44 148 187.6 148 334 c 0
 148 412.8 166.8 484.8 199.8 525.5 c 0
 239.1 573.8 292.2 608 353 608 c 0
 474.4 608 528.4 531.1 554 446.3 c 2
 557.4 435 l 1
 583 427.2 602.8 434.2 623.4 444.9 c 1
 617.4 505.8 607.9 566.2 596.8 634.2 c 1
 579.2 635.9 l 2
 540.1 639.7 491.4 681 358 681 c 0
 259.1 681 190.9 648 127.5 590 c 0
 57.8 526.2 18 428.3 18 315 c 0
 18 148.8 123.3 -33 357 -33 c 0
EndSplineSet
Colour: ff00ff
EndChar

StartChar: afii10036
Encoding: 1058 1058 72
Width: 597
VWidth: 999
Flags: HW
HStem: -36.2 8<155.423 305.176 310.328 459.524> -5 23<164.133 235.878 379.126 450.867> 40.6 7.9<154.805 197.398 416.026 460.37> 472 8<-4.99738 44.9617 548.52 586.229> 585 8<126.653 216.359 394.201 465.624> 616 29<98.3488 252.665 361.572 495.288> 636 20<558 575.5> 668 8<151.147 463.64> 679 8<18.4181 33.3791>
VStem: 3 24<502.292 534.308> 237 8<96.7115 546.974> 268 79<37.1564 608.315> 370 8<95.5955 554.056> 567 24<505.292 539.095> 601 8<589.056 666.158>
LayerCount: 2
Fore
SplineSet
265 536 m 0
 263.3 597 255 616 218 616 c 2
 159 616 l 2
 93 616 47 580 27 500 c 1
 15 500 13 501 3 505 c 1
 14 553 24 608 28 653 c 0
 28 654 30 656 32 656 c 0
 70 653 188 645 265 645 c 2
 351 645 l 2
 430 645 541 653 575 656 c 0
 576 656 578 654 578 653 c 0
 579 608 584 554 591 508 c 1
 582 504 578 503 567 503 c 1
 550 580 503 616 428 616 c 2
 396 616 l 2
 360 616 352 600 350 536 c 0
 347.3 451.3 347 403 347 320 c 0
 347 237 348 191.5 350 109 c 0
 352 26 377 21 447 18 c 1
 453 12 453 1 447 -5 c 1
 397 -4 362.2 0 308 0 c 0
 253.4 0 217 -4 168 -5 c 1
 162 1 162 12 168 18 c 1
 238 21 263 26 265 109 c 0
 267 192 268 238 268 321 c 0
 268 404 267.3 453.7 265 536 c 0
234 535.1 m 0
 232.3 584.2 210.4 585 198 585 c 2
 159 585 l 2
 104.8 585 73.8 559.1 57.1 492.5 c 2
 51.2 469 l 1
 48.1 469 l 2
 8.7 469 -8.4 476.2 -29.5 484.6 c 2
 -33.1 486.1 l 1
 -27.2 511.9 l 2
 -15.6 562.3 -6.4 616.3 -2.9 655.3 c 2
 -2.5 659.7 l 1
 -0.4 659.5 1.3 687 33.1 687 c 2
 33.2 687 l 1
 33.4 687 l 1
 76.2 683.6 204.8 676 265 676 c 2
 351 676 l 2
 418.2 676 541.6 684.2 573.5 687 c 1
 573.6 687 l 1
 573.8 687 l 2
 595.9 687 609 669.5 609 653.3 c 0
 610.2 599.7 617.5 539.3 624.7 492.3 c 2
 625.2 489.3 l 1
 622.4 488 l 2
 597 476.7 577 472 545.3 472 c 2
 542.1 472 l 1
 536.7 496.3 l 2
 521.8 563.9 487.5 585 428 585 c 0
 380.4 585 382.3 578.9 381 535 c 0
 378.4 447.3 378 399.9 378 320 c 0
 378 233.9 378.1 189.1 381 109.8 c 0
 383 54.6 390.7 51.5 458.1 48.5 c 2
 460.4 48.5 l 1
 461.5 47.4 l 2
 492.4 16.5 482.5 -13.4 460.8 -35.1 c 2
 459.6 -36.3 l 1
 446.4 -36 l 2
 391.4 -34.9 357.5 -31 308 -31 c 0
 247.4 -31 209.9 -35.2 157.1 -36.3 c 1
 155.4 -36.3 l 1
 154.2 -35.1 l 2
 124 -4.9 131.1 25 153.5 47.4 c 2
 154.6 48.5 l 1
 156.2 48.5 l 2
 221.3 51 231.9 56.5 234 109.3 c 0
 237.1 198.7 237 240.6 237 321 c 0
 237 407.2 236.7 456.1 234 535.1 c 0
242 535.4 m 0
 244.7 456.3 245 407.2 245 321 c 0
 245 240.6 245.1 198.5 242 109 c 0
 239.8 53.1 223.9 43.3 158.1 40.6 c 1
 139.9 21.7 133 -1.3 158.7 -28.2 c 1
 209.1 -27.1 247.7 -23 308 -23 c 0
 357.9 -23 391.9 -26.9 446.5 -28 c 2
 456.3 -28.2 l 1
 474 -9.9 483.1 13.1 456.9 40.6 c 1
 388.9 43.7 375.1 51 373 109.5 c 0
 370.1 188.9 370 234 370 320 c 0
 370 399.9 370.4 447.5 373 535.3 c 0
 374.3 580.3 376.9 593 428 593 c 0
 490.3 593 528.9 568.9 544.5 498 c 2
 548.5 480 l 1
 575.2 480.3 592.5 483.9 616.4 494.1 c 1
 609.4 540.6 602.2 599.8 601 653.3 c 0
 601 664.5 590.9 680.5 574.2 679 c 0
 542 676.2 418.8 668 351 668 c 2
 265 668 l 2
 204.3 668 75.9 675.6 32.7 679 c 1
 10 678.2 6.8 660.6 5 654.4 c 1
 1.5 615.3 -7.8 560.7 -19.4 510.1 c 2
 -23.8 491 l 1
 -4.9 483.5 8.9 477.5 45 477 c 1
 49.3 494.4 l 2
 66.5 563.3 101 593 159 593 c 2
 198 593 l 2
 213.2 593 240.2 588.6 242 535.4 c 0
EndSplineSet
Colour: ff00ff
EndChar

StartChar: afii10037
Encoding: 1059 1059 73
Width: 580
VWidth: 999
Flags: HW
HStem: -22 62<133 229.447> 614 33<1.46875 58.6416 176.509 232.375 383.625 442.046 535.176 587.375>
LayerCount: 2
Fore
SplineSet
104.5 523 m 2
 72 594 62 609 5 614 c 1
 -1 620 -2 641 4 647 c 1
 51 646 68 645 108 645 c 0
 147 645 182 646 229 647 c 1
 235 641 235 620 229 614 c 1
 161 607 162 591 188.4 534 c 2
 327 229 l 1
 329 229 l 1
 438 528 l 2
 458 584 461 609 387 614 c 1
 381 620 381 641 387 647 c 1
 434 646 473 645 496 645 c 0
 519 645 544 646 584 647 c 1
 590 641 590 620 584 614 c 1
 518 606 502 569 483.7 521 c 2
 342 161 l 2
 299 52 244 -22 154 -22 c 0
 112 -22 64 1 64 33 c 0
 64 61 83 81 113 81 c 0
 127 81 149 74 159 62 c 0
 166 53 181 40 195 40 c 0
 227 40 252 61 283 136 c 1
 104.5 523 l 2
EndSplineSet
EndChar

StartChar: afii10039
Encoding: 1061 1061 74
Width: 1000
VWidth: 999
Flags: HW
HStem: -2 29<160.742 220.76 334.742 356.742 576.742 599.742 757.524 806.742> 618 29<173.742 221.43 589.742 624.742 721.973 785.742>
DStem2: 285.742 104 319.742 77 0.593199 0.805056<-37.1488 242.53 346.726 618.122> 357.742 572 418.742 344 0.578967 -0.815351<-37.4198 228.231 307.823 589.683>
LayerCount: 2
Fore
SplineSet
712.7 102 m 2
 755.1 43.7 783.7 21 825.7 18 c 1
 831.7 12 832.7 1 826.7 -5 c 1
 796.7 -4 763.7 0 724.7 0 c 0
 684.7 0 650.7 -4 610.7 -5 c 1
 604.7 1 604.7 12 610.7 18 c 1
 666.7 21 655.5 44.9 627.2 85.2 c 2
 503.7 261 l 2
 496.4 271.4 490.7 277 486.7 277 c 0
 483.7 277 474.1 268.4 466.7 258 c 2
 334.7 73 l 2
 310.5 39 324.4 21 368.7 18 c 1
 374.7 12 374.7 1 368.7 -5 c 1
 328.7 -4 286.7 0 263.7 0 c 0
 240.7 0 203.7 -4 173.7 -5 c 1
 167.7 1 167.7 12 173.7 18 c 1
 218.4 22.3 265.4 47.1 299.7 93 c 2
 447.7 291 l 2
 454.5 300.1 455.7 308 455.7 314 c 0
 455.7 324 454 326.5 441.7 344 c 2
 299.4 547 l 2
 258.2 605.7 226.7 624 184.7 627 c 1
 178.7 633 177.7 644 183.7 650 c 1
 213.7 649 246.7 645 285.7 645 c 0
 325.7 645 359.7 649 399.7 650 c 1
 405.7 644 405.7 633 399.7 627 c 1
 343.7 624 355 599.8 383.2 559.8 c 1
 493.7 396 l 2
 501.4 384.5 506.7 379 509.7 379 c 0
 513.7 379 520.2 383.4 529.7 397 c 2
 652.7 572 l 2
 676.2 605.4 663 624 618.7 627 c 1
 612.7 633 612.7 644 618.7 650 c 1
 658.7 649 700.7 645 723.7 645 c 0
 746.7 645 783.7 649 813.7 650 c 1
 819.7 644 819.7 633 813.7 627 c 1
 769 622.7 722.4 596.9 687.7 552 c 2
 550.7 375 l 2
 539.2 360.1 539.7 355 539.7 346 c 0
 539.7 338.3 549.9 325.4 559.7 312 c 2
 712.7 102 l 2
739.3 118.2 m 2
 787.1 52.6 798.9 51.1 837.6 48.3 c 2
 839.5 48.1 l 1
 840.5 47 l 2
 870.9 16.6 862.4 -13.2 840.4 -35.2 c 2
 839.2 -36.4 l 1
 837.4 -36.4 l 2
 797.4 -35.1 762.6 -31 724.7 -31 c 0
 679.9 -31 642.7 -35.2 599.9 -36.3 c 2
 598.2 -36.3 l 1
 597 -35.1 l 2
 567 -5.1 573.7 24.8 596.1 47.2 c 2
 597.2 48.3 l 1
 599.2 48.4 l 2
 608.6 49.3 609.5 50.2 610.7 51 c 0
 612.1 52 610.3 55.5 601.9 67.4 c 2
 486.2 232 l 1
 364 63 l 2
 361.1 58.9 361.1 57.5 361 56.6 c 0
 360.5 52.1 368.7 49.1 380.9 48.3 c 2
 382.4 48.2 l 1
 383.5 47.1 l 2
 414.5 16.1 403.8 -13.8 382.5 -35.1 c 2
 381.3 -36.3 l 1
 379.5 -36.3 l 2
 334.2 -35.2 282.6 -31 263.7 -31 c 0
 237.6 -31 193.4 -35.4 163.1 -36.4 c 2
 161.3 -36.4 l 1
 160.1 -35.2 l 2
 130.4 -5.5 136.1 24.2 158.7 46.8 c 2
 159.7 47.8 l 1
 161.6 48 l 2
 208.6 52.7 244.3 71 274.9 111.6 c 2
 419.5 303.9 l 2
 425 311.2 420.8 319.9 416.4 326.2 c 2
 274 529.2 l 2
 229.6 592.5 213.4 593.9 172.5 596.8 c 2
 171 596.9 l 1
 169.9 598 l 2
 139.6 628.3 148.2 657.9 169.8 679.9 c 2
 171.3 681.4 l 1
 173.1 681.4 l 2
 213.1 680.1 247.8 676 285.7 676 c 0
 330.5 676 367.7 680.2 410.5 681.3 c 2
 412.3 681.3 l 1
 413.5 680.1 l 2
 443.5 650.1 436.7 620.2 414.3 597.8 c 2
 413.2 596.6 l 1
 411.5 596.6 l 2
 402.7 596.6 400.6 595.4 399.6 594.8 c 0
 398.4 594 400.1 589.7 408.8 577.4 c 2
 511.6 425 l 1
 627.4 589.8 l 2
 631 594.9 630 594.8 630 595.1 c 0
 627.6 596.6 615.3 596.1 606.6 596.7 c 2
 605.1 596.8 l 1
 604 597.9 l 2
 573.1 628.8 583.6 658.7 605 680.1 c 2
 606.2 681.3 l 1
 607.9 681.3 l 2
 653.2 680.2 704.8 676 723.7 676 c 0
 749.8 676 794.1 680.4 824.4 681.4 c 2
 826.2 681.4 l 1
 827.4 680.2 l 2
 857.1 650.5 851.4 620.8 828.8 598.2 c 2
 827.8 597.2 l 1
 826.3 597.1 l 2
 780.1 592.7 743.8 573.6 712.3 533 c 2
 580.4 363.1 l 2
 571.1 351.1 576.7 341.4 584.8 330.3 c 2
 739.3 118.2 l 2
730.8 116.3 m 2
 578.3 325.5 l 2
 570.2 336.7 561.3 351.3 574.1 367.9 c 2
 705.9 537.9 l 2
 738.1 579.5 775.8 599.9 824.1 604.9 c 1
 842.5 624.1 848.3 646.8 822.9 673.3 c 1
 794.8 672.3 749.9 668 723.7 668 c 0
 704.1 668 655.2 672 609.5 673.2 c 1
 591.9 655 582.5 632 608.6 604.6 c 1
 614.6 604.3 638.7 608.3 638 594.7 c 0
 637.9 592.6 637.5 590.3 633.9 585.2 c 2
 511.4 410.9 l 1
 402.2 572.8 l 2
 396.6 580.8 384.4 594.4 395.3 601.5 c 0
 398.1 603.3 400.5 604.3 409.8 604.6 c 1
 427.9 623.5 434.5 646.5 409 673.2 c 1
 368.7 672.1 330.3 668 285.7 668 c 0
 247.9 668 214 671.9 174.6 673.3 c 1
 156.4 654.4 148.8 631.7 174.6 604.7 c 1
 215 601.7 235.9 597.5 280.6 533.8 c 2
 422.9 330.8 l 2
 427.4 324.3 435.1 311.4 425.9 299.1 c 2
 281.3 106.8 l 2
 249.7 64.8 211.9 45.1 163.4 40.1 c 1
 145 20.9 139.2 -1.8 164.6 -28.3 c 1
 192.7 -27.3 237.5 -23 263.7 -23 c 0
 283.3 -23 332.3 -27 378 -28.2 c 1
 395.5 -10 405.2 12.8 378.9 40.4 c 1
 370.8 41.1 351.3 42.8 353.1 57.6 c 0
 353.4 59.7 353.8 62.4 357.5 67.6 c 2
 486.3 245.8 l 1
 608.4 72 l 2
 613.6 64.6 626.2 51.7 615.2 44.4 c 0
 612.4 42.5 610.8 41.7 600.8 40.6 c 1
 582.5 21.5 576 -1.5 601.5 -28.2 c 1
 641.8 -27.1 680.1 -23 724.7 -23 c 0
 762.5 -23 796.5 -26.9 835.9 -28.3 c 1
 853.8 -9.7 861.8 13.1 835.9 40.3 c 1
 796.3 43.3 779.1 50 730.8 116.3 c 2
EndSplineSet
Colour: ff00ff
EndChar

StartChar: afii10040
Encoding: 1062 1062 75
Width: 674
VWidth: 487
Flags: HW
HStem: -2 33<10.625 83.75> 0 39<194.443 469.051> 614 33<10.625 83.75 203.25 276.375 382.625 455.75 575.25 648.375>
VStem: 101 85<45.451 601.619> 473 85<39.9611 601.619> 609 33<-144.75 -92.9922>
LayerCount: 2
Fore
SplineSet
558 523 m 2
 558 122 l 2
 558 39 582 34 606 31 c 0
 630.8 27.9 635 20 636 11 c 0
 640 -37 642 -90 642 -141 c 1
 633 -148.1 618 -149 609 -142 c 1
 595 -71 547 0 470 0 c 2
 144 0 l 2
 124 0 63 -1 14 -2 c 1
 8 4 8 25 14 31 c 1
 84 34 101 39 101 122 c 2
 101 523 l 2
 101 606 84 611 14 614 c 1
 8 620 8 641 14 647 c 1
 64 646 93 645 143 645 c 0
 194 645 224 646 273 647 c 1
 279 641 279 620 273 614 c 1
 203 611 186 606 186 523 c 2
 186 89 l 2
 186 58 204 39 233 39 c 2
 436 39 l 2
 468 38.7 473 44 473 122 c 2
 473 523 l 2
 473 606 456 611 386 614 c 1
 380 620 380 641 386 647 c 1
 436 646 465 645 515 645 c 0
 566 645 596 646 645 647 c 1
 651 641 651 620 645 614 c 1
 575 611 558 606 558 523 c 2
EndSplineSet
EndChar

StartChar: afii10041
Encoding: 1063 1063 76
Width: 650
VWidth: 999
Flags: HW
HStem: -2 33<362.625 435.75 555.25 628.375> 250 58<220.92 371.066> 614 33<11.625 84.75 204.25 277.375 362.625 435.75 555.25 628.375>
VStem: 102 85<340.483 601.619> 453 85<43.3808 314.922 340.809 601.619>
LayerCount: 2
Fore
SplineSet
102 523 m 2
 102 606 85 611 15 614 c 1
 9 620 9 641 15 647 c 1
 65 646 94 645 144 645 c 0
 195 645 225 646 274 647 c 1
 280 641 280 620 274 614 c 1
 204 611 187 606 187 523 c 2
 187 417 l 2
 187 335 227 308 299 308 c 0
 327.5 308 390 311.9 453 353 c 1
 453 523 l 2
 453 606 436 611 366 614 c 1
 360 620 360 641 366 647 c 1
 416 646 445 645 495 645 c 0
 546 645 576 646 625 647 c 1
 631 641 631 620 625 614 c 1
 555 611 538 606 538 523 c 2
 538 122 l 2
 538 39 555 34 625 31 c 1
 631 25 631 4 625 -2 c 1
 575 -1 546 0 496 0 c 0
 445 0 415 -1 366 -2 c 1
 360 4 360 25 366 31 c 1
 436 34 453 39 453 122 c 2
 453 314.9 l 1
 381.1 265.5 314.2 250 257 250 c 0
 143 250 102 329 102 428 c 2
 102 523 l 2
EndSplineSet
EndChar

StartChar: afii10042
Encoding: 1064 1064 77
Width: 969
VWidth: 487
Flags: HW
HStem: 0 37<18.1958 95.1693 200.678 431.849 534.377 768.806 873.831 950.804> 614 33<15.625 88.75 208.25 281.375 349.625 422.75 542.25 615.375 687.625 760.75 880.25 953.375>
VStem: 106 85<43.3808 601.619> 440 85<41.6898 601.619> 778 85<43.3808 601.619>
LayerCount: 2
Fore
SplineSet
820 0 m 2
 149 0 l 1
 149 0 68 -1 19 -2 c 1
 13 4 13 25 19 31 c 1
 89 34 106 39 106 122 c 2
 106 523 l 2
 106 606 89 611 19 614 c 1
 13 620 13 641 19 647 c 1
 69 646 98 645 148 645 c 0
 199 645 229 646 278 647 c 1
 284 641 284 620 278 614 c 1
 208 611 191 606 191 523 c 2
 191 122 l 2
 191 40 208 37 250 37 c 2
 389 37 l 2
 426 37 440 40 440 122 c 2
 440 523 l 2
 440 606 423 611 353 614 c 1
 347 620 347 641 353 647 c 1
 403 646 432 645 482 645 c 0
 533 645 563 646 612 647 c 1
 618 641 618 620 612 614 c 1
 542 611 525 606 525 523 c 2
 525 122 l 2
 525 40 542 37 580 37 c 2
 709 37 l 2
 765 37 778 40 778 122 c 2
 778 523 l 2
 778 606 761 611 691 614 c 1
 685 620 685 641 691 647 c 1
 740 646 770 645 821 645 c 0
 871 645 900 646 950 647 c 1
 956 641 956 620 950 614 c 1
 880 611 863 606 863 523 c 2
 863 122 l 2
 863 39 880 34 950 31 c 1
 956 25 956 4 950 -2 c 1
 901 -1 868 0 820 0 c 2
EndSplineSet
EndChar

StartChar: afii10043
Encoding: 1065 1065 78
Width: 979
VWidth: 487
Flags: HW
HStem: 0 37<18.1958 95.1693 200.678 431.849 534.377 768.806> 614 33<15.625 88.75 208.25 281.375 349.625 422.75 542.25 615.375 687.625 760.75 880.25 953.375>
VStem: 106 85<43.3808 601.619> 440 85<41.6898 601.619> 778 85<43.3808 601.619> 914 33<-144.75 -92.9922>
LayerCount: 2
Fore
SplineSet
775 0 m 2
 149 0 l 1
 149 0 68 -1 19 -2 c 1
 13 4 13 25 19 31 c 1
 89 34 106 39 106 122 c 2
 106 523 l 2
 106 606 89 611 19 614 c 1
 13 620 13 641 19 647 c 1
 69 646 98 645 148 645 c 0
 199 645 229 646 278 647 c 1
 284 641 284 620 278 614 c 1
 208 611 191 606 191 523 c 2
 191 122 l 2
 191 40 208 37 250 37 c 2
 389 37 l 2
 426 37 440 40 440 122 c 2
 440 523 l 2
 440 606 423 611 353 614 c 1
 347 620 347 641 353 647 c 1
 403 646 432 645 482 645 c 0
 533 645 563 646 612 647 c 1
 618 641 618 620 612 614 c 1
 542 611 525 606 525 523 c 2
 525 122 l 2
 525 40 542 37 580 37 c 2
 709 37 l 2
 765 37 778 40 778 122 c 2
 778 523 l 2
 778 606 761 611 691 614 c 1
 685 620 685 641 691 647 c 1
 740 646 770 645 821 645 c 0
 871 645 900 646 950 647 c 1
 956 641 956 620 950 614 c 1
 880 611 863 606 863 523 c 2
 863 122 l 2
 863 39 887 34 911 31 c 0
 935.8 27.9 940 20 941 11 c 0
 945 -37 947 -90 947 -141 c 1
 938 -148.1 923 -149 914 -142 c 1
 900 -71 852 0 775 0 c 2
EndSplineSet
EndChar

StartChar: afii10044
Encoding: 1066 1066 79
Width: 723
VWidth: 999
Flags: HW
HStem: -2 33<174.625 247.75 371.537 520.434> 333 40<350 518.724> 605 40<115.773 256.866> 614 33<367.25 440.375>
VStem: 26 30<470.147 516.776> 265 85<46.5258 333 373 599.457> 594 93<87.5271 266.225>
LayerCount: 2
Fore
SplineSet
433 31 m 0
 585 31 594 121 594 183 c 0
 594 243 566 333 437 333 c 2
 350 333 l 1
 350 98 l 2
 350 65 363 31 433 31 c 0
454 -2 m 0
 365 -2 351 0 308 0 c 0
 257 0 227 -1 178 -2 c 1
 172 4 172 25 178 31 c 1
 248 34 265 39 265 122 c 2
 265 523 l 2
 265 598 253 605 206 605 c 2
 164 605 l 2
 98 605 64 512 56 469 c 1
 42 466 33.7 468.5 26 474 c 1
 30 530 36 582 42 645 c 1
 307 645 l 2
 357 645 388 646 437 647 c 1
 443 641 443 620 437 614 c 1
 367 611 350 606 350 523 c 2
 350 373 l 1
 410 373 l 2
 656 373 687 272 687 183 c 0
 687 16 575 -2 454 -2 c 0
EndSplineSet
EndChar

StartChar: afii10045
Encoding: 1067 1067 80
Width: 796
VWidth: 999
Flags: HW
HStem: -34.5 7.9<669.522 806.939 811.34 951.233> -4 23<677.195 744.873 876.256 943.929> -2 33<13.625 86.75 203.821 338.719> 42.4 7.8<667.505 711.229 911.064 952.927> 333 40<189 350.404> 597.2 7.8<669.043 710.81 910.913 954.466> 614 33<13.625 86.75 206.25 279.375> 628 23<677.195 744.873 876.404 943.929> 669 8<673.409 949.372> 674 8.1<670.737 810.629 815.03 952.449>
VStem: 104 85<43.498 333 373 601.619> 429 93<101.953 262.707> 740.1 8<85.4886 564.687> 771.1 79<34.5092 612.486> 873.1 8<89.0469 546.098>
LayerCount: 2
Fore
SplineSet
853.1 110 m 0
 855.1 27 870.1 22 940.1 19 c 1
 946.1 13 946.1 2 940.1 -4 c 1
 890.1 -3 861.4 1 811.1 1 c 0
 760.4 1 730.1 -3 681.1 -4 c 1
 675.1 2 675.1 13 681.1 19 c 1
 751.1 22 766.1 27 768.1 110 c 0
 770.1 193 771.1 239 771.1 322 c 0
 771.1 405 770.1 454 768.1 537 c 0
 766.1 620 751.1 625 681.1 628 c 1
 675.1 634 675.1 645 681.1 651 c 1
 731.1 650 759.8 646 810.1 646 c 0
 860.8 646 891.1 650 940.1 651 c 1
 946.1 645 946.1 634 940.1 628 c 1
 870.1 625 855.6 620 853.1 537 c 0
 850.6 453 850.1 404 850.1 321 c 0
 850.1 238 851.1 192.5 853.1 110 c 0
747.1 120.9 m 0
 745.2 43.9 730.7 44.9 670.7 42.4 c 1
 652.4 22.8 657 -9.5 672.3 -26.6 c 1
 716.9 -25.5 764.1 -21.7 809.1 -21.7 c 0
 857.3 -21.7 909.4 -25.6 948.7 -26.6 c 1
 967.7 -5.4 965 26.6 950.3 42.4 c 1
 886 45.1 876.7 47.7 874.9 120.9 c 0
 872.9 203.6 873.1 237.9 873.1 321 c 0
 873.1 403.9 873.4 442.7 875.9 526.4 c 0
 877.8 603.3 891.3 602.5 951.3 605 c 1
 969.6 624.6 965 656.9 949.7 674 c 1
 905.1 672.9 857.9 669 812.9 669 c 0
 764.7 669 712.6 673 673.3 674 c 1
 654.3 652.8 657 620.8 671.7 605 c 1
 736 602.3 745.3 599.6 747.1 526.4 c 0
 749.1 443.4 748.1 404.7 748.1 322 c 0
 748.1 239.3 749.1 203.9 747.1 120.9 c 0
739.1 124.1 m 0
 741.1 207 740.1 239.2 740.1 322 c 0
 740.1 404.8 741.1 440.4 739.1 523.3 c 0
 737.4 595 731.8 594.5 668 597.2 c 1
 647.5 617.4 647 659.2 669.8 682.1 c 1
 711.3 681.1 764.4 677 812.9 677 c 0
 858.1 677 908.1 681 953.2 682 c 1
 972.9 662.2 978.4 620.1 955 597 c 1
 894 594.4 885.7 597.9 883.9 523.3 c 0
 881.4 439.5 881.1 403.9 881.1 321 c 0
 881.1 237.9 880.9 206.8 882.9 124.1 c 0
 884.6 52.4 890.1 52.9 953.9 50.2 c 1
 974.4 30 975 -11.7 952.2 -34.6 c 1
 910.7 -33.6 857.6 -29.7 809.1 -29.7 c 0
 763.9 -29.7 713.9 -33.5 668.8 -34.5 c 1
 649.1 -14.7 643.6 27.1 667 50.2 c 1
 728 52.8 737.3 49.6 739.1 124.1 c 0
246 31 m 0
 398 31 429 121 429 183 c 0
 429 243 392 333 264 333 c 2
 189 333 l 1
 189 98 l 2
 189 65 198 31 246 31 c 0
104 122 m 2
 104 523 l 2
 104 606 87 611 17 614 c 1
 11 620 11 641 17 647 c 1
 67 646 96 645 146 645 c 0
 197 645 227 646 276 647 c 1
 282 641 282 620 276 614 c 1
 206 611 189 606 189 523 c 2
 189 373 l 1
 277 373 l 2
 496 373 522 272 522 183 c 0
 522 49.9 435.5 -2 244 -2 c 0
 208 -2 176 0 147 0 c 0
 96 0 66 -1 17 -2 c 1
 11 4 11 25 17 31 c 1
 87 34 104 39 104 122 c 2
EndSplineSet
Colour: ff00ff
EndChar

StartChar: afii10046
Encoding: 1068 1068 81
Width: 558
VWidth: 999
Flags: HW
HStem: -2 33<13.625 86.75 203.821 338.719> 333 40<189 350.404> 614 33<13.625 86.75 206.25 279.375>
VStem: 104 85<43.498 333 373 601.619> 429 93<101.953 262.707>
LayerCount: 2
Fore
SplineSet
246 31 m 0
 398 31 429 121 429 183 c 0
 429 243 392 333 264 333 c 2
 189 333 l 1
 189 98 l 2
 189 65 198 31 246 31 c 0
104 122 m 2
 104 523 l 2
 104 606 87 611 17 614 c 1
 11 620 11 641 17 647 c 1
 67 646 96 645 146 645 c 0
 197 645 227 646 276 647 c 1
 282 641 282 620 276 614 c 1
 206 611 189 606 189 523 c 2
 189 373 l 1
 277 373 l 2
 496 373 522 272 522 183 c 0
 522 49.9 435.5 -2 244 -2 c 0
 208 -2 176 0 147 0 c 0
 96 0 66 -1 17 -2 c 1
 11 4 11 25 17 31 c 1
 87 34 104 39 104 122 c 2
EndSplineSet
EndChar

StartChar: afii10047
Encoding: 1069 1069 82
Width: 622
Flags: HMW
HStem: -10 35<188.603 354.115> 291 50<151.594 280.008> 323 56<306.833 443.595> 621 37<205.922 372.452>
VStem: 46 91<72.2243 143.539> 53 30<457.067 493.656> 498 87<334 461.696>
LayerCount: 2
Fore
SplineSet
271 -10 m 0
 174 -10 46 50 46 124 c 0
 46 144 55 163 80 163 c 0
 109 163 124 136 137 99 c 0
 151 59 191 25 267 25 c 0
 415 25 487 143 497 301 c 1
 464 316 435 323 397 323 c 0
 339 323 310 291 243 291 c 0
 184 291 121 320 121 345 c 0
 121 353 126 357 130 357 c 0
 138 357 154 341 192 341 c 0
 251 341 294 379 357 379 c 0
 370 379 436 367 497 333 c 1
 498 334 l 1
 498 547 383 621 304 621 c 0
 166 621 109 540 83 454 c 1
 53 458 l 1
 63 510 71 559 75 613 c 1
 132 616 172 658 299 658 c 0
 465 658 585 534 585 325 c 0
 585 140 486 -10 271 -10 c 0
EndSplineSet
EndChar

StartChar: afii10048
Encoding: 1070 1070 83
Width: 1004
VWidth: 999
Flags: HW
HStem: -35.5 7.9<167.522 304.939 309.34 449.233> -10 38<517.016 661.795> -5 23<175.195 242.873 374.256 441.929> 41.4 7.8<165.505 209.229 409.064 450.927> 305 39<187 285> 596.2 7.8<167.043 208.81 408.913 452.466> 619 39<495.06 647.995> 627 23<175.195 242.873 374.404 441.929> 668 8<171.409 447.372> 673 8.1<168.737 308.629 313.03 450.449>
VStem: 238.1 8<84.4886 563.687> 269.1 79<33.5092 611.486> 285 93<192.404 305 344 446.869> 371.1 8<88.0469 545.098> 773 93<191.039 458.298>
LayerCount: 2
Fore
SplineSet
661 619 m 0
 577 619 477 537 477 327 c 0
 477 135 583 28 691 28 c 0
 794 28 872 131 872 310 c 0
 872 518 786 619 661 619 c 0
291.1 109 m 0
 293.1 26 308.1 21 378.1 18 c 1
 384.1 12 384.1 1 378.1 -5 c 1
 328.1 -4 299.4 0 249.1 0 c 0
 198.4 0 168.1 -4 119.1 -5 c 1
 113.1 1 113.1 12 119.1 18 c 1
 189.1 21 204.1 26 206.1 109 c 0
 208.1 192 209.1 238 209.1 321 c 0
 209.1 404 208.1 453 206.1 536 c 0
 204.1 619 189.1 624 119.1 627 c 1
 113.1 633 113.1 644 119.1 650 c 1
 169.1 649 197.8 645 248.1 645 c 0
 298.8 645 329.1 649 378.1 650 c 1
 384.1 644 384.1 633 378.1 627 c 1
 308.1 624 293.6 619 291.1 536 c 0
 288.9 460.4 288.2 413.2 288.1 344 c 1
 311.1 344 l 1
 311.2 411.2 311.7 450.2 313.9 525.4 c 0
 315.8 602.3 329.3 601.5 389.3 604 c 1
 407.6 623.6 403 655.9 387.7 673 c 1
 343.1 671.9 295.9 668 250.9 668 c 0
 202.7 668 150.6 672 111.3 673 c 1
 92.3 651.8 95 619.8 109.7 604 c 1
 174 601.3 183.3 598.6 185.1 525.4 c 0
 187.1 442.4 186.1 403.7 186.1 321 c 0
 186.1 238.3 187.1 202.9 185.1 119.9 c 0
 183.2 42.9 168.7 43.9 108.7 41.4 c 1
 90.4 21.8 95 -10.5 110.3 -27.6 c 1
 154.9 -26.5 202.1 -22.7 247.1 -22.7 c 0
 295.3 -22.7 347.4 -26.6 386.7 -27.6 c 1
 405.7 -6.4 403 25.6 388.3 41.4 c 1
 324 44.1 314.7 46.7 312.9 119.9 c 0
 311 197.5 311.1 232.5 311.1 305 c 1
 288.1 305 l 1
 288.2 231.2 289.2 186.4 291.1 109 c 0
177.1 123.1 m 0
 179.1 206 178.1 238.2 178.1 321 c 0
 178.1 403.8 179.1 439.4 177.1 522.3 c 0
 175.4 594 169.8 593.5 106 596.2 c 1
 85.5 616.4 85 658.2 107.8 681.1 c 1
 149.3 680.1 202.4 676 250.9 676 c 0
 296.1 676 346.1 680 391.2 681 c 1
 410.9 661.2 416.4 619.1 393 596 c 1
 332 593.4 323.7 596.9 321.9 522.3 c 0
 319.7 447 319.2 410.6 319.1 344 c 1
 385 344 l 1
 398 523 516 658 672 658 c 0
 840 658 965 527 965 329 c 0
 965 129 851 -10 673 -10 c 0
 515 -10 386 111 384 305 c 1
 319.1 305 l 1
 319.1 232.8 319 200.6 320.9 123.1 c 0
 322.6 51.4 328.1 51.9 391.9 49.2 c 1
 412.4 29 413 -12.7 390.2 -35.6 c 1
 348.7 -34.6 295.6 -30.7 247.1 -30.7 c 0
 201.9 -30.7 151.9 -34.5 106.8 -35.5 c 1
 87.1 -15.7 81.6 26.1 105 49.2 c 1
 166 51.8 175.3 48.6 177.1 123.1 c 0
EndSplineSet
EndChar

StartChar: afii10049
Encoding: 1071 1071 84
Width: 580
Flags: HW
HStem: -2 29<7 22 305 337 527 560> 329 33<233.803 237 311.619 392> 611 35<218.954 390.324> 618 28<526 563>
VStem: 88 81<416.839 570.598> 392 81<35.8445 324 362 607.704>
LayerCount: 2
Fore
SplineSet
169 502 m 0
 169 396 231 362 314 362 c 2
 392 362 l 1
 392 575 l 2
 392 608 388 611 301 611 c 0
 245 611 169 595 169 502 c 0
6 0 m 1
 6 19 l 2
 6 24 9 27 13 27 c 2
 22 28 l 2
 54 32 103.6 86.4 155 220 c 0
 180 285 210 310 237 326 c 1
 237 329 l 1
 169 339 88 389 88 491 c 0
 88 560 122 646 308 646 c 0
 343 646 402 645 435 645 c 0
 466 645 563 646 563 646 c 1
 563 625 l 2
 563 621 561 618 556 618 c 2
 526 616 l 2
 484 613 473 606 473 572 c 2
 473 73 l 2
 473 43 486 32 527 29 c 2
 554 27 l 2
 558 27 562 24 562 19 c 2
 562 0 l 1
 560 -2 l 1
 560 -2 473 0 434 0 c 0
 398 0 305 -2 305 -2 c 1
 303 0 l 1
 303 19 l 2
 303 24 306 27 311 27 c 2
 337 29 l 2
 379 32 392 45 392 73 c 2
 392 324 l 1
 286 324 266 295 224 189 c 0
 181 80.5 144 0 73 -1 c 2
 7 -2 l 1
 6 0 l 1
EndSplineSet
EndChar

StartChar: zero
Encoding: 48 48 234
Width: 618
VWidth: 487
Flags: HW
HStem: -43 8<274.404 338.253> -12 25<270.057 346.586> 36 8<294.154 324.046> 552 8<298.581 330.348> 583 27<273.899 353.139> 633 8<277.415 341.799>
VStem: 86.5 8<233.777 359.543> 117.5 81<152.487 441.105> 221.5 8<216.938 372.958> 388.5 8<193.121 392.131> 419.5 81<147.733 450.161> 523.5 8<237.172 370.909>
LayerCount: 2
Fore
SplineSet
310.5 583 m 0
 265.5 583 198.5 529 198.5 283 c 0
 198.5 196 214.5 13 307.5 13 c 0
 325.5 13 380.5 24 402.5 106 c 0
 416.5 157 419.5 230 419.5 322 c 0
 419.5 456 386.5 542 355.5 568 c 0
 343.5 579 327.5 583 310.5 583 c 0
306.5 -12 m 0
 193.5 -12 117.5 132 117.5 294 c 0
 117.5 492 211.5 610 310.5 610 c 0
 355.5 610 401.5 582 432.5 541 c 0
 476.5 483 500.5 402 500.5 303 c 0
 500.5 68 383.5 -12 306.5 -12 c 0
310.5 552 m 0
 295.3 552 229.5 524.8 229.5 283 c 0
 229.5 177.9 258.6 44 307.5 44 c 0
 316.7 44 355.4 49.9 372.6 114.1 c 0
 385.5 161.2 388.5 235.3 388.5 322 c 0
 388.5 457.9 352.4 530.2 335.1 544.7 c 0
 328.5 550.8 320.2 552 310.5 552 c 0
310.5 560 m 0
 320.7 560 331.6 558.7 340.3 550.7 c 0
 360.9 533.4 396.5 459 396.5 322 c 0
 396.5 235.1 393.7 160.7 380.3 112 c 0
 362.2 44.4 319.8 36 307.5 36 c 0
 247.4 36 221.5 181 221.5 283 c 0
 221.5 524.4 287 560 310.5 560 c 0
306.5 -43 m 0
 160.3 -43 86.5 133.7 86.5 294 c 0
 86.5 502.8 187.3 641 310.5 641 c 0
 372 641 424.3 603.2 457.2 559.7 c 0
 508.2 492.4 531.5 402.9 531.5 303 c 0
 531.5 53.3 403.1 -43 306.5 -43 c 0
306.5 -35 m 0
 397.3 -35 523.5 55.9 523.5 303 c 0
 523.5 401.7 500.4 489.5 450.8 554.9 c 0
 418.9 597.1 368.5 633 310.5 633 c 0
 194.3 633 94.5 501.2 94.5 294 c 0
 94.5 134.4 168.1 -35 306.5 -35 c 0
EndSplineSet
Substitution2: "'case' Versalformen 1" zero.cap
AlternateSubs2: "'aalt' Alle Alternativen zeigen 1" zero.oldstyle zero.fitted zero.slash zero.slashfitted perthousandzero
Substitution2: "'zero' gestrichene Null 1" zero.slash
Substitution2: "'sups' Hochgestellte 1" zero.superior
Substitution2: "'sinf' Wissenschaftliche Indices 1" zero.inferior
Substitution2: "'pnum' Proportionalziffern 1" zero.fitted
Substitution2: "'onum' Minuskelziffern 1" zero.taboldstyle
EndChar

StartChar: I
Encoding: 73 73 235
Width: 518
VWidth: 999
Flags: HW
HStem: -35.5 7.9<117.287 254.94 259.341 399.585> -5 23<124.563 192.873 324.257 392.561> 41.4 7.8<115.768 159.229 359.064 401.275> 596.2 7.8<116.695 158.81 358.913 402.202> 627 23<124.563 192.873 324.404 392.561> 668 8<121.408 397.372> 673 8.1<118.003 258.629 263.03 400.683>
VStem: 99.6 7.2<-10.208 28.0554 620.664 653.417> 188.1 8<84.4885 563.687> 219.1 79<33.5092 611.486> 321.1 8<88.0471 545.098> 410.1 7.1<-10.9674 27.6363 615.007 658.193>
AnchorPoint: "top_akzent" 165 850 basechar 0
AnchorPoint: "unten_punkt" 162 -110 basechar 0
AnchorPoint: "unten_anhang" 162 1 basechar 0
LayerCount: 2
Fore
SplineSet
301.1 109 m 0
 303.1 26 318.1 21 388.1 18 c 1
 391.1 15 392.6 10.7 392.6 6.5 c 0
 392.6 2.3 391.1 -2 388.1 -5 c 1
 338.1 -4 309.4 0 259.1 0 c 0
 208.4 0 178.1 -4 129.1 -5 c 1
 126.1 -2 124.6 2.3 124.6 6.5 c 0
 124.6 10.7 126.1 15 129.1 18 c 1
 199.1 21 214.1 26 216.1 109 c 0
 218.1 192 219.1 238 219.1 321 c 0
 219.1 404 218.1 453 216.1 536 c 0
 214.1 619 199.1 624 129.1 627 c 1
 126.1 630 124.6 634.3 124.6 638.5 c 0
 124.6 642.7 126.1 647 129.1 650 c 1
 179.1 649 207.8 645 258.1 645 c 0
 308.8 645 339.1 649 388.1 650 c 1
 391.1 647 392.6 642.7 392.6 638.5 c 0
 392.6 634.3 391.1 630 388.1 627 c 1
 318.1 624 303.6 619 301.1 536 c 0
 298.6 452 298.1 403 298.1 320 c 0
 298.1 237 299.1 191.5 301.1 109 c 0
195.1 119.9 m 0
 193.2 42.9 178.7 43.9 118.7 41.4 c 1
 110.4 32.5 106.8 20.9 106.8 9.4 c 0
 106.8 -4.4 112 -18.3 120.3 -27.6 c 1
 164.9 -26.5 212.1 -22.7 257.1 -22.7 c 0
 305.3 -22.7 357.4 -26.6 396.7 -27.6 c 1
 406 -17.1 410.1 -4 410.1 8.4 c 0
 410.1 21.2 405.8 33.4 398.3 41.4 c 1
 334 44.1 324.7 46.7 322.9 119.9 c 0
 321.2 190.8 321.1 226.1 321.1 287 c 2
 321.1 320 l 2
 321.1 402.9 321.4 441.7 323.9 525.4 c 0
 325.8 602.3 339.3 601.5 399.3 604 c 1
 407.6 612.9 411.2 624.4 411.2 635.9 c 0
 411.2 649.7 406 663.7 397.7 673 c 1
 353.1 671.9 305.9 668 260.9 668 c 0
 212.7 668 160.6 672 121.3 673 c 1
 112 662.5 107.8 649.4 107.8 637 c 0
 107.8 624.2 112.2 612 119.7 604 c 1
 184 601.3 193.3 598.6 195.1 525.4 c 0
 196.1 484.1 196.3 453.8 196.3 423.5 c 0
 196.3 393 196.1 362.5 196.1 321 c 0
 196.1 279.5 196.3 249.9 196.3 220.2 c 0
 196.3 190.8 196.1 161.3 195.1 119.9 c 0
187.1 123.1 m 0
 188.1 164.4 188.3 193.1 188.3 221.7 c 0
 188.3 250.6 188.1 279.4 188.1 321 c 0
 188.1 362.6 188.3 392.3 188.3 422 c 0
 188.3 451.5 188.1 481.1 187.1 522.3 c 0
 185.4 594 179.8 593.5 116 596.2 c 1
 105.9 606.2 100.6 621.3 100.6 636.9 c 0
 100.6 652.9 106.2 669.5 117.8 681.1 c 1
 159.3 680.1 212.4 676 260.9 676 c 0
 306.1 676 356.1 680 401.2 681 c 1
 411.9 670.3 418.4 653.1 418.4 635.9 c 0
 418.4 621.3 413.8 606.6 403 596 c 1
 342 593.4 333.7 596.9 331.9 522.3 c 0
 329.4 438.5 329.1 402.9 329.1 320 c 2
 329.1 287 l 2
 329.1 226.9 329.2 193.8 330.9 123.1 c 0
 332.6 51.4 338.1 51.9 401.9 49.2 c 1
 412 39.2 417.2 24 417.2 8.4 c 0
 417.2 -7.6 411.7 -24 400.2 -35.6 c 1
 358.7 -34.6 305.6 -30.7 257.1 -30.7 c 0
 211.9 -30.7 161.9 -34.5 116.8 -35.5 c 1
 106.1 -24.8 99.6 -7.7 99.6 9.4 c 0
 99.6 23.9 104.2 38.6 115 49.2 c 1
 176 51.8 185.3 48.6 187.1 123.1 c 0
EndSplineSet
Position2: "'cpsp' Versalabstaende 1" dx=2 dy=0 dh=5 dv=0
Substitution2: "'c2sc' Versale nach Kapitaelchen 1" i.sc
EndChar

StartChar: J
Encoding: 74 74 236
Width: 618
VWidth: 999
Flags: HW
HStem: -42 8<181.701 247.982> -11 34<196.022 287.785> 46 8<247.519 262.957> 98 8<153.908 200.123> 596.5 8<206.655 248.698 453.153 492.236> 627 23<216.155 283.832 415.363 482.889> 668 8<212.614 486.757> 673.2 8<207.498 346.794 351.602 491.601>
VStem: 105 8<20.5503 62.8245> 279 8<94.4588 551.831> 310 79<85.1591 611.486> 412 8<129.461 552.717>
AnchorPoint: "mittelpunkt" 186 315 basechar 0
AnchorPoint: "top_akzent" 182 850 basechar 0
LayerCount: 2
Fore
SplineSet
307 109 m 0
 309 192 310 238 310 321 c 0
 310 404 309 453 307 536 c 0
 305 619 290 624 220 627 c 1
 214 633 214 644 220 650 c 1
 270 649 298.7 645 349 645 c 0
 399.7 645 430 649 479 650 c 1
 485 644 485 633 479 627 c 1
 409 624 394.5 619 392 536 c 0
 389.5 452 389 403 389 320 c 0
 389 264.9 389.5 227 390.3 182.5 c 0
 391.7 108.5 357.7 59.8 324 31 c 0
 283 -4 252 -11 207 -11 c 0
 185 -11 136 6 136 42 c 0
 136 64 162 75 176 75 c 0
 207 75 211.3 54.2 221 41 c 0
 228.3 31 242 23 256 23 c 0
 278.8 23 305.8 45.3 307 109 c 0
276 109.7 m 0
 278.1 196.2 279 241.3 279 321 c 0
 279 407.1 278.9 455.5 276 535.2 c 0
 274 591.6 273 593.6 208.2 596.5 c 2
 206.6 596.5 l 1
 205.5 597.6 l 2
 174.6 628.5 184.5 658.4 206.2 680.1 c 2
 207.4 681.2 l 1
 209.1 681.2 l 1
 267 680 301.4 676 349 676 c 0
 404.4 676 438.2 680.1 489.9 681.2 c 1
 491.6 681.2 l 1
 492.8 680.1 l 2
 523 649.9 515.9 620 493.5 597.6 c 2
 492.4 596.5 l 1
 490.8 596.5 l 2
 425.9 595 424.4 584.4 423 535.1 c 0
 420.5 448 420 399.8 420 320 c 0
 420 261.1 420.5 225 421.3 183.1 c 0
 422.9 94.3 380.7 38.5 344.2 7.4 c 0
 306.5 -24.8 259.5 -42 207 -42 c 0
 175.5 -42 105 -20.7 105 42 c 0
 105 96.8 160.6 106 176 106 c 0
 229.3 106 245.1 61.1 246.1 59.2 c 0
 250.1 54.8 255.6 54 256 54 c 0
 264.2 54 275.3 70.5 276 109.7 c 0
284 109.5 m 0
 283.3 72.1 273.7 46 256 46 c 0
 253.2 46 244.9 47.4 239.6 54.6 c 0
 237.6 57.3 225.1 98 176 98 c 0
 161.4 98 113 89.3 113 42 c 0
 113 -13.2 176.8 -34 207 -34 c 0
 257.7 -34 302.7 -17.5 339 13.5 c 0
 374.2 43.5 414.9 97 413.3 182.9 c 0
 412.5 224.8 412 261.1 412 320 c 0
 412 399.8 412.5 448.2 415 535.3 c 0
 416.5 585.8 421.8 602.6 489 604.5 c 1
 507.2 623.4 514 646.3 488.3 673.2 c 1
 438.9 672.1 404.2 668 349 668 c 0
 301.2 668 268.3 671.9 210.7 673.2 c 1
 193 654.9 183.9 631.9 210.1 604.4 c 1
 274.9 601.4 281.9 593.9 284 535.5 c 0
 286.9 455.6 287 407 287 321 c 0
 287 241.3 286.1 196 284 109.5 c 0
EndSplineSet
Substitution2: "'ss02' Stilgruppe 2 1" J.alt
Position2: "'cpsp' Versalabstaende 1" dx=2 dy=0 dh=5 dv=0
Substitution2: "'c2sc' Versale nach Kapitaelchen 1" j.sc
EndChar

StartChar: K
Encoding: 75 75 237
Width: 870
VWidth: 999
Flags: HW
HStem: -36 8<177.08 314.498 318.899 458.792 633.835 694.18 697.204 819.027> -30.7 8<180.169 456.104 650.025 803.518> -5 23<184.754 252.431 383.815 451.488 766.784 810.426> 41.4 7.8<175.064 218.787 418.623 460.485> 314 28.1<357.635 408.349> 596.2 7.8<176.602 218.368 418.508 462.023> 627 23<184.754 252.431 383.963 451.488 567.692 611.565 746.078 798.426> 668 8<180.967 456.931 563.998 802.457> 673.2 8<178.295 318.188 322.589 460.007 559.113 687.816 691.51 807.124>
VStem: 247.6 8<84.4886 563.687> 275.6 85<30.3891 313.982 342.126 614.607> 380.6 8<88.0469 277.014 381.029 545.096>
AnchorPoint: "top_rechts" 649 732 basechar 0
AnchorPoint: "unten_anhang" 148 -1 basechar 0
AnchorPoint: "unten_punkt" 342 -110 basechar 0
AnchorPoint: "top_akzent" 336 850 basechar 0
LayerCount: 2
Fore
SplineSet
290.6 109 m 0
 292.6 26 307.6 21 377.6 18 c 1
 383.6 12 383.6 1 377.6 -5 c 1
 327.6 -4 298.9 0 248.6 0 c 0
 197.9 0 167.6 -4 118.6 -5 c 1
 112.6 1 112.6 12 118.6 18 c 1
 188.6 21 203.6 26 205.6 109 c 0
 207.6 192 208.6 238 208.6 321 c 0
 208.6 404 207.6 453 205.6 536 c 0
 203.6 619 188.6 624 118.6 627 c 1
 112.6 633 112.6 644 118.6 650 c 1
 168.6 649 197.3 645 247.6 645 c 0
 298.3 645 328.6 649 377.6 650 c 1
 383.6 644 383.6 633 377.6 627 c 1
 307.6 624 293.1 619 290.6 536 c 0
 288.3 459.7 287.7 412.3 287.6 342.1 c 1
 324.8 344.7 359 363.4 379.6 386 c 2
 539.6 562 l 2
 580.5 607 537.7 623.6 501.6 627 c 1
 495.6 633 495.6 644 501.6 650 c 1
 548.6 649 579.6 645 619.6 645 c 0
 659.6 645 677.6 649 724.6 650 c 1
 730.6 644 730.6 633 724.6 627 c 1
 684.6 622 634.6 607 588.6 558 c 1
 441.6 407 l 2
 407.6 372 406.6 365 406.6 358 c 0
 406.6 350 411.9 342.1 419.6 333 c 2
 638.6 73 l 1
 672.2 31.4 718.7 20.6 736.6 18 c 1
 742.6 12 742.6 1 736.6 -5 c 1
 689.6 -4 664.6 0 625.6 0 c 0
 595.6 0 597.6 -4 577.6 -5 c 0
 573.6 -5 573 -2 572.6 1 c 0
 570.6 17 556.9 47.4 536.6 73 c 2
 379.6 271 l 2
 358.8 297.3 322.9 313.4 287.6 314 c 1
 287.6 234.8 288.6 189.5 290.6 109 c 0
310.6 287.8 m 1
 331.5 282 348.7 272.9 361.5 256.8 c 2
 518.5 58.7 l 2
 533.8 39.4 548.3 9.1 549.7 -1.9 c 0
 552.4 -23.8 570.4 -28 577.6 -28 c 0
 578.6 -28 577.7 -28 578.7 -28 c 0
 602.2 -26.8 595.6 -23 625.6 -23 c 0
 660.9 -23 683.3 -26.9 736.1 -28 c 2
 745.9 -28.2 l 1
 763.3 -9.9 773.4 12.3 747.4 39.7 c 1
 739.8 40.8 l 2
 727 42.6 687.3 49.1 656.3 87.6 c 1
 447.5 334.4 l 2
 437.2 346.6 432.1 364.4 458 391 c 2
 605.2 542.1 l 1
 647.8 587.4 688.2 599.2 735.2 605.2 c 1
 753.4 624.2 758.9 647.1 733.9 673.2 c 1
 688.1 672.1 661.5 668 619.6 668 c 0
 582.4 668 546.3 671.9 492.3 673.2 c 1
 475.1 655.3 465 632.3 491.1 604.9 c 1
 500.8 604.3 529.5 605 529.5 591.4 c 0
 529.5 581.7 518.6 570.1 511 561.8 c 2
 362.5 401.4 l 2
 351.7 389.8 332.6 375.5 310.7 369.8 c 1
 310.9 422.9 311.7 459.9 313.5 525.4 c 0
 315.6 602.3 328.9 601.5 388.9 604 c 1
 407.2 623.6 402.6 655.9 387.3 673 c 1
 342.7 671.9 295.5 668 250.5 668 c 0
 202.3 668 150.1 672 110.8 673 c 1
 91.8 651.8 94.5 619.8 109.2 604 c 1
 173.5 601.3 182.8 598.6 184.6 525.4 c 0
 186.6 442.4 185.6 403.7 185.6 321 c 0
 185.6 238.3 186.6 202.9 184.6 119.9 c 0
 182.7 42.9 168.2 43.9 108.2 41.4 c 1
 89.9 21.8 94.5 -10.5 109.8 -27.6 c 1
 154.4 -26.5 201.6 -22.7 246.6 -22.7 c 0
 294.8 -22.7 347 -26.6 386.3 -27.6 c 1
 405.3 -6.4 402.6 25.6 387.9 41.4 c 1
 323.6 44.1 314.3 46.7 312.5 119.9 c 0
 310.8 191.1 310.6 226.4 310.6 287.8 c 1
318.7 381 m 1
 335 387.8 348.2 397.8 356.6 406.9 c 2
 505.1 567.2 l 2
 513.3 576.2 521.1 586.7 521.5 591.3 c 1
 519.3 594.2 501 596.2 489.1 597 c 2
 487.6 597.1 l 1
 486.5 598.2 l 2
 455.5 629.2 466.8 659.1 487.8 680.1 c 2
 489 681.3 l 1
 490.7 681.2 l 2
 544.8 680 582.8 676 619.6 676 c 0
 661.3 676 687.4 680.2 735.4 681.2 c 2
 737.1 681.3 l 1
 738.3 680.1 l 2
 767.6 650.8 762.3 620.9 739.9 598.5 c 2
 739 597.6 l 1
 737.6 597.4 l 2
 691.4 591.6 652.8 581.1 611 536.6 c 1
 463.8 385.4 l 2
 440 360.9 445.8 348.8 453.6 339.6 c 2
 662.5 92.7 l 1
 691.7 56.6 728.8 50.4 740.9 48.7 c 2
 751.2 47.2 l 1
 752.1 46.3 l 2
 783.1 15.3 770.6 -14.8 750.3 -35.1 c 2
 749.1 -36.3 l 1
 735.9 -36 l 2
 682.6 -34.9 660.2 -31 625.6 -31 c 0
 597.4 -31 604.3 -34.7 579.1 -36 c 2
 578.3 -36 l 1
 577.6 -36 l 2
 568.5 -36 545.2 -30 541.8 -2.8 c 0
 540.8 4.9 526.6 35.6 512.3 53.7 c 2
 355.2 251.9 l 2
 346.1 263.4 332.9 271.8 318.6 277 c 1
 318.6 223 318.9 189.8 320.5 123.1 c 0
 322.2 51.4 327.6 51.9 391.4 49.2 c 1
 411.9 29 412.5 -12.7 389.7 -35.6 c 1
 348.2 -34.6 295.1 -30.7 246.6 -30.7 c 0
 201.4 -30.7 151.4 -34.5 106.3 -35.5 c 1
 86.6 -15.7 81.2 26.1 104.6 49.2 c 1
 165.6 51.8 174.8 48.6 176.6 123.1 c 0
 178.6 206 177.6 238.2 177.6 321 c 0
 177.6 403.8 178.6 439.4 176.6 522.3 c 0
 174.9 594 169.3 593.5 105.5 596.2 c 1
 85 616.4 84.5 658.2 107.3 681.1 c 1
 148.8 680.1 202 676 250.5 676 c 0
 295.7 676 345.7 680 390.8 681 c 1
 410.5 661.2 415.9 619.1 392.5 596 c 1
 331.5 593.4 323.5 596.9 321.5 522.3 c 0
 319.9 462.1 319 426.8 318.7 381 c 1
EndSplineSet
Position2: "'cpsp' Versalabstaende 1" dx=2 dy=0 dh=5 dv=0
AlternateSubs2: "'aalt' Alle Alternativen zeigen 1" K.alt k.sc
Substitution2: "'ss02' Stilgruppe 2 1" K.alt
Substitution2: "'c2sc' Versale nach Kapitaelchen 1" k.sc
Colour: ff9ccc
EndChar

StartChar: L
Encoding: 76 76 238
Width: 712
VWidth: 999
Flags: HW
HStem: -36.7 8.1<118.776 258.64> -31.7 8<123.151 586.326> -5 23<127.235 194.912> 0 29<322.942 508.692> 52 8<353.774 472.729> 180.6 7.2<577.047 624.2> 596.1 7.9<117.543 164.215 359.294 402.965> 627 23<127.235 194.912 326.443 393.969> 668 8<122.765 398.954> 673 8.1<119.56 259.803 264.261 401.271>
VStem: 190.1 8<97.9734 545.08> 221.1 79<44.5341 611.486> 323.1 8<97.3672 549.716> 596.1 23<127.727 158.454>
AnchorPoint: "mittelpunkt" 162.2 315 basechar 0
AnchorPoint: "top_rechts" 345.2 732 basechar 0
AnchorPoint: "unten_anhang" 136.2 1 basechar 0
AnchorPoint: "unten_punkt" 136.2 -110 basechar 0
AnchorPoint: "top_akzent" 25.2 850 basechar 0
LayerCount: 2
Fore
SplineSet
303.1 109 m 0
 303.6 78 308.6 29 360.1 29 c 2
 433.1 29 l 2
 539.1 29 576.1 88 596.1 160 c 1
 608.5 161.8 609.3 159.7 619.1 155 c 1
 613.1 103 603.1 45 593.1 -5 c 1
 593.1 -5 501.1 0 473.8 0 c 2
 261.1 0 l 2
 231.1 0 180.1 -4 131.1 -5 c 1
 125.1 1 125.1 12 131.1 18 c 1
 201.1 21 216.1 26 218.1 109 c 0
 220.1 192 221.1 238 221.1 321 c 0
 221.1 404 220.1 453 218.1 536 c 0
 216.1 619 201.1 624 131.1 627 c 1
 125.1 633 125.1 644 131.1 650 c 1
 181.1 649 209.8 645 260.1 645 c 0
 310.8 645 341.1 649 390.1 650 c 1
 396.1 644 396.1 633 390.1 627 c 1
 320.1 624 305.6 619 303.1 536 c 0
 300.6 452 300.1 403 300.1 320 c 0
 300.1 237 301.8 191.5 303.1 109 c 0
260.9 -31.7 m 2
 211.6 -31.7 160.3 -35.7 118 -36.7 c 1
 94.1 -12.7 94.4 26.7 116.2 48.2 c 1
 176.8 51.3 185.4 46.6 187.1 119.1 c 0
 189.2 205.4 190.1 241.4 190.1 321 c 0
 190.1 407 189 445.3 187.1 525.2 c 0
 185.3 600.5 175.6 593.1 116.2 596.1 c 1
 91.6 620.4 98.1 660.1 119 681.1 c 1
 164.3 680 216.3 676 261.9 676 c 0
 311.3 676 360.3 680.1 403 681.1 c 1
 426.9 657.1 425.5 617.6 403.8 596.1 c 1
 339.1 593.3 335.6 595.2 333.9 525.2 c 0
 331.8 438.1 331.1 399.8 331.1 320 c 0
 331.1 234.2 332.8 189.2 334.1 109.5 c 0
 334.7 73.2 350.1 60 370.1 60 c 2
 433.1 60 l 2
 535.7 60 551.5 115.3 571.7 187.8 c 1
 613.5 193.8 632.5 183 652.4 173.4 c 1
 643.9 99.8 631.4 28.6 618.9 -34 c 2
 618.2 -37.4 l 1
 614.8 -37.2 l 2
 591.2 -35.9 516.5 -31 473.8 -31 c 2
 260.9 -31.7 l 2
260.9 -23.7 m 2
 473.8 -23 l 2
 515 -23 584 -27.4 611.7 -29 c 1
 623.4 29.6 635.5 98.3 643.8 168.7 c 1
 627.9 176.3 612.4 184.9 578 180.6 c 1
 558.6 111.3 538.5 52 433.1 52 c 2
 370.1 52 l 2
 344.8 52 326.7 70.6 326.1 109.4 c 0
 324.8 189 323.1 234.1 323.1 320 c 0
 323.1 399.8 323.3 438.3 325.9 525.4 c 0
 327.7 598.5 336 601.3 400.3 604 c 1
 415 619.8 417.7 651.8 398.7 673 c 1
 359.2 672 310.2 668 261.9 668 c 0
 217 668 166.6 671.9 122.3 673 c 1
 107 655.9 102.4 623.6 120.7 604 c 1
 180.8 601.5 193.2 602.3 195.1 525.4 c 0
 197 445.6 198.1 407.1 198.1 321 c 0
 198.1 241.3 197.2 205.2 195.1 118.9 c 0
 193.3 45.7 184 43.1 119.7 40.4 c 1
 105 24.6 102.3 -7.4 121.3 -28.6 c 1
 160.6 -27.6 212.7 -23.7 260.9 -23.7 c 2
EndSplineSet
Position2: "'cpsp' Versalabstaende 1" dx=2 dy=0 dh=5 dv=0
Substitution2: "'c2sc' Versale nach Kapitaelchen 1" l.sc
EndChar

StartChar: M
Encoding: 77 77 239
Width: 1000
VWidth: 999
Flags: HW
HStem: -36.4 8.1<94.5186 193.652 195.905 293.293 458.675 493.067 667.362 785.679 788.195 905.358> -31 8<98.3818 289.132 671.867 900.98> -5 23<103.418 148.38 236.874 284.44 676.418 736.382 835.262 896.44> 40.6 7.9<94.0934 120.885 263.925 293.511 868.957 906.318> 410.6 20G<265.64 275.378 692.069 701.745> 627 23<154.062 210.41 805.042 855.796> 667.4 7.8<148.79 302.688 719.347 861.024> 673.4 8.1<145.589 302.688 719.347 864.216>
AnchorPoint: "mittelpunkt" 426 445 basechar 0
AnchorPoint: "unten_anhang" 107 2 basechar 0
AnchorPoint: "unten_punkt" 393 -110 basechar 0
AnchorPoint: "top_akzent" 431 850 basechar 0
LayerCount: 2
Fore
SplineSet
743.7 103 m 2
 717.9 534 l 1
 715.9 534 l 1
 490.9 5 l 2
 486.9 -3 482.9 -6 476.9 -6 c 0
 470.9 -6 464.7 -2.1 461.9 5 c 2
 254.9 524 l 1
 252.9 524 l 1
 215 110 l 2
 209.6 53.7 214.9 23 280.9 18 c 1
 286.9 12 286.9 1 280.9 -5 c 1
 250.9 -4 218.9 0 194.9 0 c 0
 170.9 0 136.9 -4 106.9 -5 c 1
 100.9 1 100.9 12 106.9 18 c 1
 163.9 23 176 48.1 181.9 108 c 2
 225.9 533 l 2
 233.7 607.9 226.9 623 157.9 627 c 1
 151.9 633 151.9 644 157.9 650 c 1
 286.9 645 l 1
 491.9 137 l 2
 495.9 128 499.4 114 505.9 114 c 0
 512.4 114 517.2 124.4 522.9 138 c 2
 734.9 645 l 1
 851.9 650 l 1
 857.9 644 857.9 633 851.9 627 c 1
 783.9 623 779.1 596 783.2 542 c 2
 816 108 l 2
 821.8 25.2 824.9 21 892.9 18 c 1
 898.9 12 898.9 1 892.9 -5 c 1
 859.7 -4 815.4 0 786.9 0 c 0
 760.9 0 726.9 -4 679.9 -5 c 1
 673.9 1 673.9 12 679.9 18 c 1
 744.9 21 748.7 22 743.7 103 c 2
711.7 111.1 m 2
 694.6 404.6 l 1
 519.1 -8 l 1
 518.7 -8.9 l 2
 509 -28.3 490.6 -37 476.9 -37 c 0
 450.2 -37 437.6 -17.7 433.1 -6.5 c 2
 272.4 396.5 l 1
 247.8 117.1 l 2
 247 108.9 246.7 104.4 246.4 100.9 c 0
 242.9 55.8 247.7 51.6 293.2 48.2 c 2
 294.7 48 l 1
 295.8 47 l 2
 326.9 15.9 315.8 -14 294.6 -35.2 c 2
 293.3 -36.4 l 1
 291.6 -36.4 l 2
 254.8 -35.2 214.9 -31 194.9 -31 c 0
 167.9 -31 126.8 -35.4 96.3 -36.4 c 2
 94.5 -36.4 l 1
 93.3 -35.2 l 2
 63.4 -5.3 69.8 24.3 91.6 46.5 c 2
 93 47.9 l 1
 94.4 48 l 2
 144.1 52.4 147.2 62.5 153 121.1 c 2
 195.1 536.2 l 2
 196 544.6 196.3 548.9 196.6 552.4 c 0
 200.3 595.9 195.5 592.6 145.8 596.7 c 2
 144.3 596.8 l 1
 143.3 597.8 l 2
 112.2 628.9 122.9 658.8 144.4 680.3 c 2
 145.6 681.5 l 1
 308.2 675.2 l 1
 507.5 181.4 l 1
 713.9 675.1 l 1
 864.2 681.6 l 1
 865.5 680.3 l 2
 895.6 650.2 889.3 620.5 866.6 597.8 c 2
 865.6 596.8 l 1
 864.2 596.7 l 2
 814.4 590.9 810.8 588.5 814.1 544.3 c 2
 845.9 120.3 l 2
 850.8 54.7 840.1 51.4 904.8 48.5 c 2
 906.3 48.4 l 1
 907.4 47.3 l 2
 938.4 16.3 928.3 -13.5 906.6 -35.2 c 2
 905.4 -36.4 l 1
 903.7 -36.3 l 2
 862.9 -35.1 813.3 -31 786.9 -31 c 0
 760.9 -31 713 -35.3 669.1 -36.2 c 2
 667.4 -36.3 l 1
 666.2 -35.1 l 2
 636 -4.9 643 24.9 665.4 47.3 c 2
 666.4 48.3 l 1
 667.8 48.4 l 2
 714.1 53.4 714.7 59.4 711.7 111.1 c 2
719.7 111.6 m 2
 722.7 59.8 719.5 46.3 670.1 40.7 c 1
 651.7 21.6 644.9 -1.3 670.6 -28.2 c 1
 712.8 -27.2 760.6 -23 786.9 -23 c 0
 813.6 -23 861.3 -27 902.1 -28.3 c 1
 919.8 -10 929.2 13.1 902.9 40.6 c 1
 836.4 43.8 842.7 55.2 837.9 119.7 c 2
 806.2 543.7 l 2
 802.7 590.3 810.8 598.5 861.9 604.5 c 1
 880.5 623.8 886.6 646.6 861 673.4 c 1
 719.3 667.4 l 1
 507.3 160.3 l 1
 302.7 667.4 l 1
 148.8 673.4 l 1
 130.6 654.2 121.7 632 147.9 604.5 c 1
 196 600.6 208.6 599.2 204.6 551.7 c 0
 204.3 548.2 203.9 543.8 203 535.4 c 2
 161 120.3 l 2
 155.3 62.1 149.4 45.2 96.6 40.2 c 1
 78.2 21 72.3 -1.8 97.7 -28.3 c 1
 125.9 -27.3 167.9 -23 194.9 -23 c 0
 215.5 -23 253.2 -26.9 290.1 -28.3 c 1
 307.5 -10.2 317.4 12.7 291.1 40.3 c 1
 244 44.1 234.6 54.2 238.6 103.7 c 0
 238.8 106.7 239.2 110.5 239.9 117.9 c 2
 267.4 430.6 l 1
 440.6 -3.5 l 2
 444.4 -13.1 454.9 -29 476.9 -29 c 0
 487.4 -29 503.2 -21.9 511.5 -5.3 c 2
 511.8 -4.8 l 1
 700.6 439.1 l 1
 719.7 111.6 l 2
EndSplineSet
Position2: "'cpsp' Versalabstaende 1" dx=2 dy=0 dh=5 dv=0
Substitution2: "'c2sc' Versale nach Kapitaelchen 1" m.sc
EndChar

StartChar: N
Encoding: 78 78 240
Width: 931
VWidth: 999
Flags: HW
HStem: -41 8<675.041 712.096> -36.3 8<121.443 239.988 243.757 361.47> -5 23<132.491 190.583 291.006 350.549> 627 23<135.278 171.57 579.278 640.309 740.415 799.762> 668 8<125.379 278.419 574.55 804.83>
VStem: 190 8<75.6131 547.284> 221 41<36.2882 487.989> 285 8<77.7603 425.216> 639 8.1<216.194 576.094> 670 39<148.008 607.5> 732.1 8<-8.89662 578.266>
AnchorPoint: "mittelpunkt" 321.5 320 basechar 0
AnchorPoint: "unten_anhang" 90.5 -4 basechar 0
AnchorPoint: "unten_punkt" 313.5 -110 basechar 0
AnchorPoint: "top_akzent" 311.5 850 basechar 0
LayerCount: 2
Fore
SplineSet
669 525 m 2
 669 616 652 620 582 627 c 1
 576 633 576 644 582 650 c 1
 632 649 647.2 645 689 645 c 0
 731.2 645 748 649 797 650 c 1
 803 644 803 633 797 627 c 1
 727 620 710 614 710 525 c 2
 709 21 l 2
 709 2 711 -10 697 -10 c 0
 681 -10 668 -1 657 14 c 2
 308 455 l 2
 291 477 280 488 274 488 c 0
 266 488 260.9 473 261 439 c 2
 262 120 l 2
 262 29 279 25 349 18 c 1
 355 12 355 1 349 -5 c 1
 299 -4 283.8 0 242 0 c 0
 199.8 0 183 -4 134 -5 c 1
 128 1 128 12 134 18 c 1
 204 25 221 31 221 120 c 2
 222 550 l 1
 211 589 186 621 138 624 c 1
 132 630 132 641 138 647 c 1
 267 645 l 1
 610 203 l 2
 639 166 650 148 658 148 c 0
 665 148 670.1 159 670 178 c 2
 669 525 l 2
638 525 m 2
 638 611.7 638 590.2 569.3 597.1 c 2
 567.9 597.3 l 1
 566.9 598.3 l 2
 535.9 629.3 547.3 659.2 568.2 680.1 c 2
 569.4 681.2 l 1
 571.1 681.2 l 1
 627.6 680.1 652.4 676 689 676 c 0
 732.5 676 757.7 680.2 807.9 681.2 c 1
 809.6 681.2 l 1
 810.8 680.1 l 2
 840.5 650.4 834.6 620.8 812.1 598.3 c 2
 811.1 597.3 l 1
 809.7 597.1 l 2
 737.7 589.9 741 605.3 741 525 c 0
 741 351.5 740.1 179.4 740.1 9.4 c 0
 740.1 -7.9 729.4 -41 697 -41 c 0
 663.2 -41 643.7 -19.7 632.3 -4.7 c 2
 292.1 425.2 l 1
 293 130 l 2
 293 57.2 294.8 54.6 361.7 47.9 c 2
 363.1 47.7 l 1
 364.1 46.7 l 2
 395.1 15.7 383.7 -14.2 362.8 -35.1 c 2
 361.6 -36.3 l 1
 359.9 -36.3 l 1
 303.4 -35.2 278.6 -31 242 -31 c 0
 198.5 -31 173.3 -35.3 123.1 -36.3 c 1
 121.4 -36.3 l 1
 120.2 -35.1 l 2
 90.5 -5.4 96.4 24.2 118.9 46.7 c 2
 119.9 47.7 l 1
 121.3 47.9 l 2
 191.8 54.9 190 61.1 190 130 c 2
 191 545.5 l 1
 179 582.8 161.7 591.3 126.5 593.7 c 2
 124.4 593.8 l 1
 123.3 594.9 l 2
 92.4 625.8 102.8 655.6 124.2 677 c 2
 125.4 678.2 l 1
 282.4 675.8 l 1
 639 216.2 l 1
 638 525 l 2
646 525 m 2
 647.1 192.7 l 1
 278.4 667.8 l 1
 128.7 670.1 l 1
 111.1 651.9 101.7 629.1 127.9 601.6 c 1
 164.9 598.9 186.3 587.3 198.8 547.3 c 2
 199 546.7 l 1
 198 130 l 2
 198 61 196.5 47.6 123.6 40.1 c 1
 105.3 21 99.4 -1.7 124.7 -28.2 c 1
 172.7 -27.1 198.4 -23 242 -23 c 0
 279.3 -23 301.7 -26.9 358.3 -28.2 c 1
 375.5 -10.4 385.7 12.6 359.5 40.1 c 1
 291.8 47 285 56 285 130 c 2
 284 448.3 l 1
 638.6 0.2 l 2
 649.6 -14.3 667.1 -33 697 -33 c 0
 722.3 -33 732.1 -6.4 732.1 9.4 c 0
 732.1 179.5 733 351.5 733 525 c 0
 733 606.5 736.2 598.1 807.5 604.9 c 1
 825.8 624 831.6 646.7 806.3 673.2 c 1
 758.3 672.1 732.6 668 689 668 c 0
 651.7 668 629.3 671.9 572.7 673.2 c 1
 555.5 655.4 545.4 632.4 571.6 604.9 c 1
 637.6 598.7 646 613.7 646 525 c 2
EndSplineSet
Position2: "'cpsp' Versalabstaende 1" dx=2 dy=0 dh=5 dv=0
Substitution2: "'c2sc' Versale nach Kapitaelchen 1" n.sc
EndChar

StartChar: O
Encoding: 79 79 241
Width: 835
VWidth: 999
Flags: HW
HStem: -41 8<364.253 468.658> -10 24<375.392 495.817> 37 8<402.983 466.537> 603 8<370.402 432.615> 634 24<343.782 460.949> 681 8<361.848 463.972>
VStem: 75 8<253.476 370.85> 106 90<198.309 447.988> 219 8<273.049 387.65> 608 8<250.164 371.241> 639 90<193.813 452.752> 752 8<266.759 388.022>
AnchorPoint: "mittelpunkt" 263.5 322 basechar 0
AnchorPoint: "komb_OR" 537.5 606 basechar 0
AnchorPoint: "unten_anhang" 267.5 0 basechar 0
AnchorPoint: "unten_punkt" 267.5 -110 basechar 0
AnchorPoint: "top_akzent" 252.5 850 basechar 0
LayerCount: 2
Fore
SplineSet
397 634 m 0
 306 634 196 537 196 327 c 0
 196 135 314 14 436 14 c 0
 550 14 639 131 639 310 c 0
 639 512 529 634 397 634 c 0
729 329 m 0
 729 245 709 172.7 669.2 116 c 0
 614.3 37.7 526.8 -10 416 -10 c 0
 246 -10 106 113 106 310 c 0
 106 397.2 128.4 475.7 172.3 536 c 0
 227.1 611.2 310.7 658 410 658 c 0
 589 658 729 536 729 329 c 0
397 603 m 0
 326.9 603 227 523.1 227 327 c 0
 227 142.5 339.2 45 436 45 c 0
 527.5 45 608 142.8 608 310 c 0
 608 506 503.5 603 397 603 c 0
397 611 m 0
 509.2 611 616 508.7 616 310 c 0
 616 140.9 534.2 37 436 37 c 0
 333.6 37 219 139.4 219 327 c 0
 219 525.4 320.7 611 397 611 c 0
760 329 m 0
 760 236.2 737 158.6 694.6 98.2 c 0
 631.9 8.8 532.3 -41 416 -41 c 0
 225.9 -41 75 100.3 75 310 c 0
 75 406.3 100.5 490.3 147.2 554.3 c 0
 209.5 639.8 304.1 689 410 689 c 0
 608.7 689 760 548.5 760 329 c 0
752 329 m 0
 752 544.3 604.5 681 410 681 c 0
 306.6 681 214.5 633 153.7 549.5 c 0
 108.2 487 83 404.9 83 310 c 0
 83 104.6 230.2 -33 416 -33 c 0
 530 -33 626.9 15.6 688 102.8 c 0
 729.3 161.7 752 237.5 752 329 c 0
EndSplineSet
Position2: "'cpsp' Versalabstaende 1" dx=2 dy=0 dh=5 dv=0
Substitution2: "'c2sc' Versale nach Kapitaelchen 1" o.sc
EndChar

StartChar: P
Encoding: 80 80 242
Width: 711
VWidth: 999
Flags: HMW
HStem: -2 33<129.693 202.818 326.818 410.443> 282 34<305.853 463.608> 618 34<131.771 198.927 295.373 470.143>
VStem: 220.1 85<47.6546 292 318.199 600.635> 530.1 93<395.93 561.649>
AnchorPoint: "mittelpunkt" 161.5 464 basechar 0
AnchorPoint: "top_rechts" 384.5 732 basechar 0
AnchorPoint: "unten_anhang" 25.5 -3 basechar 0
AnchorPoint: "unten_punkt" 115.5 -110 basechar 0
AnchorPoint: "top_akzent" 152.5 850 basechar 0
LayerCount: 2
Fore
SplineSet
304.1 296.4 m 1
 304.2 223.9 304.8 159.6 306.1 85 c 0
 307.1 27.3 338.1 21.5 407.1 18 c 1
 413.1 12 413.1 1 407.1 -5 c 1
 357.1 -4 319.9 0 264.1 0 c 0
 213.4 0 183.1 -4 134.1 -5 c 1
 128.1 1 128.1 12 134.1 18 c 1
 204.1 21 219.4 25.3 221.1 109 c 0
 222.8 192 223.1 238 223.1 321 c 0
 223.1 404 222.4 453 221.1 536 c 0
 219.8 618.7 204.1 624 134.1 627 c 1
 128.1 633 128.1 644 134.1 650 c 1
 184.1 649 212.8 645 263.1 645 c 0
 303.1 645 373.1 655 399.1 655 c 0
 584.1 655 620.1 545 620.1 486 c 0
 620.1 401 568.1 287 386.1 287 c 0
 352.2 287 325.7 289.8 304.1 296.4 c 1
306.1 583 m 0
 304.8 500 304.1 404.3 304.1 321.3 c 2
 304.1 315.5 l 1
 317.6 312.8 357.4 311 381.1 311 c 0
 478.1 311 533.1 360 533.1 468 c 0
 533.1 595 461.1 631 392.1 631 c 0
 320.1 631 307.3 611.8 306.1 583 c 0
335.2 258.6 m 1
 335.5 196.3 336.1 153.8 337.1 95.5 c 0
 337.8 57 350.6 51.9 419 48.4 c 2
 420.6 48.3 l 1
 421.6 47.3 l 2
 452.5 16.4 442.5 -13.5 420.9 -35.1 c 2
 419.6 -36.3 l 1
 417.4 -36.3 l 1
 357.9 -35.1 318.5 -31 264.1 -31 c 0
 208.7 -31 174.9 -35.2 123.2 -36.3 c 1
 121.5 -36.3 l 1
 120.3 -35.1 l 2
 89.9 -4.7 97.6 25 119.2 47 c 2
 120.6 48.4 l 1
 122.1 48.5 l 2
 184.6 54.1 189 54.5 190.1 118.9 c 0
 191.5 208.9 192.1 239.9 192.1 321 c 0
 192.1 407.1 191.4 445.7 190.1 525.5 c 0
 189.1 584.9 170.7 593 122.7 596.4 c 2
 120.6 596.6 l 1
 119.2 598.1 l 2
 88.3 629.7 99.3 658.7 119.9 679.7 c 2
 121.5 681.3 l 1
 123.2 681.2 l 2
 181.1 680 215.5 676 263.1 676 c 0
 303.5 676 371.2 686 399.1 686 c 0
 605.8 686 651.1 555 651.1 486 c 0
 651.1 383.6 581.3 256 386.1 256 c 0
 363.7 256 346.3 257.3 335.2 258.6 c 1
327.2 263.2 m 2
 327.2 267.7 l 1
 331.7 267.1 l 2
 344.2 265.4 361.7 264 386.1 264 c 0
 576.9 264 643.1 387.4 643.1 486 c 0
 643.1 551.5 601.2 678 399.1 678 c 0
 372.3 678 304.6 668 263.1 668 c 0
 215.3 668 182.4 671.9 124.8 673.2 c 1
 107.1 654.9 97.9 631.9 124.2 604.4 c 1
 173.7 600.8 197 588.2 198.1 525.6 c 0
 199.4 445.8 200.1 407.1 200.1 321 c 0
 200.1 239.9 199.5 208.8 198.1 118.8 c 0
 196.9 52.9 187.8 46.4 124.2 40.7 c 1
 105.8 21.6 99.1 -1.3 124.8 -28.2 c 1
 174.2 -27.1 208.9 -23 264.1 -23 c 0
 318.4 -23 358 -26.9 416.4 -28.2 c 1
 434 -10 443.3 13 417.1 40.5 c 1
 352 43.9 329.9 51 329.1 95.4 c 0
 328.1 155 327.4 200.2 327.2 263.2 c 2
337.1 582.1 m 0
 335.8 502.3 335.2 415.8 335.1 343.5 c 1
 355.6 342.2 370.8 342 381.1 342 c 0
 466.7 342 502.1 377.8 502.1 468 c 0
 502.1 582 445 600 392.1 600 c 0
 335.7 600 337.4 588.5 337.1 582.1 c 0
329.1 582.3 m 0
 329.7 595.4 335.4 608 392.1 608 c 0
 447.9 608 510.1 586.3 510.1 468 c 0
 510.1 374.5 470.5 334 381.1 334 c 0
 370.1 334 351.4 334.4 330.8 335.8 c 2
 327.1 336 l 1
 327.1 339.8 l 2
 327.2 414.7 327.8 500.9 329.1 582.3 c 0
EndSplineSet
Position2: "'cpsp' Versalabstaende 1" dx=2 dy=0 dh=5 dv=0
Substitution2: "'c2sc' Versale nach Kapitaelchen 1" p.sc
EndChar

StartChar: Q
Encoding: 81 81 243
Width: 865
VWidth: 999
Flags: HMW
HStem: -209 57<557.283 686.202> -114 44<309.5 394.318> -10 34<359.846 507.261> 624 34<328.897 481.308>
VStem: 103 96<199.09 439.608> 636 96<197.944 451.367>
AnchorPoint: "mittelpunkt" 402 324 basechar 0
AnchorPoint: "top_rechts" 685 732 basechar 0
AnchorPoint: "komb_OR" 686 606 basechar 0
AnchorPoint: "top_akzent" 414 850 basechar 0
LayerCount: 2
Fore
SplineSet
397 634 m 0
 306 634 196 537 196 327 c 0
 196 135 314 14 436 14 c 0
 550 14 639 131 639 310 c 0
 639 512 529 634 397 634 c 0
729 329 m 0
 729 245 709 172.7 669.2 116 c 0
 624.8 52.6 558.9 9.3 476.6 -4.9 c 1
 443.2 -14.7 389.4 -39.6 339.1 -76.5 c 1
 346.3 -75.5 358 -75 364 -75 c 0
 474 -75 555 -157 643 -157 c 0
 672 -157 708 -142 730 -115 c 1
 747 -127 l 1
 708 -183 666 -209 603 -209 c 0
 473 -209 410 -114 317 -114 c 0
 302 -114 264 -127 244 -173 c 1
 205 -153 l 1
 240.4 -101.7 311.2 -43.1 388.5 -8.9 c 1
 231.1 3.6 106 123.7 106 310 c 0
 106 397.2 128.4 475.7 172.3 536 c 0
 227.1 611.2 310.7 658 410 658 c 0
 589 658 729 536 729 329 c 0
397 603 m 0
 326.9 603 227 523.1 227 327 c 0
 227 142.5 339.2 45 436 45 c 0
 527.5 45 608 142.8 608 310 c 0
 608 506 503.5 603 397 603 c 0
397 611 m 0
 509.2 611 616 508.7 616 310 c 0
 616 140.9 534.2 37 436 37 c 0
 333.6 37 219 139.4 219 327 c 0
 219 525.4 320.7 611 397 611 c 0
310.3 -24.9 m 0
 258.4 -58.3 213.7 -99.9 186.1 -139.9 c 2
 171.2 -161.5 l 1
 255.3 -204.7 l 1
 265.1 -182.2 l 2
 279.6 -148.8 308.3 -137.1 317.1 -137 c 0
 323.6 -137 331.8 -137.4 344 -140.2 c 0
 406.4 -154.5 474.8 -232 603 -232 c 0
 670.3 -232 722 -203.3 765.9 -140.2 c 2
 778.9 -121.4 l 1
 725.7 -83.8 l 1
 712.2 -100.5 l 2
 697 -119.2 668.2 -134 643 -134 c 0
 582.5 -134 520.9 -82 424.2 -59.2 c 2
 413.5 -56.7 l 1
 423.3 -51.7 l 2
 431.7 -47.4 446.1 -39.9 459.5 -34.5 c 0
 466.8 -31.6 471.5 -29.1 476.8 -28.2 c 0
 564.3 -13.9 638.1 31.6 688 102.8 c 0
 729.3 161.7 752 237.5 752 329 c 0
 752 544.3 604.5 681 410 681 c 0
 306.6 681 214.5 633 153.7 549.5 c 0
 108.2 487 83 404.9 83 310 c 0
 83 142.1 180.3 19.5 317.7 -19.7 c 1
 314.3 -22 313.9 -22.8 310.3 -24.9 c 0
299.5 -22.3 m 1
 167.3 22.6 75 145.2 75 310 c 0
 75 406.3 100.5 490.3 147.2 554.3 c 0
 209.5 639.8 304.1 689 410 689 c 0
 608.7 689 760 548.5 760 329 c 0
 760 236.2 737 158.6 694.6 98.2 c 0
 646.9 30.1 577.8 -14.9 496.2 -32.6 c 1
 486.2 -33.7 471.2 -39.1 460.4 -43.5 c 0
 451.1 -47.3 441.8 -51.7 436.7 -54.1 c 1
 530.3 -78.9 588.8 -126 643 -126 c 0
 665.3 -126 692.4 -112.1 706 -95.4 c 2
 724.2 -73 l 1
 790 -119.4 l 1
 772.4 -144.7 l 2
 727.3 -209.4 673 -240 603 -240 c 0
 471.8 -240 400 -161.2 342.3 -148 c 0
 330.9 -145.4 323 -145 317.1 -145 c 0
 312.5 -145.1 285.7 -154.9 272.4 -185.4 c 2
 259.3 -215.7 l 1
 159.4 -164.5 l 1
 179.5 -135.4 l 2
 206.6 -96.1 249.5 -55.5 299.5 -22.3 c 1
EndSplineSet
Position2: "'cpsp' Versalabstaende 1" dx=2 dy=0 dh=5 dv=0
Substitution2: "'c2sc' Versale nach Kapitaelchen 1" q.sc
Colour: ff9ccc
EndChar

StartChar: R
Encoding: 82 82 244
Width: 823
VWidth: 999
Flags: HW
HStem: -41 8<648.06 719.98> -36.3 8.1<121.485 261.488 266.605 419.58> -10 21<689.681 732.053> -5 23<130.201 197.986 335.927 410.935> 34 8<711.028 747.395> 256 8<335.189 408.849> 287 24<305.087 427.246> 296.4 19.2<304.069 379.946> 334 8<335.59 422.794> 600 8<120.642 126.495 350.521 429.02> 631 24<132.539 190.342 325.762 453.462> 668 8<126.659 324.135> 673.2 8<121.542 260.84> 678 8<347.943 452.411>
VStem: 192.1 8<87.6051 549.173> 223.1 81<34.9453 296.374 313.078 612.475> 327.2 8<77.1926 258.642 343.503 589.575> 502.1 8<423.656 513.543> 533.1 87<394.33 565.483> 643.1 8<447.301 521.301>
AnchorPoint: "mittelpunkt" 153.5 468 basechar 0
AnchorPoint: "top_rechts" 394.5 732 basechar 0
AnchorPoint: "unten_anhang" 23.5 -1 basechar 0
AnchorPoint: "unten_punkt" 133.5 -110 basechar 0
AnchorPoint: "top_akzent" 144.5 850 basechar 0
LayerCount: 2
Fore
SplineSet
304.1 296.4 m 1
 304.2 223.9 304.8 159.6 306.1 85 c 0
 307.1 27.3 338.1 21.5 407.1 18 c 1
 413.1 12 413.1 1 407.1 -5 c 1
 357.1 -4 319.9 0 264.1 0 c 0
 213.4 0 183.1 -4 134.1 -5 c 1
 128.1 1 128.1 12 134.1 18 c 1
 204.1 21 219.4 25.3 221.1 109 c 0
 222.8 192 223.1 238 223.1 321 c 0
 223.1 404 222.4 453 221.1 536 c 0
 219.8 618.7 204.1 624 134.1 627 c 1
 128.1 633 128.1 644 134.1 650 c 1
 184.1 649 212.8 645 263.1 645 c 0
 303.1 645 373.1 655 399.1 655 c 0
 584.1 655 620.1 545 620.1 486 c 0
 620.1 421.9 590.5 341.4 497.9 305.6 c 1
 622.5 88 l 1
 648.5 44.6 686.5 11 731.5 11 c 1
 735.5 3 736 3.9 732.5 -3 c 1
 722.5 -8 695.5 -10 680.5 -10 c 0
 620.5 -10 580.2 32.4 551.5 79 c 2
 444.5 253 l 2
 430.5 275.8 419.6 287 386.1 287 c 0
 352.2 287 325.7 289.8 304.1 296.4 c 1
306.1 583 m 0
 304.8 500 304.1 404.3 304.1 321.3 c 2
 304.1 315.6 l 1
 317.6 312.9 357.4 311 381.1 311 c 0
 478.1 311 533.1 360 533.1 468 c 0
 533.1 595 461.1 631 392.1 631 c 0
 320.1 631 307.3 611.8 306.1 583 c 0
386.1 264 m 0
 396.4 264 401.2 264.6 410.9 265 c 1
 410.9 265 421 247.3 424.9 241 c 2
 531.9 67 l 2
 560.1 21.1 605 -33 680.5 -33 c 0
 696.4 -33 728.6 -30.2 749.6 -20.2 c 1
 759.2 0.0999985 758.1 8 745.7 34 c 1
 701.8 34.5 675.5 44.4 642.3 99.8 c 1
 533.9 290.2 l 1
 529.8 297 l 1
 609.4 340.4 643.1 418.9 643.1 486 c 0
 643.1 551.5 601.2 678 399.1 678 c 0
 372.3 678 304.6 668 263.1 668 c 0
 215.3 668 182.4 671.9 124.8 673.2 c 1
 107.1 654.9 97.9 631.9 124.2 604.4 c 1
 173.7 600.8 197 588.2 198.1 525.6 c 0
 199.4 445.8 200.1 407.1 200.1 321 c 0
 200.1 239.9 199.5 208.8 198.1 118.8 c 0
 196.9 52.9 187.8 46.4 124.2 40.7 c 1
 105.8 21.6 99.1 -1.3 124.8 -28.2 c 1
 174.2 -27.1 208.9 -23 264.1 -23 c 0
 318.4 -23 358 -26.9 416.4 -28.2 c 1
 434 -10 443.3 13 417.1 40.5 c 1
 352 43.9 329.9 51 329.1 95.4 c 0
 328.1 155 327.4 200.2 327.2 263.2 c 2
 327.2 267.7 l 1
 331.7 267.1 l 2
 344.2 265.4 361.7 264 386.1 264 c 0
406.5 256.3 m 1
 401.1 256.1 391.7 256 386.1 256 c 0
 363.7 256 346.3 257.3 335.2 258.6 c 1
 335.5 196.3 336.1 153.8 337.1 95.5 c 0
 337.8 57 350.6 51.9 419 48.4 c 2
 420.6 48.3 l 1
 421.6 47.3 l 2
 452.5 16.4 442.5 -13.5 420.9 -35.1 c 2
 419.6 -36.3 l 1
 417.4 -36.3 l 1
 357.9 -35.1 318.5 -31 264.1 -31 c 0
 208.7 -31 174.9 -35.2 123.2 -36.3 c 1
 121.5 -36.3 l 1
 120.3 -35.1 l 2
 89.9 -4.7 97.6 25 119.2 47 c 2
 120.6 48.4 l 1
 122.1 48.5 l 2
 184.6 54.1 189 54.5 190.1 118.9 c 0
 191.5 208.9 192.1 239.9 192.1 321 c 0
 192.1 407.1 191.4 445.7 190.1 525.5 c 0
 189.1 584.9 170.7 593 122.7 596.4 c 2
 120.6 596.6 l 1
 119.2 598.1 l 2
 88.3 629.7 99.3 658.7 119.9 679.7 c 2
 121.5 681.3 l 1
 123.2 681.2 l 2
 181.1 680 215.5 676 263.1 676 c 0
 303.5 676 371.2 686 399.1 686 c 0
 605.8 686 651.1 555 651.1 486 c 0
 651.1 418.7 616.6 340.1 540.5 294.4 c 1
 649.1 103.9 l 1
 682.6 48.1 704.4 42 748.2 42 c 2
 750.7 42 l 1
 751.8 39.8 l 2
 765.5 12.4 768.6 -0.5 756.2 -25 c 2
 755.6 -26.1 l 1
 754.4 -26.7 l 2
 732.7 -37.6 697.8 -41 680.5 -41 c 0
 600.7 -41 553.8 16.1 525.1 62.8 c 2
 418.1 236.8 l 2
 413.7 243.9 409.5 250.8 406.5 256.3 c 1
337.1 582.1 m 0
 335.8 502.3 335.2 415.8 335.1 343.5 c 1
 355.6 342.2 370.8 342 381.1 342 c 0
 466.7 342 502.1 377.8 502.1 468 c 0
 502.1 582 445 600 392.1 600 c 0
 335.7 600 337.4 588.5 337.1 582.1 c 0
329.1 582.3 m 0
 329.7 595.4 335.4 608 392.1 608 c 0
 447.9 608 510.1 586.3 510.1 468 c 0
 510.1 374.5 470.5 334 381.1 334 c 0
 370.1 334 351.4 334.4 330.8 335.8 c 2
 327.1 336 l 1
 327.1 339.8 l 2
 327.2 414.7 327.8 500.9 329.1 582.3 c 0
EndSplineSet
Position2: "'cpsp' Versalabstaende 1" dx=2 dy=0 dh=5 dv=0
AlternateSubs2: "'aalt' Alle Alternativen zeigen 1" R.alt r.sc
Substitution2: "'ss02' Stilgruppe 2 1" R.alt
Substitution2: "'c2sc' Versale nach Kapitaelchen 1" r.sc
EndChar

StartChar: S
Encoding: 83 83 245
Width: 679
VWidth: 999
Flags: HMW
HStem: -10 36<252.424 413.131> 624 34<278.318 410.672>
VStem: 156 71.4<450.829 564.783> 465 84<101.804 225.334>
AnchorPoint: "mittelpunkt" 341.1 345 basechar 0
AnchorPoint: "top_rechts" 585.7 732 basechar 0
AnchorPoint: "unten_anhang" 328.5 2 basechar 0
AnchorPoint: "unten_punkt" 339 -110 basechar 0
AnchorPoint: "top_akzent" 336.9 850 basechar 0
LayerCount: 2
Fore
SplineSet
499.6 631 m 1
 510 578 514 550 517.5 502 c 1
 508.5 495 506.4 496.2 494.9 496 c 1
 474.9 562 434 634 336.9 634 c 0
 278 634 225.4 568 225.4 512 c 0
 225.4 414 363 375.8 411.9 355 c 0
 484 324.2 549 279.2 549 184 c 0
 549 120.4 512.5 58.8 455 22.8 c 0
 420.2 1.1 377.1 -10 331.6 -10 c 0
 242.9 -10 214.9 13 151.9 13 c 1
 139.9 62 136 88 132 165 c 1
 141.6 170.1 142.2 172 154.5 168 c 1
 176.6 68.5 246.6 16 340 16 c 0
 419.8 16 467 68 467 149 c 0
 467 263.8 363.4 285.6 300.4 313 c 0
 222.9 346.7 156 391.9 156 485 c 0
 156 591 244.9 658 346.3 658 c 0
 443.9 658 441.8 639 499.6 631 c 1
547.9 486.5 m 2
 519.4 464.1 503.6 465.2 475.1 464.6 c 2
 472.1 464.5 l 1
 471.2 467.4 l 2
 448.9 541.2 421.1 603 336.9 603 c 0
 296.8 603 256.4 549.5 256.4 512 c 0
 256.4 442.3 368.5 407.2 424 383.5 c 0
 502.6 350 580 293.9 580 184 c 0
 580 104.8 533.8 35.5 471.4 -3.5 c 0
 428.5 -30.3 385.5 -41 331.6 -41 c 0
 231.4 -41 203.1 -18 151.9 -18 c 2
 127.6 -18 l 1
 126.8 -14.9 l 2
 111.6 47.3 105.3 80.9 101 163.4 c 2
 100 183.1 l 1
 102.3 184.3 l 2
 126.9 197.3 149.1 202.3 178.8 192.7 c 2
 181 192 l 1
 181.5 189.8 l 2
 203 92.7 253.9 47 340 47 c 0
 405.7 47 436 85.2 436 149 c 0
 436 240.8 356.6 254.8 288 284.6 c 0
 205 320.7 125 376.1 125 485 c 0
 125 611 232.6 689 346.3 689 c 0
 465.3 689 460.2 667.8 523 659.1 c 2
 525.8 658.7 l 1
 526.4 655.9 l 2
 539 591.5 545.3 546.7 549.4 489.9 c 2
 549.6 487.8 l 1
 547.9 486.5 l 2
541.3 491.5 m 1
 537.2 546.2 531.3 588.5 519.1 651.5 c 1
 456.9 660.8 462.4 681 346.3 681 c 0
 235.9 681 133 605.7 133 485 c 0
 133 381 208.8 327.8 291.2 291.9 c 0
 357.2 263.2 444 247.4 444 149 c 0
 444 81.9 410.2 39 340 39 c 0
 251 39 197.1 86.5 174.2 185.8 c 1
 148.8 193.2 130.8 189.9 108.3 178.4 c 1
 109 163.8 l 2
 113.2 82.8 118.9 51.7 133.9 -10 c 1
 151.9 -10 l 2
 206 -10 232.9 -33 331.6 -33 c 0
 384.4 -33 424.2 -23.4 467.2 3.3 c 0
 527.5 41.4 572 107.8 572 184 c 0
 572 289.3 498.6 343.1 420.9 376.2 c 0
 368.2 398.7 248.4 434.2 248.4 512 c 0
 248.4 553.2 290.6 611 336.9 611 c 0
 425.3 611 455.5 546.2 478 472.6 c 1
 503.3 473.1 515.9 472.1 541.3 491.5 c 1
EndSplineSet
Position2: "'cpsp' Versalabstaende 1" dx=2 dy=0 dh=5 dv=0
Substitution2: "'c2sc' Versale nach Kapitaelchen 1" s.sc
EndChar

StartChar: T
Encoding: 84 84 246
Width: 778
VWidth: 999
Flags: HW
HStem: -36.2 8<248.565 398.318 403.47 552.666> -5 23<257.275 329.02 472.268 544.009> 40.6 7.9<247.947 290.54 509.168 553.512> 472 8<88.1446 138.104 641.662 679.371> 585 8<219.795 309.501 487.343 558.766> 616 29<191.491 345.807 454.714 588.43> 636 20G<651.142 668.642> 668 8<244.289 556.782> 679 8<111.56 126.521>
VStem: 96.1 24<502.292 534.308> 330.1 8<96.7115 546.974> 361.1 79<37.1564 608.315> 463.1 8<95.5955 554.056> 660.1 24<505.292 539.095> 694.1 8<589.056 666.158>
AnchorPoint: "mittelpunkt" 400.1 285 basechar 0
AnchorPoint: "top_rechts" 712.1 732 basechar 0
AnchorPoint: "unten_anhang" 401.1 10 basechar 0
AnchorPoint: "unten_punkt" 393.1 -110 basechar 0
AnchorPoint: "top_akzent" 400.1 850 basechar 0
LayerCount: 2
Fore
SplineSet
358.1 536 m 0
 356.4 597 348.1 616 311.1 616 c 2
 252.1 616 l 2
 186.1 616 140.1 580 120.1 500 c 1
 108.1 500 106.1 501 96.1 505 c 1
 107.1 553 117.1 608 121.1 653 c 0
 121.1 654 123.1 656 125.1 656 c 0
 163.1 653 281.1 645 358.1 645 c 2
 444.1 645 l 2
 523.1 645 634.1 653 668.1 656 c 0
 669.1 656 671.1 654 671.1 653 c 0
 672.1 608 677.1 554 684.1 508 c 1
 675.1 504 671.1 503 660.1 503 c 1
 643.1 580 596.1 616 521.1 616 c 2
 489.1 616 l 2
 453.1 616 445.1 600 443.1 536 c 0
 440.4 451.3 440.1 403 440.1 320 c 0
 440.1 237 441.1 191.5 443.1 109 c 0
 445.1 26 470.1 21 540.1 18 c 1
 546.1 12 546.1 1 540.1 -5 c 1
 490.1 -4 455.3 0 401.1 0 c 0
 346.5 0 310.1 -4 261.1 -5 c 1
 255.1 1 255.1 12 261.1 18 c 1
 331.1 21 356.1 26 358.1 109 c 0
 360.1 192 361.1 238 361.1 321 c 0
 361.1 404 360.4 453.7 358.1 536 c 0
327.1 535.1 m 0
 325.4 584.2 303.5 585 291.1 585 c 2
 252.1 585 l 2
 197.9 585 166.9 559.1 150.2 492.5 c 2
 144.3 469 l 1
 141.2 469 l 2
 101.8 469 84.8 476.2 63.7 484.6 c 2
 60 486.1 l 1
 65.9 511.9 l 2
 77.5 562.3 86.7 616.3 90.2 655.3 c 2
 90.6 659.7 l 1
 92.7 659.5 94.4 687 126.2 687 c 2
 126.4 687 l 1
 126.5 687 l 1
 169.3 683.6 297.9 676 358.1 676 c 2
 444.1 676 l 2
 511.3 676 634.7 684.2 666.6 687 c 1
 666.8 687 l 1
 667 687 l 2
 689.1 687 702.1 669.5 702.1 653.3 c 0
 703.3 599.7 710.7 539.3 717.9 492.3 c 2
 718.3 489.3 l 1
 715.6 488 l 2
 690.2 476.7 670.2 472 638.5 472 c 2
 635.2 472 l 1
 629.9 496.3 l 2
 615 563.9 580.6 585 521.1 585 c 0
 473.5 585 475.4 578.9 474.1 535 c 0
 471.5 447.3 471.1 399.9 471.1 320 c 0
 471.1 233.9 471.2 189.1 474.1 109.8 c 0
 476.1 54.6 483.9 51.5 551.3 48.5 c 2
 553.5 48.5 l 1
 554.6 47.4 l 2
 585.5 16.5 575.6 -13.4 553.9 -35.1 c 2
 552.7 -36.3 l 1
 539.5 -36 l 2
 484.5 -34.9 450.6 -31 401.1 -31 c 0
 340.5 -31 303.1 -35.2 250.3 -36.3 c 1
 248.6 -36.3 l 1
 247.4 -35.1 l 2
 217.2 -4.9 224.3 25 246.7 47.4 c 2
 247.8 48.5 l 1
 249.3 48.5 l 2
 314.4 51 325 56.5 327.1 109.3 c 0
 330.2 198.7 330.1 240.6 330.1 321 c 0
 330.1 407.2 329.8 456.1 327.1 535.1 c 0
335.1 535.4 m 0
 337.8 456.3 338.1 407.2 338.1 321 c 0
 338.1 240.6 338.2 198.5 335.1 109 c 0
 332.9 53.1 317 43.3 251.2 40.6 c 1
 233 21.7 226.1 -1.3 251.8 -28.2 c 1
 302.2 -27.1 340.8 -23 401.1 -23 c 0
 451 -23 485.1 -26.9 539.7 -28 c 2
 549.5 -28.2 l 1
 567.2 -9.9 576.3 13.1 550.1 40.6 c 1
 482.1 43.7 468.2 51 466.1 109.5 c 0
 463.2 188.9 463.1 234 463.1 320 c 0
 463.1 399.9 463.5 447.5 466.1 535.3 c 0
 467.4 580.3 470 593 521.1 593 c 0
 583.4 593 622.1 568.9 637.7 498 c 2
 641.7 480 l 1
 668.4 480.3 685.6 483.9 709.5 494.1 c 1
 702.5 540.6 695.3 599.8 694.1 653.3 c 0
 694.1 664.5 684 680.5 667.3 679 c 0
 635.1 676.2 511.9 668 444.1 668 c 2
 358.1 668 l 2
 297.4 668 169.1 675.6 125.9 679 c 1
 103.2 678.2 100 660.6 98.2 654.4 c 1
 94.7 615.3 85.3 560.7 73.7 510.1 c 2
 69.3 491 l 1
 88.2 483.5 102 477.5 138.1 477 c 1
 142.5 494.4 l 2
 159.7 563.3 194.1 593 252.1 593 c 2
 291.1 593 l 2
 306.3 593 333.3 588.6 335.1 535.4 c 0
EndSplineSet
Position2: "'cpsp' Versalabstaende 1" dx=2 dy=0 dh=5 dv=0
Substitution2: "'c2sc' Versale nach Kapitaelchen 1" t.sc
EndChar

StartChar: U
Encoding: 85 85 247
Width: 868
VWidth: 999
Flags: HW
HStem: -41 8<381.928 481.284> -10 31<385.389 526.514> 44 8<420.308 489.345> 596 7.9<92.3432 137.028 330.924 377.765 535.343 580.027 729.924 776.766> 627 23<101.496 169.173 300.704 368.23 540.496 609.801 698.785 756.23> 668 8<97.6812 371.687 540.684 770.657> 673 8<94.0372 233.93 238.328 375.748 537.037 653.547 656.81 774.748>
VStem: 163.4 8<186.349 564.094> 194.4 81<124.125 612.583> 298.4 8<198.611 563.371> 605.4 8<205.473 569.745> 636.4 39<138.939 611.051> 698.4 8<211.759 569.221>
AnchorPoint: "mittelpunkt" 270.3 321 basechar 0
AnchorPoint: "unten_anhang" 262.3 4 basechar 0
AnchorPoint: "unten_punkt" 262.3 -110 basechar 0
AnchorPoint: "top_akzent" 280.3 850 basechar 0
LayerCount: 2
Fore
SplineSet
275.4 269 m 0
 275.4 204 279.4 123 328.4 76 c 0
 358.5 47.1 399.4 21 447.4 21 c 0
 616.4 21 636.4 165 636.4 277 c 2
 636.4 536 l 2
 636.4 619 619.4 620 544.4 627 c 1
 538.4 633 538.4 644 544.4 650 c 1
 594.4 649 612.1 645 655.4 645 c 0
 693.3 645 703.4 649 752.4 650 c 1
 758.4 644 758.4 633 752.4 627 c 1
 692.4 620 675.4 619 675.4 536 c 2
 675.4 295 l 2
 675.4 117 631.4 -10 426.4 -10 c 0
 336.4 -10 194.4 32 194.4 236 c 0
 194.4 269.2 195.4 278 195.4 321 c 0
 195.4 404 194.4 453 192.4 536 c 0
 190.4 619 175.4 624 105.4 627 c 1
 99.4 633 99.4 644 105.4 650 c 1
 155.4 649 184.1 645 234.4 645 c 0
 285.1 645 315.4 649 364.4 650 c 1
 370.4 644 370.4 633 364.4 627 c 1
 294.4 624 279.9 619 277.4 536 c 0
 275.6 475.1 274.8 433.1 274.5 383 c 0
 274.3 352.5 275.4 292.1 275.4 269 c 0
613.4 525.4 m 1
 613.4 277 l 2
 613.4 249.1 612 220.2 607.8 192.9 c 0
 595 110.3 559.6 44 447.4 44 c 0
 407.6 44 372.2 65.8 344.3 92.6 c 0
 304.2 131.1 298.4 203.7 298.4 269 c 0
 298.4 292.9 297.3 352.5 297.5 382.9 c 0
 297.8 432.9 297.4 464.5 299.2 525.4 c 0
 301.1 602.3 314.6 601.4 374.6 603.9 c 1
 392.9 623.5 388.3 655.9 373 673 c 1
 328.4 671.9 281.2 668 236.2 668 c 0
 188 668 135.9 672 96.6 673 c 1
 77.6 651.8 80.3 619.7 95 603.9 c 1
 159.3 601.2 168.6 598.6 170.4 525.4 c 0
 172.4 442.4 172.4 403.7 172.4 321 c 0
 172.4 278.6 171.4 269.8 171.4 236 c 0
 171.4 16.4 329.7 -33 426.4 -33 c 0
 563.7 -33 640.2 24.3 673.8 116.6 c 0
 692.7 168.6 698.4 228.9 698.4 295 c 2
 698.2 525.4 l 1
 700.1 602.4 713.6 601.4 773.6 603.9 c 1
 791.9 623.5 787.3 655.9 772 673 c 1
 726.5 671.8 689.4 668 655.2 668 c 0
 619.9 668 579.2 672 539.6 673 c 1
 520.6 651.8 523.3 619.7 538 603.9 c 1
 602.3 601.2 611.6 598.6 613.4 525.4 c 1
605.4 525.3 m 1
 603.7 597 599.8 593.3 536 596 c 2
 534.5 596.1 l 1
 533.4 597.2 l 2
 512.9 617.4 512.3 656.9 535.1 679.8 c 2
 536.3 681 l 1
 538 681 l 2
 579.7 680 619.9 676 655.2 676 c 0
 689.1 676 727.8 679.9 773.6 681 c 2
 775.3 681 l 1
 776.5 679.8 l 2
 796.2 660 801.6 620.3 778.2 597.2 c 2
 777.1 596.1 l 1
 775.5 596 l 2
 714.5 593.4 708 599.8 706.2 525.3 c 1
 706.4 295 l 2
 706.4 228.4 700.7 167.2 681.3 113.8 c 0
 646.5 18.2 566.2 -41 426.4 -41 c 0
 327.3 -41 163.4 10.9 163.4 236 c 0
 163.4 270 164.4 278.8 164.4 321 c 0
 164.4 403.8 164.4 442.4 162.4 525.3 c 0
 160.7 597 156.8 593.3 93 596 c 2
 91.5 596.1 l 1
 90.4 597.2 l 2
 69.9 617.4 69.3 656.9 92.1 679.8 c 2
 93.3 681 l 1
 95 681 l 2
 136.5 680 187.7 676 236.2 676 c 0
 281.4 676 329.5 680 374.6 681 c 2
 376.3 681 l 1
 377.5 679.8 l 2
 397.2 660 402.6 620.3 379.2 597.2 c 2
 378.1 596.1 l 1
 376.5 596 l 2
 315.5 593.4 309 599.9 307.2 525.3 c 0
 305.4 464.4 305.8 432.9 305.5 382.8 c 0
 305.3 352.6 306.4 293.1 306.4 269 c 0
 306.4 203.7 312.9 133.8 349.8 98.4 c 0
 376.9 72.4 410.7 52 447.4 52 c 0
 554.9 52 587.3 113.2 599.9 194.1 c 0
 604.1 220.8 605.4 249.3 605.4 277 c 2
 605.4 525.3 l 1
EndSplineSet
Position2: "'cpsp' Versalabstaende 1" dx=2 dy=0 dh=5 dv=0
Substitution2: "'c2sc' Versale nach Kapitaelchen 1" u.sc
EndChar

StartChar: V
Encoding: 86 86 248
Width: 877
VWidth: 999
Flags: HW
HStem: -43 8<412.067 446.501> -12 21G<424.541 435.041> 597.1 7.9<95.7868 123.864 318.814 347.351 761.709 782.446> 627 23<105.442 150.441 290.961 337.408 567.674 615.903 730.969 772.408> 668 8<101.343 341.462 563.872 776.902> 673.2 8<96.0528 210.861 214.509 346.106 559.053 679.635 681.588 781.058>
AnchorPoint: "mittelpunkt" 272.8 474 basechar 0
AnchorPoint: "top_rechts" 617.8 732 basechar 0
AnchorPoint: "unten_anhang" 256.8 3 basechar 0
AnchorPoint: "unten_punkt" 256.8 -110 basechar 0
AnchorPoint: "top_akzent" 274.8 850 basechar 0
LayerCount: 2
Fore
SplineSet
571.5 627 m 1
 565.5 633 565.5 644 571.5 650 c 1
 618.5 649 657.5 645 680.5 645 c 0
 703.5 645 728.5 649 768.5 650 c 1
 774.5 644 774.5 633 768.5 627 c 1
 702.5 619 679.4 568.3 660.2 521 c 2
 453.5 11 l 2
 447.7 -3.3 440.5 -12 429.5 -12 c 0
 419.5 -12 412.5 -4.6 406.5 11 c 2
 209 523 l 2
 180.5 596 166.5 622 109.5 627 c 1
 103.5 633 102.5 644 108.5 650 c 1
 155.5 649 172.5 645 212.5 645 c 0
 251.5 645 286.5 649 333.5 650 c 1
 339.5 644 339.5 633 333.5 627 c 1
 265.5 620 263.8 593.5 287 534 c 2
 446 127 l 1
 455.9 103.3 l 1
 466.7 127 l 1
 624.5 528 l 2
 645.9 582.4 645.5 622 571.5 627 c 1
560.7 681.2 m 2
 611.9 680.1 662.5 676 680.5 676 c 0
 702.2 676 742.6 680.4 779.3 681.3 c 2
 781.1 681.3 l 1
 782.3 680.1 l 2
 811.7 650.7 806.4 621 783.9 598.5 c 2
 782.9 597.5 l 1
 781.5 597.3 l 2
 723.4 590.3 709.3 559.6 688.9 509.4 c 2
 482.3 -0.6 l 2
 473.5 -22.4 456 -43 429.5 -43 c 0
 394.5 -43 382.4 -12.6 377.6 -0.2 c 2
 180.1 511.9 l 2
 150.5 588.5 147.1 592.6 97 597 c 2
 95.6 597.1 l 1
 94.6 598.1 l 2
 64.2 628.5 73.2 658.5 94.8 680.1 c 2
 96 681.3 l 1
 98.4 681.2 l 2
 152.7 680 177 676 212.5 676 c 0
 254.5 676 297.1 680.2 344.4 681.2 c 2
 346.1 681.3 l 1
 347.3 680.1 l 2
 376.8 650.6 371.1 620.7 348.7 598.3 c 2
 347.6 597.2 l 1
 346 597.1 l 2
 332.8 596.7 324.7 595.6 319.4 593.5 c 0
 305.7 588.2 304.5 574.2 320.6 533.1 c 2
 456.4 185.6 l 1
 595.7 539.4 l 2
 601.2 553.5 603.7 562.5 604.3 569.3 c 0
 605.8 586.6 595.5 594.1 559.3 596.8 c 2
 557.8 596.9 l 1
 556.8 597.9 l 2
 525.8 628.9 536.5 658.8 557.8 680.1 c 2
 559 681.3 l 1
 560.7 681.2 l 2
562.2 673.2 m 1
 544.7 655 535.2 632.1 561.4 604.6 c 1
 596 601.7 614.4 592.9 612.3 568.6 c 0
 611.6 560.5 608.7 550.7 603.1 536.4 c 2
 456.4 163.7 l 1
 313.1 530.2 l 2
 297.7 569.7 295 592.5 316.6 600.9 c 0
 323.1 603.4 331 604.7 344.1 605.1 c 1
 362.1 623.9 368 646.9 342.8 673.2 c 1
 297.8 672.1 254.3 668 212.5 668 c 0
 176.5 668 152.9 671.9 99.2 673.2 c 1
 81.6 654.9 73.3 632 99.2 604.8 c 1
 150.4 600.1 158.1 590.9 187.5 514.8 c 2
 385.1 2.7 l 2
 390 -9.9 400.4 -35 429.5 -35 c 0
 451.2 -35 466.6 -18 474.9 2.4 c 2
 681.5 512.4 l 2
 701.6 562 717.2 596.8 779.2 605.1 c 1
 797.5 624.2 803 646.9 777.8 673.2 c 1
 743.1 672.2 702.5 668 680.5 668 c 0
 661.6 668 614.1 672 562.2 673.2 c 1
EndSplineSet
Position2: "'cpsp' Versalabstaende 1" dx=2 dy=0 dh=5 dv=0
Substitution2: "'c2sc' Versale nach Kapitaelchen 1" v.sc
AlternateSubs2: "'aalt' Alle Alternativen zeigen 1" V.alt
EndChar

StartChar: W
Encoding: 87 87 249
Width: 1178
VWidth: 999
Flags: HW
HStem: -43 8<386.095 424.678 729.22 768.11> -12 21G<398.558 413.058 742.558 756.058> 627 23<105.191 153.439 279.066 318.925 449.191 491.496 636.442 678.925 868.191 917.882 1024.84 1072.93> 668 8<101.24 323.335 445.251 682.968 864.188 1077.44> 673.3 8<96.6809 200.388 204.2 327.507 440.6 551.384 555.083 687.624 859.607 980.943 983.306 1081.55>
VStem: 533.4 7.9<451.268 486.31>
AnchorPoint: "top_rechts" 1068 732 basechar 0
AnchorPoint: "unten_anhang" 384 0 basechar 0
AnchorPoint: "unten_punkt" 568 -110 basechar 0
AnchorPoint: "top_akzent" 539 850 basechar 0
LayerCount: 2
Fore
SplineSet
938.1 565 m 2
 953 607.7 913.1 624 872.1 627 c 1
 866.1 633 866.1 644 872.1 650 c 1
 912.1 649 956.1 645 982.1 645 c 0
 1008.1 645 1032.1 649 1069.1 650 c 1
 1075.1 644 1075.1 633 1069.1 627 c 1
 1014.1 624 985.1 588 973.1 553 c 2
 776.1 11 l 2
 771.1 -4 763.1 -12 749.1 -12 c 0
 736.1 -12 724.1 -5 718.1 12 c 2
 601.1 367 l 2
 596.5 380.8 591.1 395 587.1 395 c 0
 582.1 395 577.1 382 573.1 370 c 2
 434.1 12 l 2
 429.1 -2 420.1 -12 406.1 -12 c 0
 391.1 -12 380.1 -4 375.1 12 c 2
 193.1 556 l 2
 175.1 609.7 154.1 624 109.1 627 c 1
 103.1 633 103.1 644 109.1 650 c 1
 149.1 649 162.1 645 202.1 645 c 0
 241.1 645 282.1 649 315.1 650 c 1
 321.1 644 321.1 633 315.1 627 c 1
 280.1 625 257.7 607.2 269.1 572 c 2
 419.1 111 l 1
 427.3 87 l 1
 437.1 111 l 1
 563.1 442 l 2
 564.7 446.2 565.1 458.2 565.1 467 c 0
 565.1 476 559 496 555.1 508 c 2
 540.1 554 l 2
 531.7 579.9 506.1 624 453.1 627 c 1
 447.1 633 447.1 644 453.1 650 c 1
 493.1 649 514.1 645 553.1 645 c 0
 593.1 645 628.1 649 675.1 650 c 1
 681.1 644 681.1 633 675.1 627 c 1
 641.1 624 601.7 607.9 619.1 554 c 2
 763.1 109 l 1
 771.1 85 l 1
 779.1 109 l 1
 938.1 565 l 2
908.8 575.2 m 2
 913.2 587.9 899.8 593.9 859.8 596.8 c 2
 858.3 596.9 l 1
 857.2 598 l 2
 826.3 628.9 837 658.8 858.3 680.1 c 2
 859.5 681.3 l 1
 861.3 681.3 l 1
 907.1 680.2 959.7 676 982.1 676 c 0
 1008.3 676 1044 680.3 1079.8 681.3 c 2
 1081.6 681.3 l 1
 1082.8 680.1 l 2
 1112.9 650 1106.2 620.3 1083.7 597.8 c 2
 1082.6 596.7 l 1
 1081.1 596.6 l 2
 1030.9 593.9 1012.5 572.5 1002.3 542.7 c 2
 805.3 0.8 l 2
 796.9 -24.5 776.2 -43 749.1 -43 c 0
 718.1 -43 696.9 -21.4 688.7 2 c 2
 585.3 315.8 l 1
 463.3 1.7 l 2
 452.9 -25.9 432.5 -43 406.1 -43 c 0
 372.5 -43 352.2 -18.8 345.6 2.5 c 2
 163.7 546.2 l 2
 146 599.1 138.7 593.9 96.9 596.7 c 2
 95.4 596.8 l 1
 94.3 597.9 l 2
 63 629.2 74.5 659.3 95.3 680.1 c 2
 96.5 681.3 l 1
 98.3 681.3 l 1
 146.2 680.1 166.7 676 202.1 676 c 0
 247.9 676 288.5 680.2 325.8 681.3 c 2
 327.5 681.4 l 1
 328.7 680.2 l 2
 358.8 650.1 352.2 620.3 329.7 597.8 c 2
 328.6 596.7 l 1
 327.1 596.6 l 2
 315.5 595.9 307.5 595.9 302.9 594.5 c 0
 297 592.7 295.7 590.1 298.5 581.6 c 2
 429.6 178.7 l 1
 533.4 451.3 l 1
 535.8 471.8 530.9 482 525.6 498.4 c 2
 510.6 544.4 l 2
 501.2 573.2 480 594.4 441 596.6 c 2
 439.5 596.7 l 1
 438.4 597.8 l 2
 407.4 628.8 417.8 658.6 439.3 680.1 c 2
 440.5 681.3 l 1
 442.3 681.3 l 1
 490.3 680.1 517.6 676 553.1 676 c 0
 596.3 676 638.4 680.2 685.9 681.2 c 2
 687.6 681.3 l 1
 688.8 680.1 l 2
 718.9 650 711.8 619.9 690 598.1 c 2
 689 597.1 l 1
 687.6 597 l 2
 673.9 595.8 664 595 657.4 592.9 c 0
 646.1 589.3 642.4 582.8 648.6 563.5 c 2
 771.9 182.5 l 1
 908.8 575.2 l 2
916.3 572.6 m 2
 771.6 157.4 l 1
 640.9 561.1 l 2
 634 582.3 638.8 595.4 655 600.5 c 0
 662.7 602.9 671.7 603.6 685.4 604.8 c 1
 703.2 623.3 710.1 646.4 684.4 673.2 c 1
 639.1 672.1 596.2 668 553.1 668 c 0
 517.2 668 491.5 671.9 443.8 673.2 c 1
 426.2 655 416.8 632 443 604.5 c 1
 483.9 601.3 508 578.2 518.2 546.9 c 2
 533.2 500.9 l 2
 538.4 484.8 544.1 471.7 541.3 449.8 c 2
 541.2 449.3 l 1
 429.1 154.6 l 1
 290.9 579.1 l 2
 287.5 589.6 289.8 598.8 300.6 602.1 c 0
 306.6 603.9 313.8 604 325.1 604.5 c 1
 343.4 623.6 349.9 646.5 324.3 673.3 c 1
 289.5 672.2 247.5 668 202.1 668 c 0
 166.2 668 147.3 671.9 99.8 673.2 c 1
 82.8 655.5 72.4 632.4 98.9 604.6 c 1
 139.3 602 152.9 603.5 171.2 548.7 c 2
 353.2 4.9 l 2
 359.1 -14.1 376.8 -35 406.1 -35 c 0
 428.4 -35 446.3 -20.9 455.8 4.5 c 2
 585.9 339.5 l 1
 696.3 4.6 l 2
 703.7 -16.2 722.3 -35 749.1 -35 c 0
 772.1 -35 790.1 -19.6 797.8 3.4 c 2
 994.7 545.3 l 2
 1005.6 577 1025.9 600.9 1079.1 604.5 c 1
 1097.4 623.6 1104 646.4 1078.3 673.2 c 1
 1044.7 672.2 1008.6 668 982.1 668 c 0
 958.7 668 909.2 671.9 862.8 673.2 c 1
 845.3 655 835.8 632.1 861.9 604.7 c 1
 895.3 602.1 924.6 596.3 916.3 572.6 c 2
EndSplineSet
Substitution2: "'ss05' Stilgruppe 5" W.alt
Position2: "'cpsp' Versalabstaende 1" dx=2 dy=0 dh=5 dv=0
Substitution2: "'c2sc' Versale nach Kapitaelchen 1" w.sc
AlternateSubs2: "'aalt' Alle Alternativen zeigen 1" uniE0E9
EndChar

StartChar: X
Encoding: 88 88 250
Width: 870
VWidth: 999
Flags: HMW
HStem: -2 29<95.9953 156.013 269.995 291.995 511.995 534.995 692.777 741.995> 618 29<108.995 156.683 524.995 559.995 657.226 720.995>
DStem2: 220.995 104 254.995 77 0.593199 0.805056<-37.1488 242.53 346.726 618.122> 292.995 572 353.995 344 0.578967 -0.815351<-37.4198 228.231 307.823 589.683>
AnchorPoint: "mittelpunkt" 261.3 325 basechar 0
AnchorPoint: "top_rechts" 624.3 732 basechar 0
AnchorPoint: "unten_anhang" 37.3 0 basechar 0
AnchorPoint: "unten_punkt" 242.3 -110 basechar 0
AnchorPoint: "top_akzent" 267.3 850 basechar 0
LayerCount: 2
Fore
SplineSet
648 102 m 2
 690.4 43.7 719 21 761 18 c 1
 767 12 768 1 762 -5 c 1
 732 -4 699 0 660 0 c 0
 620 0 586 -4 546 -5 c 1
 540 1 540 12 546 18 c 1
 602 21 590.8 44.9 562.5 85.2 c 2
 439 261 l 2
 431.7 271.4 426 277 422 277 c 0
 419 277 409.5 268.4 402 258 c 2
 270 73 l 2
 245.8 39 259.7 21 304 18 c 1
 310 12 310 1 304 -5 c 1
 264 -4 222 0 199 0 c 0
 176 0 139 -4 109 -5 c 1
 103 1 103 12 109 18 c 1
 153.7 22.3 200.7 47.1 235 93 c 2
 383 291 l 2
 389.8 300.1 391 308 391 314 c 0
 391 324 389.3 326.5 377 344 c 2
 234.7 547 l 2
 193.5 605.7 162 624 120 627 c 1
 114 633 113 644 119 650 c 1
 149 649 182 645 221 645 c 0
 261 645 295 649 335 650 c 1
 341 644 341 633 335 627 c 1
 279 624 290.3 599.8 318.5 559.8 c 1
 429 396 l 2
 436.7 384.5 442 379 445 379 c 0
 449 379 455.5 383.4 465 397 c 2
 588 572 l 2
 611.5 605.4 598.3 624 554 627 c 1
 548 633 548 644 554 650 c 1
 594 649 636 645 659 645 c 0
 682 645 719 649 749 650 c 1
 755 644 755 633 749 627 c 1
 704.3 622.7 657.7 596.9 623 552 c 2
 486 375 l 2
 474.5 360.1 475 355 475 346 c 0
 475 338.3 485.2 325.4 495 312 c 2
 648 102 l 2
674.5 118.2 m 2
 722.3 52.6 734.1 51.1 772.8 48.3 c 2
 774.7 48.1 l 1
 775.8 47 l 2
 806.2 16.6 797.6 -13.2 775.6 -35.2 c 2
 774.4 -36.4 l 1
 772.7 -36.4 l 2
 732.7 -35.1 697.9 -31 660 -31 c 0
 615.2 -31 578 -35.2 535.2 -36.3 c 2
 533.5 -36.3 l 1
 532.3 -35.1 l 2
 502.3 -5.1 509 24.8 531.4 47.2 c 2
 532.4 48.3 l 1
 534.5 48.4 l 2
 543.9 49.3 544.8 50.2 546 51 c 0
 547.4 52 545.5 55.5 537.1 67.4 c 2
 421.5 232 l 1
 299.2 63 l 2
 296.3 58.9 296.3 57.5 296.2 56.6 c 0
 295.7 52.1 304 49.1 316.2 48.3 c 2
 317.7 48.2 l 1
 318.7 47.1 l 2
 349.7 16.1 339 -13.8 317.7 -35.1 c 2
 316.5 -36.3 l 1
 314.8 -36.3 l 2
 269.5 -35.2 217.9 -31 199 -31 c 0
 172.9 -31 128.6 -35.4 98.3 -36.4 c 2
 96.6 -36.4 l 1
 95.4 -35.2 l 2
 65.7 -5.5 71.3 24.2 93.9 46.8 c 2
 95 47.8 l 1
 96.9 48 l 2
 143.9 52.7 179.6 71 210.2 111.6 c 2
 354.8 303.9 l 2
 360.3 311.2 356 319.9 351.6 326.2 c 2
 209.3 529.2 l 2
 164.9 592.5 148.6 593.9 107.7 596.8 c 2
 106.3 596.9 l 1
 105.2 598 l 2
 74.9 628.3 83.4 657.9 105 679.9 c 2
 106.6 681.4 l 1
 108.3 681.4 l 2
 148.3 680.1 183.1 676 221 676 c 0
 265.8 676 303 680.2 345.8 681.3 c 2
 347.5 681.3 l 1
 348.7 680.1 l 2
 378.7 650.1 372 620.2 349.6 597.8 c 2
 348.4 596.6 l 1
 346.8 596.6 l 2
 338 596.6 335.9 595.4 334.9 594.8 c 0
 333.7 594 335.3 589.7 344 577.4 c 2
 446.8 425 l 1
 562.6 589.8 l 2
 566.2 594.9 565.3 594.8 565.3 595.1 c 0
 562.9 596.6 550.5 596.1 541.8 596.7 c 2
 540.3 596.8 l 1
 539.2 597.9 l 2
 508.3 628.8 518.9 658.7 540.3 680.1 c 2
 541.5 681.3 l 1
 543.2 681.3 l 2
 588.5 680.2 640.1 676 659 676 c 0
 685.1 676 729.4 680.4 759.7 681.4 c 2
 761.4 681.4 l 1
 762.6 680.2 l 2
 792.3 650.5 786.6 620.8 764 598.2 c 2
 763 597.2 l 1
 761.6 597.1 l 2
 715.4 592.7 679 573.6 647.5 533 c 2
 515.7 363.1 l 2
 506.4 351.1 512 341.4 520.1 330.3 c 2
 674.5 118.2 l 2
666 116.3 m 2
 513.6 325.5 l 2
 505.5 336.7 496.5 351.3 509.3 367.9 c 2
 641.2 537.9 l 2
 673.4 579.5 711.1 599.9 759.4 604.9 c 1
 777.8 624.1 783.6 646.8 758.2 673.3 c 1
 730.1 672.3 685.2 668 659 668 c 0
 639.4 668 590.4 672 544.7 673.2 c 1
 527.1 655 517.7 632 543.8 604.6 c 1
 549.8 604.3 574 608.3 573.3 594.7 c 0
 573.2 592.6 572.8 590.3 569.2 585.2 c 2
 446.7 410.9 l 1
 337.4 572.8 l 2
 331.8 580.8 319.6 594.4 330.5 601.5 c 0
 333.3 603.3 335.8 604.3 345.1 604.6 c 1
 363.2 623.5 369.8 646.5 344.3 673.2 c 1
 304 672.1 265.6 668 221 668 c 0
 183.2 668 149.2 671.9 109.8 673.3 c 1
 91.6 654.4 84 631.7 109.8 604.7 c 1
 150.2 601.7 171.1 597.5 215.8 533.8 c 2
 358.2 330.8 l 2
 362.7 324.3 370.4 311.4 361.2 299.1 c 2
 216.6 106.8 l 2
 185 64.8 147.1 45.1 98.6 40.1 c 1
 80.2 20.9 74.4 -1.8 99.8 -28.3 c 1
 127.9 -27.3 172.8 -23 199 -23 c 0
 218.6 -23 267.6 -27 313.3 -28.2 c 1
 330.8 -10 340.4 12.8 314.1 40.4 c 1
 306 41.1 286.5 42.8 288.3 57.6 c 0
 288.6 59.7 289 62.4 292.7 67.6 c 2
 421.6 245.8 l 1
 543.7 72 l 2
 548.9 64.6 561.4 51.7 550.5 44.4 c 0
 547.7 42.5 546 41.7 536 40.6 c 1
 517.7 21.5 511.2 -1.5 536.7 -28.2 c 1
 577 -27.1 615.4 -23 660 -23 c 0
 697.8 -23 731.8 -26.9 771.2 -28.3 c 1
 789.1 -9.7 797.1 13.1 771.2 40.3 c 1
 731.6 43.3 714.3 50 666 116.3 c 2
EndSplineSet
Position2: "'cpsp' Versalabstaende 1" dx=2 dy=0 dh=5 dv=0
Substitution2: "'c2sc' Versale nach Kapitaelchen 1" x.sc
EndChar

StartChar: Y
Encoding: 89 89 251
Width: 813
VWidth: 999
Flags: HW
HStem: -36.3 8<265.806 415.561 420.835 569.917> -5 23<274.518 348.951 486.792 561.252> 40.6 7.9<265.241 318.752 519.194 570.691> 596.8 7.9<95.9098 136.651 325.376 351.745 510.246 533.378> 627 23<105.286 158.213 284.63 342.252 516.746 568.889 649.772 708.024> 668 8<100.319 346.469 512.417 712.956> 673.3 8.1<95.9738 218.554 222.501 350.902 508.759 610.497 612.682 715.839>
VStem: 344.4 8<68.0039 286.845> 375.4 85<32.0765 325.991> 483.4 8<78.6503 314.015>
AnchorPoint: "unten_anhang" 199.6 1 basechar 0
AnchorPoint: "unten_punkt" 201.6 -110 basechar 0
AnchorPoint: "top_akzent" 201.6 850 basechar 0
LayerCount: 2
Fore
SplineSet
460.4 109 m 2
 461.9 28 477.4 21 557.4 18 c 1
 563.4 12 563.4 1 557.4 -5 c 1
 507.4 -4 472.6 0 418.4 0 c 0
 363.8 0 327.4 -4 278.4 -5 c 1
 272.4 1 272.4 12 278.4 18 c 1
 358.4 21 373.8 28 375.4 109 c 2
 378.4 259 l 2
 378.4 296 371.9 296.5 354.4 326 c 2
 223 547 l 2
 182.4 615.4 151.4 624 109.4 627 c 1
 103.4 633 102.4 644 108.4 650 c 1
 138.4 649 181.4 645 220.4 645 c 0
 260.4 645 298.4 649 338.4 650 c 1
 344.4 644 344.4 633 338.4 627 c 1
 282.4 624 268.2 618.6 292.4 576 c 2
 418.6 354 l 2
 427.4 338 439.4 335 448.4 352 c 2
 567.4 576 l 2
 589.7 618.1 564.7 624 520.4 627 c 1
 514.4 633 514.4 643 520.4 649 c 1
 560.4 648 588.4 645 611.4 645 c 0
 634.4 645 674.4 648 704.4 649 c 1
 710.4 643 710.4 633 704.4 627 c 1
 659.7 622.7 625.6 615.7 597.6 565 c 2
 469.9 334 l 2
 463 321.5 457.4 307.5 457.4 267.7 c 2
 460.4 109 l 2
491.4 119.1 m 2
 493.2 43.8 502.7 51.8 568.6 48.6 c 2
 570.7 48.5 l 1
 571.8 47.4 l 2
 602.7 16.5 592.9 -13.4 571.2 -35.1 c 2
 570 -36.3 l 1
 568.3 -36.3 l 1
 509.7 -35.1 470.9 -31 418.4 -31 c 0
 357.8 -31 320.3 -35.2 267.5 -36.3 c 1
 265.8 -36.3 l 1
 264.6 -35.1 l 2
 234.3 -4.8 241.6 25 264 47.4 c 2
 265.1 48.5 l 1
 266.6 48.6 l 1
 349.5 51.7 342.6 48.3 344.4 119.1 c 2
 347.4 239 l 2
 347.4 277 346.3 279.1 327.8 310.2 c 2
 196.4 531.2 l 2
 155.1 600.7 140.7 593.8 97.6 596.8 c 2
 95.6 596.9 l 1
 94.6 598 l 2
 65.4 627.2 71.8 656.7 94.4 679.8 c 2
 96 681.4 l 1
 97.7 681.4 l 2
 137.5 680.1 181.9 676 220.4 676 c 0
 265.6 676 306.4 680.2 349.2 681.3 c 2
 350.9 681.3 l 1
 352.1 680.1 l 2
 382.6 649.6 374.8 619.6 353 597.8 c 2
 351.7 596.5 l 1
 339.7 597 l 2
 330.1 597.4 327.2 596.1 325.3 595.1 c 0
 319 591.8 323.1 582.6 328.2 573.7 c 2
 433.6 390.2 l 1
 533.2 577.2 l 2
 536.1 582.6 536.7 585.3 536.9 587.2 c 0
 537.3 591.5 533.9 595.1 518.3 596.1 c 2
 506.7 596.8 l 1
 505.6 597.9 l 2
 474.8 628.7 485.8 658.2 506.7 679.1 c 2
 507.9 680.3 l 1
 509.6 680.3 l 2
 553.5 679.2 593.6 676 611.4 676 c 0
 638.8 676 685.3 679.4 715.1 680.4 c 2
 716.8 680.4 l 1
 718 679.2 l 2
 747.5 649.7 741.6 620.4 719.4 598.2 c 2
 718.4 597.2 l 1
 707.3 596.1 l 2
 661.3 591.7 645.6 587.8 624.7 550 c 2
 497 319 l 2
 494 313.6 488.4 282.2 488.4 247.7 c 2
 491.4 119.1 l 2
483.4 118.9 m 2
 480.4 247.6 l 2
 480.4 283.2 485.2 314.2 490 322.9 c 2
 617.7 553.9 l 2
 639.9 594.1 660.2 599.7 706.6 604.1 c 2
 714.8 604.9 l 1
 732.8 623.7 738.7 646 713.6 672.3 c 1
 686 671.3 638.5 668 611.4 668 c 0
 592.8 668 555.6 671 511.1 672.2 c 1
 494 654.4 484.2 631.9 510.2 604.6 c 1
 518.9 604.1 l 2
 533.9 603.1 545.8 598.8 544.8 586.5 c 0
 544.5 583.2 543.4 579.4 540.3 573.5 c 2
 433.9 373.7 l 1
 321.2 569.7 l 2
 317.7 575.9 306.1 594.3 321.6 602.3 c 0
 324.9 604 329.4 605.5 340 605 c 2
 348.6 604.7 l 1
 366.6 623.8 373.4 646.3 347.7 673.2 c 1
 307.3 672.1 265.4 668 220.4 668 c 0
 181.4 668 138.9 671.9 99.2 673.3 c 1
 80.1 653.4 74.4 630.6 99.2 604.7 c 1
 141.5 601.8 161.4 605.8 203.3 535.2 c 2
 334.6 314.2 l 2
 353.2 283 355.4 277.5 355.4 239 c 2
 352.4 118.9 l 2
 350.6 47.3 352 43.7 268.5 40.6 c 1
 250.3 21.6 243.3 -1.3 269.1 -28.2 c 1
 319.5 -27.1 358.1 -23 418.4 -23 c 0
 470.9 -23 508.5 -26.9 566.7 -28.2 c 1
 584.4 -9.8 593.4 13.1 567.2 40.6 c 1
 501.8 43.7 485.2 40.4 483.4 118.9 c 2
EndSplineSet
Position2: "'cpsp' Versalabstaende 1" dx=2 dy=0 dh=5 dv=0
Substitution2: "'c2sc' Versale nach Kapitaelchen 1" y.sc
EndChar

StartChar: Z
Encoding: 90 90 252
Width: 748
VWidth: 999
Flags: HW
HStem: -31 8<106.166 591.826> 0 28<225.616 511.415> 55 8<259.855 483.74> 193 8<599.672 637.827> 465 8<119.581 157.98> 581 8<245.837 467.936> 612 33<209.426 518.995> 636 20G<140 160.5> 669.4 20G<113.093 117.405> 670 8<208.494 633.326>
VStem: 75 8<-0.348029 35.6106> 120 20<498.511 523.662> 616 21<147.6 167.664> 653 8<615.821 650.228>
AnchorPoint: "mittelpunkt" 179.4 321 basechar 0
AnchorPoint: "top_rechts" 493.4 732 basechar 0
AnchorPoint: "unten_anhang" 161.4 4 basechar 0
AnchorPoint: "unten_punkt" 161.4 -110 basechar 0
AnchorPoint: "top_akzent" 194.4 850 basechar 0
LayerCount: 2
Fore
SplineSet
610 -5 m 1
 610 -5 510.3 0 483.3 0 c 2
 125 0 l 2
 111 0 106 5 106 15 c 0
 106 22 108 30 114 38 c 0
 216 190 406 456 503 579 c 0
 508 586 519 601.7 519 608 c 0
 519 614 512 616.3 495 616 c 2
 274 612 l 2
 199 610.6 161 565 140 496 c 1
 129 496 130 498 120 501 c 1
 128 542 138 602 142 656 c 1
 179 653 276 645 323 645 c 2
 544 645 l 2
 574 645 605 647 617 647 c 0
 625 647 630 643 630 636 c 0
 630 625 627.1 618.2 606 591 c 0
 488 439 304 178 231 72 c 0
 226 63 223 57 223 52 c 0
 223 43 231 27.7 248 28 c 2
 451 32 l 2
 560 34 585 101 616 170 c 1
 629 170 630 167 637 165 c 1
 625 113 615 51 610 -5 c 1
483.3 -31 m 2
 125 -31 l 2
 93.3 -31 75 -6.3 75 15 c 0
 75 33 82.6 47.3 88.8 56.1 c 0
 189.6 206.3 370.4 459.1 467.9 584.5 c 1
 274.6 581 l 2
 204.4 579.7 184.1 534.5 163.8 467.8 c 2
 163 465 l 1
 160 465 l 2
 120.1 465 107.7 472.2 88.1 478.2 c 2
 84.2 479.4 l 1
 84.9 482.9 l 2
 96.8 544.1 108 616.1 113.1 685.4 c 2
 113.4 689.4 l 1
 117.4 689.1 l 2
 169.8 684.9 267.8 676 323 676 c 2
 544 676 l 2
 578.5 676 603.6 678 617 678 c 0
 645.5 678 661 654.2 661 636 c 0
 661 611.6 648 594.6 630.5 572 c 0
 512.6 420.1 332.6 164.5 259.9 59.2 c 1
 450.4 63 l 2
 549.5 64.8 562 125.4 594.9 198.6 c 2
 595.9 201 l 1
 598.5 201 l 2
 637.4 201 648.4 194 670.2 187.8 c 2
 673.8 186.7 l 1
 673 183 l 2
 659.1 122.8 646.3 51.9 640.9 -7.3 c 2
 638.2 -37.5 l 1
 634.4 -37.3 l 2
 609.1 -36 527.8 -31 483.3 -31 c 2
483.3 -23 m 2
 525.9 -23 600.5 -27.5 630.9 -29.1 c 1
 633 -6.5 l 2
 638.3 52 650.3 119.6 664.3 181.1 c 1
 645.8 186.7 635.4 192.6 601.1 193 c 1
 570 123.2 554.1 56.9 450.6 55 c 2
 245.7 51 l 1
 250.6 59.9 l 1
 250.7 60 l 2
 322.2 163.8 504.6 422.9 624.2 576.9 c 0
 641.9 599.7 653 614.9 653 636 c 0
 653 650.3 640.4 670 617 670 c 0
 604.2 670 578.9 668 544 668 c 2
 323 668 l 2
 268.1 668 175.8 676.3 120.8 680.8 c 1
 115.7 614.9 105.2 546.3 93.4 484.9 c 1
 110.6 479.5 122.4 473.4 157.1 473 c 1
 176.9 537.1 199.6 587.6 274.4 589 c 2
 484.6 592.8 l 1
 479.4 586.2 l 2
 382.8 462.8 198 204.5 95.4 51.6 c 0
 89.7 43.6 83 30.6 83 15 c 0
 83 -2 97.9 -23 125 -23 c 2
 483.3 -23 l 2
EndSplineSet
Position2: "'cpsp' Versalabstaende 1" dx=2 dy=0 dh=5 dv=0
Substitution2: "'c2sc' Versale nach Kapitaelchen 1" z.sc
EndChar

StartChar: Adieresis
Encoding: 196 196 279
Width: 1000
VWidth: 999
Flags: HW
HStem: -36.3 8<152.363 261.844 265.7 384.306 583.363 724.711 728.699 847.255> -31 8<156.936 379.722 587.661 842.426> -5 23<160.988 213.669 317.181 375.722 591.988 662.124 782.044 838.722> 215 8<392.504 584.204> 246 32<390.68 594.855> 301 8<429.296 551.303> 627 8<288.947 333.907 697.947 742.907> 638 20<528.355 543.037> 658 96<272.332 351.668 681.332 760.668> 661 8<481.639 497.12> 777 8<290.093 335.053 699.093 744.053>
VStem: 233 8<684.093 729.053> 264 96<666.332 745.668> 383 8<682.947 727.907> 642 8<684.093 729.053> 673 96<666.332 745.668> 792 8<682.947 727.907>
AnchorPoint: "top_akzent" 362 894 basechar 0
LayerCount: 2
Fore
SplineSet
264 706 m 0
 264 732 286 754 312 754 c 0
 338 754 360 732 360 706 c 0
 360 680 338 658 312 658 c 0
 286 658 264 680 264 706 c 0
673 706 m 0
 673 732 695 754 721 754 c 0
 747 754 769 732 769 706 c 0
 769 680 747 658 721 658 c 0
 695 658 673 680 673 706 c 0
233 706 m 0
 233 754.6 273.9 785 312 785 c 0
 360.6 785 391 744.1 391 706 c 0
 391 657.4 350.1 627 312 627 c 0
 263.4 627 233 667.9 233 706 c 0
241 706 m 0
 241 671.8 268.4 635 312 635 c 0
 346.2 635 383 662.4 383 706 c 0
 383 740.2 355.6 777 312 777 c 0
 277.8 777 241 749.6 241 706 c 0
642 706 m 0
 642 754.6 682.9 785 721 785 c 0
 769.6 785 800 744.1 800 706 c 0
 800 657.4 759.1 627 721 627 c 0
 672.4 627 642 667.9 642 706 c 0
650 706 m 0
 650 671.8 677.4 635 721 635 c 0
 755.2 635 792 662.4 792 706 c 0
 792 740.2 764.6 777 721 777 c 0
 686.8 777 650 749.6 650 706 c 0
415.9 278 m 2
 594.9 278 l 1
 498.9 555 l 1
 495.9 555 l 1
 390.7 296.3 l 2
 386.6 286.1 393.9 278 415.9 278 c 2
302.9 69 m 2
 286.7 27.3 334.3 20.6 371.9 18 c 1
 377.9 12 377.9 1 371.9 -5 c 1
 334.9 -4 304.9 0 263.9 0 c 0
 224.9 0 201.9 -4 164.9 -5 c 1
 158.9 1 158.9 12 164.9 18 c 1
 208.4 21 239 31.3 264.8 92 c 2
 496.9 638 l 1
 509.9 638 520.9 649 535.9 658 c 1
 744.9 76 l 2
 762.9 25 796.1 21.5 834.9 18 c 1
 840.9 12 840.9 1 834.9 -5 c 1
 797.9 -4 767.9 0 726.9 0 c 0
 687.9 0 632.9 -4 595.9 -5 c 1
 589.9 1 589.9 12 595.9 18 c 1
 643.5 21.4 684 21 669.9 62 c 2
 606.4 246 l 1
 397.9 246 l 2
 373.9 246 367.9 237 362.9 224 c 2
 302.9 69 l 2
429.3 309 m 1
 551.3 309 l 1
 495.2 471 l 1
 429.3 309 l 1
562.5 301 m 1
 417.4 301 l 1
 495.7 493.7 l 1
 562.5 301 l 1
341.9 83.2 m 2
 337.9 72.9 336.9 67.8 336.6 64 c 0
 335.5 49.9 348.8 50.6 384.1 48.2 c 2
 385.6 48.1 l 1
 386.6 47.1 l 2
 418 15.7 406.3 -14.4 385.6 -35.1 c 2
 384.3 -36.3 l 1
 382.6 -36.3 l 2
 336.4 -35.1 303.2 -31 263.9 -31 c 0
 221 -31 194 -35.2 154.6 -36.3 c 2
 152.4 -36.3 l 1
 151.1 -35.1 l 2
 120.8 -4.8 128.3 25.3 150.1 47.1 c 2
 151.1 48.1 l 1
 153.1 48.3 l 2
 201.5 51.6 214.1 51.9 236.3 104.1 c 2
 476.3 669 l 1
 495.7 669 l 1
 506.8 673.5 537.5 695.2 548.1 701.5 c 2
 552.3 704 l 1
 774.1 86.4 l 2
 788.1 46.8 805.8 51.8 847.4 48 c 2
 848.8 47.9 l 1
 849.9 46.8 l 2
 880.9 15.8 869.6 -14.1 848.6 -35.1 c 2
 847.3 -36.3 l 1
 845.1 -36.3 l 2
 798.1 -35 766.3 -31 726.9 -31 c 0
 681.3 -31 624.8 -35.2 585.1 -36.3 c 2
 583.4 -36.3 l 1
 582.1 -35.1 l 2
 552.2 -5.2 558.7 22.6 581.1 45 c 2
 582.1 46.1 l 1
 583.6 46.2 l 2
 601.1 47.2 610.7 48.9 617.2 51.1 c 0
 633.7 56.8 632.8 67.3 623.1 95.4 c 2
 584.2 215 l 1
 397.9 215 l 2
 388.1 215 393 215 392.5 214.9 c 0
 392.4 214.5 392.1 213.6 391.8 212.8 c 2
 341.9 83.2 l 2
334.5 86.1 m 2
 384.3 215.7 l 2
 385.4 218.5 385.6 223 397.9 223 c 2
 590 223 l 1
 630.6 97.9 l 2
 639.9 70.9 643.5 51.6 619.8 43.5 c 0
 612.1 40.9 604.4 39.5 585.7 38.3 c 1
 567.4 19.3 561.1 -1.7 586.6 -28.3 c 1
 623.9 -27.2 681.7 -23 726.9 -23 c 0
 766.4 -23 798.3 -27 844.1 -28.3 c 1
 861.4 -10.4 871.5 12.6 845.2 40.2 c 1
 806.6 43.5 781.9 40 766.5 83.7 c 2
 548.1 692.1 l 1
 536 684.4 508.8 665 497.8 661.2 c 2
 497.1 661 l 1
 481.6 661 l 1
 243.7 101 l 2
 220.8 47 203 43.7 154.7 40.4 c 1
 137 21.9 129.8 -1.3 155.6 -28.3 c 1
 193.7 -27.2 220.7 -23 263.9 -23 c 0
 303.4 -23 335.3 -27 381.1 -28.3 c 1
 398.7 -9.7 408.3 12.8 382 40.4 c 1
 352.7 42.4 326.8 40.7 328.6 64.6 c 0
 329 69.5 330.4 75.4 334.5 86.1 c 2
EndSplineSet
Position2: "'cpsp' Versalabstaende 1" dx=2 dy=0 dh=5 dv=0
Substitution2: "'ss01' Stilgruppe 1 1" Adieresis.alt
Substitution2: "'c2sc' Versale nach Kapitaelchen 1" adieresis.sc
AlternateSubs2: "'aalt' Alle Alternativen zeigen 1" adieresis.sc
Colour: ff9ccc
EndChar

StartChar: Aring
Encoding: 197 197 280
Width: 1000
VWidth: 999
Flags: HW
HStem: -36.3 8<152.363 261.844 265.7 384.306 583.363 724.711 728.699 847.255> -31 8<156.936 379.722 587.661 842.426> -5 23<160.988 213.669 317.181 375.722 591.988 662.124 782.044 838.722> 215 8<392.504 584.204> 246 32<390.68 594.855> 301 8<429.296 551.303> 629 32<323.639 393.812> 638 20<528.355 543.037> 661 8<481.639 497.12> 767 32<323.639 394.555>
VStem: 271 40<670.365 757.898> 407 40<670.587 758.252>
AnchorPoint: "top_akzent" 364 894 basechar 0
LayerCount: 2
Fore
SplineSet
465.8 646.6 m 1
 423.4 663.7 390 704.7 390 754 c 0
 390 819.3 448.7 870 509 870 c 0
 571.7 870 628 818.6 628 754 c 0
 628 712.3 604.3 675.4 569.9 654.9 c 1
 774.1 86.4 l 2
 788.3 46.9 805.8 51.8 847.4 48 c 2
 848.8 47.9 l 1
 849.9 46.8 l 2
 880.9 15.7 869.6 -14.1 848.6 -35.1 c 2
 847.3 -36.3 l 1
 845.1 -36.3 l 2
 798.1 -35 766.3 -31 726.9 -31 c 0
 681.3 -31 624.8 -35.2 585.1 -36.3 c 2
 583.4 -36.3 l 1
 582.1 -35.1 l 2
 552.2 -5.2 558.7 22.6 581.1 45 c 2
 582.1 46.1 l 1
 583.6 46.2 l 2
 601.1 47.2 610.7 48.9 617.2 51.1 c 0
 633.7 56.8 632.8 67.3 623.1 95.4 c 2
 584.2 215 l 1
 397.9 215 l 2
 387.6 215 392.5 215 392.5 214.9 c 0
 392.4 214.5 392.1 213.6 391.8 212.8 c 2
 341.9 83.2 l 2
 337.9 72.9 336.9 67.8 336.6 64 c 0
 335.5 49.9 348.8 50.7 384.1 48.2 c 2
 385.6 48.1 l 1
 386.6 47.1 l 2
 418 15.7 406.3 -14.3 385.6 -35.1 c 2
 384.3 -36.3 l 1
 382.6 -36.3 l 2
 336.4 -35.1 303.2 -31 263.9 -31 c 0
 221 -31 194 -35.2 154.6 -36.3 c 2
 152.4 -36.3 l 1
 151.1 -35.1 l 2
 120.8 -4.8 128.3 25.3 150.1 47.1 c 2
 151.1 48.1 l 1
 153.1 48.3 l 2
 201.5 51.6 214.1 51.9 236.3 104.1 c 2
 465.8 646.6 l 1
421 754 m 0
 421 800 463 839 509 839 c 0
 555 839 597 801 597 754 c 0
 597 709 557 669 509 669 c 0
 463 669 421 708 421 754 c 0
509 807 m 0
 478 807 461 784 461 754 c 0
 461 726 478 701 509 701 c 0
 540 701 557 726 557 754 c 0
 557 785 539 807 509 807 c 0
476.6 651.5 m 1
 243.7 101 l 2
 220.8 47 203 43.7 154.7 40.4 c 1
 137 21.9 129.8 -1.3 155.6 -28.3 c 1
 193.7 -27.2 220.7 -23 263.9 -23 c 0
 303.4 -23 335.3 -27 381.1 -28.3 c 1
 398.7 -9.7 408.3 12.8 382 40.4 c 1
 352.7 42.4 326.8 40.7 328.6 64.6 c 0
 329 69.5 330.4 75.4 334.5 86.1 c 2
 384.3 215.7 l 2
 385.4 218.5 385.6 223 397.9 223 c 2
 590 223 l 1
 630.6 97.9 l 2
 639.9 70.9 643.5 51.6 619.8 43.5 c 0
 612.1 40.9 604.4 39.5 585.7 38.3 c 1
 567.4 19.3 561.1 -1.7 586.6 -28.3 c 1
 623.9 -27.2 681.7 -23 726.9 -23 c 0
 766.4 -23 798.3 -27 844.1 -28.3 c 1
 861.4 -10.4 871.5 12.6 845.2 40.2 c 1
 806.6 43.5 782.2 40 766.5 83.7 c 2
 559.9 659.1 l 1
 565.6 661.9 566.4 662.2 567.1 662.6 c 0
 598.5 681.8 620 716 620 754 c 0
 620 813.8 567.4 862 509 862 c 0
 453 862 398 814.3 398 754 c 0
 398 708.4 429.5 670 469 654 c 1
 469 654.1 l 1
 476.6 651.5 l 1
562.5 301 m 1
 417.4 301 l 1
 495.7 493.7 l 1
 562.5 301 l 1
429.3 309 m 1
 551.3 309 l 1
 495.2 471 l 1
 429.3 309 l 1
302.9 69 m 2
 286.7 27.3 334.3 20.6 371.9 18 c 1
 377.9 12 377.9 1 371.9 -5 c 1
 334.9 -4 304.9 0 263.9 0 c 0
 224.9 0 201.9 -4 164.9 -5 c 1
 158.9 1 158.9 12 164.9 18 c 1
 208.4 21 239 31.3 264.8 92 c 2
 496.9 638 l 1
 509.9 638 520.9 649 535.9 658 c 1
 744.9 76 l 2
 763.2 25.1 796.1 21.5 834.9 18 c 1
 840.9 12 840.9 1 834.9 -5 c 1
 797.9 -4 767.9 0 726.9 0 c 0
 687.9 0 632.9 -4 595.9 -5 c 1
 589.9 1 589.9 12 595.9 18 c 1
 643.5 21.4 684 21 669.9 62 c 2
 606.4 246 l 1
 397.9 246 l 2
 373.9 246 367.9 237 362.9 224 c 2
 302.9 69 l 2
415.9 278 m 2
 594.9 278 l 1
 498.9 555 l 1
 495.9 555 l 1
 390.7 296.3 l 2
 386.6 286.1 393.9 278 415.9 278 c 2
509 776 m 0
 498.1 776 492 770.1 492 754 c 0
 492 735.5 502.2 732 509 732 c 0
 522.6 732 526 743.5 526 754 c 0
 526 775 514.5 776 509 776 c 0
534 754 m 0
 534 736.8 525.9 724 509 724 c 0
 492.4 724 484 736.8 484 754 c 0
 484 768.5 489 784 509 784 c 0
 529 784 534 768.5 534 754 c 0
EndSplineSet
Position2: "'cpsp' Versalabstaende 1" dx=2 dy=0 dh=5 dv=0
Substitution2: "'c2sc' Versale nach Kapitaelchen 1" aring.sc
AlternateSubs2: "'aalt' Alle Alternativen zeigen 1" aring.sc
Colour: ff00ff
EndChar

StartChar: AE
Encoding: 198 198 281
Width: 891
VWidth: 999
Flags: HMW
HStem: -5 23<-6.86719 41.9676 168.252 217.867 338.633 406.144> 0 26<523.495 756.219> 328 28<512.5 698.451> 588 20G<408.545 421> 618 27<523.829 758.398> 627 23<290.133 342.198> 632 20G<807 817>
VStem: 429.5 85<30.5385 271> 719.5 23<256.133 305.703 374.145 427.867> 818.5 23<497.558 529.198> 837.5 25<133.241 168.923>
AnchorPoint: "top_akzent" 553 805 basechar 0
AnchorPoint: "unten_punkt" 549 -107 basechar 0
AnchorPoint: "unten_anhang" 549 4 basechar 0
LayerCount: 2
Fore
SplineSet
848.9 660.3 m 0
 854.4 632.8 869.7 525.8 874.6 485.5 c 2
 875 482.6 l 1
 872.4 481.4 l 2
 848.8 470.1 829.5 463.2 797.4 467.7 c 2
 794.9 468 l 1
 794.1 470.4 l 2
 769.2 548.6 760.1 587 705.5 587 c 2
 560.5 587 l 2
 552.4 587 546 580.2 545.5 565.9 c 0
 543.3 504.8 543.3 427.4 543.4 387.3 c 1
 628.2 388 l 2
 685.3 388.5 686.3 384.3 689.1 436 c 2
 689.2 437.5 l 1
 690.3 438.6 l 2
 721.4 469.7 751.2 459.1 772.7 437.6 c 2
 773.9 436.4 l 1
 773.9 434.7 l 2
 772.6 395.8 768.5 368.3 768.5 338 c 0
 768.5 307.2 772.8 285.9 773.8 249.3 c 2
 773.9 247.5 l 1
 772.6 246.3 l 2
 742.6 216.3 712.9 222.8 690.4 245.3 c 2
 689.3 246.3 l 1
 689.2 247.8 l 2
 686.1 294.8 689.1 295.5 628.2 296 c 2
 543.4 296.7 l 1
 543.3 237.7 543.4 134.2 545.5 77.1 c 0
 546.1 59.6 562.3 57 570.5 57 c 2
 706.5 57 l 2
 765.6 57 791.9 121.8 811.9 193.6 c 2
 812.5 195.8 l 1
 814.8 196.4 l 2
 855.2 206.2 876.1 192.9 894 182.7 c 2
 896.4 181.3 l 1
 896 178.6 l 2
 884.7 106.6 866.7 27.2 849.5 -34.4 c 2
 848.6 -37.5 l 1
 845.4 -37.3 l 2
 818.6 -35.6 761.9 -31 697.5 -31 c 2
 472.5 -31 l 2
 440.4 -31 378.3 -35.2 331.6 -36.2 c 2
 329.9 -36.3 l 1
 328.7 -35.1 l 2
 298.5 -4.9 305.6 25 328 47.4 c 2
 329.1 48.4 l 1
 330.6 48.5 l 2
 393 51.5 396.6 56 398.5 110 c 0
 400.5 165.2 400.5 202.6 400.5 240 c 1
 262.8 240 l 1
 183.5 87.2 l 2
 177.8 76.3 176 70.1 175.7 65.9 c 0
 174.8 54.7 187.3 50.9 226.2 48.2 c 2
 227.7 48.1 l 1
 228.8 47.1 l 2
 260.2 15.7 248.4 -14.4 227.7 -35.1 c 2
 226.5 -36.3 l 1
 224.8 -36.3 l 2
 178.8 -35.1 134.9 -31 95 -31 c 0
 52.2 -31 26.2 -35.2 -13.2 -36.3 c 2
 -15.5 -36.3 l 1
 -16.7 -35.1 l 2
 -46.6 -5.2 -40.1 24.8 -17.8 47.1 c 2
 -16.7 48.1 l 1
 -14.8 48.3 l 2
 30.6 51.6 54.8 62.7 83.6 116.6 c 2
 326.6 571.5 l 2
 329.7 577.3 330.4 580.5 330.6 582.6 c 0
 331.1 589.8 321.8 594.8 282.2 596.5 c 2
 280.6 596.5 l 1
 279.5 597.6 l 2
 248.6 628.5 258.5 658.4 280.2 680.1 c 2
 281.4 681.3 l 1
 283.1 681.2 l 2
 339.3 680.1 437.6 676 468 676 c 2
 766.5 676 l 2
 790 676 794.2 683 815.5 683 c 0
 842.2 683 848 664.4 848.9 660.3 c 0
841 658.7 m 0
 839.2 667 830.8 675 815.5 675 c 0
 796.4 675 792.8 668 766.5 668 c 2
 468 668 l 2
 437.5 668 341.3 672 284.7 673.2 c 1
 267 654.9 257.9 631.9 284.1 604.4 c 1
 317.3 602.9 339.9 599.5 338.6 582 c 0
 338.3 578.3 337 574.1 333.7 567.8 c 2
 90.7 112.8 l 2
 61.2 57.5 33.4 43.9 -13.2 40.4 c 1
 -31.3 21.5 -37.7 -1.7 -12.2 -28.3 c 1
 25.9 -27.2 52 -23 95 -23 c 0
 134.9 -23 177.6 -27 223.3 -28.3 c 1
 240.9 -9.7 250.5 12.8 224.2 40.4 c 1
 190 42.9 166.1 45.7 167.7 66.6 c 0
 168.2 72.6 170.6 79.5 176.5 90.8 c 2
 257.9 248 l 1
 408.5 248 l 1
 408.5 244 l 2
 408.5 204.4 408.5 166.9 406.5 109.7 c 0
 404.5 53.9 396.3 43.8 332.6 40.6 c 1
 314.4 21.6 307.5 -1.3 333.2 -28.2 c 1
 378 -27.2 440.4 -23 472.5 -23 c 2
 697.5 -23 l 2
 759.4 -23 814.7 -27.3 842.6 -29.1 c 1
 858.9 29.8 876.6 107.1 887.7 177.1 c 1
 871.1 186.5 854.4 197 818.9 189.1 c 1
 799.3 119.5 772.3 49 706.5 49 c 2
 570.5 49 l 2
 561.7 49 538.4 52 537.5 76.8 c 0
 535.4 135.4 535.2 244.3 535.4 300.8 c 2
 535.4 304.8 l 1
 628.3 304 l 2
 689.5 303.5 693.9 298.2 697.1 249.9 c 1
 716.2 231.6 739.1 225.2 765.8 250.8 c 1
 764.7 285 760.5 306.9 760.5 338 c 0
 760.5 368.6 764.4 394.8 765.8 433.2 c 1
 747.6 450.8 724.6 460.3 697 434 c 1
 693.9 380.9 685.4 380.5 628.3 380 c 2
 535.4 379.2 l 1
 535.4 383.2 l 2
 535.3 423.7 535.2 502.9 537.5 566.2 c 0
 538.1 582.6 546.5 595 560.5 595 c 2
 705.5 595 l 2
 765.9 595 777.2 550.2 801 475.3 c 1
 828.5 472.1 843.5 476.7 866.3 487.4 c 1
 861.4 527.2 846.2 632.9 841 658.7 c 0
429.5 536 m 0
 428.5 574 423 606 419 608 c 1
 258 300 l 1
 431.5 300 l 1
 431.5 306.8 431.5 313.7 431.5 321 c 0
 431.5 404 431.6 455 429.5 536 c 0
431.5 271 m 1
 244 271 l 1
 144 79 l 2
 123.7 40 176.4 20.6 214 18 c 1
 220 12 220 1 214 -5 c 1
 177 -4 136 0 95 0 c 0
 56 0 34 -4 -3 -5 c 1
 -9 1 -9 12 -3 18 c 1
 40.5 21 79.3 42.7 111 102 c 2
 354 557 l 2
 370.2 587.7 364 624 294 627 c 1
 288 633 288 644 294 650 c 1
 344 649 436.3 645 468 645 c 2
 766.5 645 l 2
 790.5 645 798.5 649 815.5 652 c 0
 818.5 652 819.5 651 819.5 649 c 0
 821.5 641 836.5 542 841.5 501 c 1
 831.7 496.3 830.9 494.2 818.5 496 c 1
 796.5 565 780.5 618 705.5 618 c 2
 550.5 618 l 2
 526.5 618 515.4 598 514.5 574 c 0
 511.5 492 512.5 356 512.5 356 c 1
 628.5 357 l 2
 713.5 357.7 716.5 369 719.5 424 c 1
 725.5 430 736.5 430 742.5 424 c 1
 741.5 394 737.5 371.6 737.5 338 c 0
 737.5 307.5 741.5 295 742.5 260 c 1
 736.5 254 725.5 254 719.5 260 c 1
 716.5 305 713.5 326.3 628.5 327 c 2
 512.5 328 l 1
 512.5 328 511.5 152.5 514.5 69 c 0
 515.5 42 528.5 26 550.5 26 c 2
 706.5 26 l 2
 782.5 26 817.5 98 837.5 170 c 1
 850.6 173.2 852.1 170.9 862.5 165 c 1
 854.5 114 839.5 45 825.5 -5 c 1
 825.5 -5 745.5 0 697.5 0 c 2
 472.5 0 l 2
 442.5 0 391.5 -4 342.5 -5 c 1
 336.5 1 336.5 12 342.5 18 c 1
 412.5 21 427 26 429.5 109 c 0
 431.5 173.4 431.5 215.9 431.5 271 c 1
399.3 503.3 m 1
 309.2 331 l 1
 400.5 331 l 1
 400.5 403.1 400.5 446.4 399.3 503.3 c 1
296 323 m 1
 406.6 534.5 l 1
 406.9 519 l 2
 408.5 453.2 408.5 406 408.5 327 c 2
 408.5 323 l 1
 296 323 l 1
EndSplineSet
Position2: "'cpsp' Versalabstaende 1" dx=2 dy=0 dh=5 dv=0
Substitution2: "'c2sc' Versale nach Kapitaelchen 1" ae.sc
AlternateSubs2: "'aalt' Alle Alternativen zeigen 1" ae.sc
EndChar

StartChar: Ccedilla
Encoding: 199 199 282
Width: 646
VWidth: 999
Flags: HW
HStem: -200 29<290.047 390.231> -96 32<365.31 395.355> -41 8<303.967 403.143> -20 20G<347.667 390> -10 31<282.379 444.689> 44 8<321.394 398.576> 163 8<574.716 602.608> 600 8<319.189 394.657> 631 27<289.33 432.708> 681 8<304.884 425.042>
VStem: 10 8<259.625 372.437> 41 84<203.394 448.538> 148 8<279.903 392.666> 400 62<-165.259 -97.4563> 576 23<454.584 484.514>
AnchorPoint: "top_akzent" 371 850 basechar 0
LayerCount: 2
Fore
SplineSet
367 -96 m 0
 348 -96 338 -97 322 -102 c 1
 316 -96 l 1
 351.8 -10 l 1
 140.3 -7.4 41 155.3 41 315 c 0
 41 419.3 76.6 512.2 143 573 c 0
 202 627 273 658 358 658 c 0
 481 658 526 618 577 613 c 1
 586 558 594 510 599 458 c 1
 591.8 453.2 585.2 452.2 576 453 c 1
 550 539 491 631 353 631 c 0
 301 631 231.6 601 182 540 c 0
 145.5 495.1 125 420.3 125 334 c 0
 125 188 201 21 356 21 c 0
 449 21 517 62 588 140 c 1
 599 140 606 134 611 125 c 1
 550 45.2 472.2 0 386.8 -8.5 c 1
 365 -67 l 1
 373 -65 382 -64 391 -64 c 0
 431 -64 462 -88 462 -126 c 0
 462 -169 416 -200 355 -200 c 0
 323 -200 306 -194 281 -183 c 1
 281 -171 284 -164 291 -157 c 1
 318 -167 329 -171 349 -171 c 0
 379 -171 400 -157 400 -131 c 0
 400 -110 390 -96 367 -96 c 0
306.7 -37.9 m 1
 103.7 -13.1 10 158.4 10 315 c 0
 10 430.1 50.5 530.3 122.1 595.9 c 0
 186.6 654.9 257.2 689 358 689 c 0
 492.6 689 545.3 647.3 580 643.9 c 2
 603.7 641.5 l 1
 604.2 638.5 l 2
 615.7 568.3 625.4 507.5 631.6 443 c 2
 631.8 440.3 l 1
 629.5 439 l 2
 608.8 428.1 584.7 417.4 552.9 428 c 2
 551 428.7 l 1
 546.3 444 l 2
 521.1 527.2 470 600 353 600 c 0
 295.3 600 244.4 567.5 206.1 520.4 c 0
 174.9 482 156 411.7 156 334 c 0
 156 189.1 231.5 52 356 52 c 0
 445.7 52 506.2 96.2 573.1 169.7 c 2
 574.3 171 l 1
 576.1 171 l 2
 624.5 171 633.3 146 645.7 123.6 c 2
 647 121.3 l 1
 645.4 119.2 l 2
 581.9 36.1 505.2 -18.1 417.3 -35.2 c 1
 460.7 -44.8 493 -79.3 493 -126 c 0
 493 -189 431.2 -231 355 -231 c 0
 320.4 -231 300.4 -225.4 268.5 -211.4 c 2
 250 -203.2 l 1
 250 -183 l 2
 250 -163.8 255.7 -148.5 269.1 -135.1 c 2
 283.1 -121 l 1
 305.5 -129.3 l 1
 279.4 -103.2 l 1
 306.7 -37.9 l 1
318.3 -31.3 m 1
 288.8 -101.4 l 1
 315.6 -128.1 l 1
 328.9 -124 l 2
 343.4 -119.5 351.7 -119 367 -119 c 0
 374.8 -119 377 -124.6 377 -131.4 c 0
 377 -138.8 372.1 -148 349 -148 c 0
 332.5 -148 322.3 -144 299 -135.4 c 2
 285.2 -130.3 l 1
 274.7 -140.7 l 2
 262.9 -152.5 258 -166.1 258 -183 c 2
 258 -198 l 1
 271.7 -204.1 l 2
 302.4 -217.6 321.7 -223 355 -223 c 0
 426.9 -223 485 -184.2 485 -126 c 0
 485 -79.3 450.5 -47 404.3 -41.7 c 2
 399.2 -41.2 l 1
 404 -29.5 l 1
 407 -29 410.1 -28.6 413.1 -28 c 0
 499 -12.3 573.9 39.9 637.4 122 c 1
 626.1 142.6 620.4 162.1 577.8 163 c 1
 511.4 90.4 448.4 44 356 44 c 0
 224.5 44 148 187.6 148 334 c 0
 148 412.8 166.8 484.8 199.8 525.5 c 0
 239.1 573.8 292.2 608 353 608 c 0
 474.4 608 528.3 531.1 554 446.3 c 2
 557.4 435 l 1
 583 427.2 602.8 434.2 623.4 444.9 c 1
 617.4 505.8 607.9 566.2 596.8 634.2 c 1
 579.2 635.9 l 2
 540.1 639.7 491.4 681 358 681 c 0
 259.1 681 190.9 648 127.5 590 c 0
 57.8 526.2 18 428.3 18 315 c 0
 18 158.2 111.3 -12.6 318.3 -31.3 c 1
320.8 -134.8 m 1
 331.6 -138.4 338.9 -140 349 -140 c 0
 367.4 -140 369 -134.4 369 -131.1 c 0
 368.9 -127.1 367.1 -126.3 364.2 -126.3 c 0
 346.9 -126.3 341.8 -128.2 320.8 -134.8 c 1
EndSplineSet
Position2: "'cpsp' Versalabstaende 1" dx=2 dy=0 dh=5 dv=0
Substitution2: "'c2sc' Versale nach Kapitaelchen 1" ccedilla.sc
AlternateSubs2: "'aalt' Alle Alternativen zeigen 1" ccedilla.sc
Colour: ff00ff
EndChar

StartChar: Odieresis
Encoding: 214 214 297
Width: 1000
VWidth: 999
Flags: HW
HStem: -41 8<446.753 551.158> -10 24<457.892 578.317> 37 8<485.483 549.037> 603 8<452.902 515.115> 627 8<171.947 216.907 780.947 825.907> 634 24<426.282 543.449> 658 96<155.332 234.668 764.332 843.668> 681 8<444.348 546.472> 777 8<173.093 218.053 782.093 827.053>
VStem: 116 8<684.093 729.053> 147 96<666.332 745.668> 157.5 8<253.476 370.85> 188.5 90<198.309 447.988> 266 8<682.947 727.907> 301.5 8<273.049 387.65> 690.5 8<250.164 371.241> 721.5 90<193.813 452.752> 725 8<684.093 729.053> 756 96<666.332 745.668> 834.5 8<266.759 388.022> 875 8<682.947 727.907>
AnchorPoint: "top_akzent" 344 894 basechar 0
LayerCount: 2
Fore
SplineSet
147 706 m 0
 147 732 169 754 195 754 c 0
 221 754 243 732 243 706 c 0
 243 680 221 658 195 658 c 0
 169 658 147 680 147 706 c 0
756 706 m 0
 756 732 778 754 804 754 c 0
 830 754 852 732 852 706 c 0
 852 680 830 658 804 658 c 0
 778 658 756 680 756 706 c 0
116 706 m 0
 116 754.6 156.9 785 195 785 c 0
 243.6 785 274 744.1 274 706 c 0
 274 657.4 233.1 627 195 627 c 0
 146.4 627 116 667.9 116 706 c 0
124 706 m 0
 124 671.8 151.4 635 195 635 c 0
 229.2 635 266 662.4 266 706 c 0
 266 740.2 238.6 777 195 777 c 0
 160.8 777 124 749.6 124 706 c 0
725 706 m 0
 725 754.6 765.9 785 804 785 c 0
 852.6 785 883 744.1 883 706 c 0
 883 657.4 842.1 627 804 627 c 0
 755.4 627 725 667.9 725 706 c 0
733 706 m 0
 733 671.8 760.4 635 804 635 c 0
 838.2 635 875 662.4 875 706 c 0
 875 740.2 847.6 777 804 777 c 0
 769.8 777 733 749.6 733 706 c 0
479.5 634 m 0
 388.5 634 278.5 537 278.5 327 c 0
 278.5 135 396.5 14 518.5 14 c 0
 632.5 14 721.5 131 721.5 310 c 0
 721.5 512 611.5 634 479.5 634 c 0
811.5 329 m 0
 811.5 245 791.5 172.7 751.7 116 c 0
 696.8 37.7 609.3 -10 498.5 -10 c 0
 328.5 -10 188.5 113 188.5 310 c 0
 188.5 397.2 210.9 475.7 254.8 536 c 0
 309.6 611.2 393.2 658 492.5 658 c 0
 671.5 658 811.5 536 811.5 329 c 0
479.5 603 m 0
 409.4 603 309.5 523.1 309.5 327 c 0
 309.5 142.5 421.7 45 518.5 45 c 0
 610 45 690.5 142.8 690.5 310 c 0
 690.5 506 586 603 479.5 603 c 0
479.5 611 m 0
 591.7 611 698.5 508.7 698.5 310 c 0
 698.5 140.9 616.7 37 518.5 37 c 0
 416.1 37 301.5 139.4 301.5 327 c 0
 301.5 525.4 403.2 611 479.5 611 c 0
842.5 329 m 0
 842.5 236.2 819.5 158.6 777.1 98.2 c 0
 714.4 8.8 614.8 -41 498.5 -41 c 0
 308.4 -41 157.5 100.3 157.5 310 c 0
 157.5 406.3 183 490.3 229.7 554.3 c 0
 292 639.8 386.6 689 492.5 689 c 0
 691.2 689 842.5 548.5 842.5 329 c 0
834.5 329 m 0
 834.5 544.3 687 681 492.5 681 c 0
 389.1 681 297 633 236.2 549.5 c 0
 190.7 487 165.5 404.9 165.5 310 c 0
 165.5 104.6 312.7 -33 498.5 -33 c 0
 612.5 -33 709.4 15.6 770.5 102.8 c 0
 811.8 161.7 834.5 237.5 834.5 329 c 0
EndSplineSet
Position2: "'cpsp' Versalabstaende 1" dx=2 dy=0 dh=5 dv=0
Substitution2: "'ss01' Stilgruppe 1 1" Odieresis.alt
Substitution2: "'c2sc' Versale nach Kapitaelchen 1" odieresis.sc
AlternateSubs2: "'aalt' Alle Alternativen zeigen 1" odieresis.sc
Colour: ff9ccc
EndChar

StartChar: Oslash
Encoding: 216 216 298
Width: 1000
VWidth: 999
Flags: HW
LayerCount: 2
Fore
SplineSet
698.5 310 m 0
 698.5 155.2 626.5 37 518.5 37 c 0
 470.9 37 423 58.1 384.1 98 c 2
 381.6 100.5 l 1
 673 460.4 l 1
 675.4 453.7 l 2
 690.1 413 698.5 364.9 698.5 310 c 0
670.2 444.2 m 1
 392.3 101 l 1
 429.5 64.1 474.3 45 518.5 45 c 0
 621.7 45 690.5 159.6 690.5 310 c 0
 690.5 361 683.1 405.9 670.2 444.2 c 1
770.5 102.8 m 0
 813.5 164.1 834.5 241.4 834.5 329 c 0
 834.5 452.1 787.3 526.5 758.9 561.5 c 2
 756.9 564 l 1
 795.3 611.4 l 1
 793.7 621.5 l 2
 792.2 631.3 790.3 637.1 788.9 640.8 c 0
 777.9 668.8 757 668.6 744.6 671 c 1
 734 671 l 1
 693.9 621.6 l 1
 690.9 623.7 l 2
 634.8 661.3 566.3 681 492.5 681 c 0
 390 681 297.7 633.9 236.2 549.5 c 0
 188.8 484.5 165.5 401.1 165.5 310 c 0
 165.5 187 216.7 112 247.3 77 c 2
 249.5 74.4 l 1
 201.3 15.1 l 1
 203.4 4.5 l 2
 204.3 -0.0999999 206.2 -9.6 210 -18.1 c 0
 221.8 -44.6 241.1 -43.9 252.4 -46 c 1
 263 -46 l 1
 315.3 18.6 l 1
 318.3 16.8 l 2
 370.7 -15.6 432.7 -33 498.5 -33 c 0
 613.2 -33 709.1 15.2 770.5 102.8 c 0
498.5 -41 m 0
 432.6 -41 370.1 -24 317.1 8.1 c 1
 266.8 -54 l 1
 251.6 -54 l 1
 251.2 -53.9 l 2
 240 -51.7 216.5 -52.4 202.7 -21.4 c 0
 198.6 -12.2 196.6 -2 195.6 2.9 c 2
 192.7 17.2 l 1
 239.1 74.3 l 1
 207.5 111.3 157.5 187.6 157.5 310 c 0
 157.5 402.4 181.1 487.6 229.7 554.3 c 0
 292.8 640.9 387.4 689 492.5 689 c 0
 566.4 689 635.4 669.6 692.3 632.3 c 1
 730.2 679 l 1
 745.4 679 l 1
 745.8 678.9 l 2
 757.9 676.5 783.5 676.3 796.3 643.7 c 0
 797.9 639.7 800 633.4 801.6 622.7 c 2
 803.7 609.1 l 1
 767.2 564 l 1
 796.5 527.1 842.5 451.3 842.5 329 c 0
 842.5 240.1 821.2 161.1 777.1 98.2 c 0
 716.7 12 619.9 -41 498.5 -41 c 0
625 541.9 m 2
 627.2 539.4 l 1
 331.8 175.8 l 1
 329.2 181.9 l 2
 311.8 222.7 301.5 271.5 301.5 327 c 0
 301.5 528.9 405.5 611 479.5 611 c 0
 536.2 611 587 585.8 625 541.9 c 2
479.5 603 m 0
 411.5 603 309.5 526.3 309.5 327 c 0
 309.5 275.2 318.6 229.7 334 191.2 c 1
 616.7 539.2 l 1
 580.2 580 532.7 603 479.5 603 c 0
678.5 503.7 m 1
 351.6 100 l 1
 396.5 44.8 457 14 518.5 14 c 0
 632.5 14 721.5 131 721.5 310 c 0
 721.5 387 705.6 452.3 678.5 503.7 c 1
811.5 329 m 0
 811.5 245 791.5 172.7 751.7 116 c 0
 696.8 37.7 609.3 -10 498.5 -10 c 0
 428.2 -10 363.1 11 310.8 49.6 c 1
 252 -23 l 1
 233 -23 229 -6 226 9 c 1
 280.2 75.7 l 1
 223.7 131.1 188.5 211.2 188.5 310 c 0
 188.5 397.2 210.9 475.7 254.8 536 c 0
 309.6 611.2 393.2 658 492.5 658 c 0
 571.4 658 642.8 634.3 697.9 590 c 1
 745 648 l 1
 764 648 768.7 632.9 771 618 c 1
 726.7 563.3 l 1
 779.5 507.2 811.5 427.8 811.5 329 c 0
479.5 634 m 0
 388.5 634 278.5 537 278.5 327 c 0
 278.5 250.3 297.3 185 327.7 134.2 c 1
 656.5 539.1 l 1
 612.1 600.3 548.8 634 479.5 634 c 0
EndSplineSet
Position2: "'cpsp' Versalabstaende 1" dx=2 dy=0 dh=5 dv=0
Substitution2: "'c2sc' Versale nach Kapitaelchen 1" oslash.sc
AlternateSubs2: "'aalt' Alle Alternativen zeigen 1" oslash.sc
Colour: ff9ccc
EndChar

StartChar: Udieresis
Encoding: 220 220 302
Width: 1000
VWidth: 999
Flags: HW
HStem: -41 8<447.614 546.97> -10 31<451.075 592.2> 44 8<485.994 555.031> 167 8<511.947 556.907> 198 96<495.332 574.668> 317 8<513.093 558.053> 377 8<510.947 555.907> 408 96<494.332 573.668> 527 8<512.093 557.053> 596 7.9<158.029 202.714 396.61 443.451 601.029 645.713 795.61 842.452> 627 23<167.182 234.859 366.39 433.916 606.182 675.487 764.471 821.916> 668 8<163.367 437.373 606.37 836.343> 673 8<159.723 299.616 304.014 441.434 602.723 719.233 722.496 840.434>
VStem: 229 8<186.349 564.094> 260 81<124.125 612.583> 364 8<198.611 563.371> 456 8<224.093 269.053 430.781 481.742> 487 96<206.332 285.668 416.998 495.002> 606 8<222.947 267.907 436.711 475.448> 671 8<205.473 569.745> 702 39<138.939 611.051> 764 8<211.759 569.221>
AnchorPoint: "top_akzent" 344 894 basechar 0
LayerCount: 2
Fore
SplineSet
487 246 m 0
 487 272 509 294 535 294 c 0
 561 294 583 272 583 246 c 0
 583 220 561 198 535 198 c 0
 509 198 487 220 487 246 c 0
486 456 m 0
 486 482 508 504 534 504 c 0
 560 504 582 482 582 456 c 0
 582 430 560 408 534 408 c 0
 508 408 486 430 486 456 c 0
456 246 m 0
 456 294.6 496.9 325 535 325 c 0
 583.6 325 614 284.1 614 246 c 0
 614 197.4 573.1 167 535 167 c 0
 486.4 167 456 207.9 456 246 c 0
464 246 m 0
 464 211.8 491.4 175 535 175 c 0
 569.2 175 606 202.4 606 246 c 0
 606 280.2 578.6 317 535 317 c 0
 500.8 317 464 289.6 464 246 c 0
455 456 m 0
 455 504.6 495.9 535 534 535 c 0
 582.6 535 613 494.1 613 456 c 0
 613 407.4 572.1 377 534 377 c 0
 485.4 377 455 417.9 455 456 c 0
463 456 m 0
 463 421.8 490.4 385 534 385 c 0
 568.2 385 605 412.4 605 456 c 0
 605 490.2 577.6 527 534 527 c 0
 499.8 527 463 499.6 463 456 c 0
341 269 m 0
 341 204 345 123 394 76 c 0
 424.1 47.1 465 21 513 21 c 0
 682 21 702 165 702 277 c 2
 702 536 l 2
 702 619 685 620 610 627 c 1
 604 633 604 644 610 650 c 1
 660 649 677.7 645 721 645 c 0
 758.9 645 769 649 818 650 c 1
 824 644 824 633 818 627 c 1
 758 620 741 619 741 536 c 2
 741 295 l 2
 741 117 697 -10 492 -10 c 0
 402 -10 260 32 260 236 c 0
 260 269.2 261 278 261 321 c 0
 261 404 260 453 258 536 c 0
 256 619 241 624 171 627 c 1
 165 633 165 644 171 650 c 1
 221 649 249.7 645 300 645 c 0
 350.7 645 381 649 430 650 c 1
 436 644 436 633 430 627 c 1
 360 624 345.5 619 343 536 c 0
 341.2 475.1 340.5 433.1 340.2 383 c 0
 340 352.5 341 292.1 341 269 c 0
679 525.4 m 1
 679 277 l 2
 679 249.1 677.7 220.2 673.5 192.9 c 0
 660.7 110.3 625.2 44 513 44 c 0
 473.2 44 437.9 65.8 410 92.6 c 0
 369.9 131.1 364 203.7 364 269 c 0
 364 292.9 363 352.5 363.2 382.9 c 0
 363.5 432.9 363.1 464.5 364.9 525.4 c 0
 366.8 602.3 380.3 601.4 440.3 603.9 c 1
 458.6 623.5 454 655.9 438.7 673 c 1
 394.1 671.9 346.9 668 301.9 668 c 0
 253.7 668 201.5 672 162.2 673 c 1
 143.2 651.8 145.9 619.7 160.6 603.9 c 1
 224.9 601.2 234.3 598.6 236.1 525.4 c 0
 238.1 442.4 238 403.7 238 321 c 0
 238 278.6 237 269.8 237 236 c 0
 237 16.4 395.3 -33 492 -33 c 0
 629.3 -33 705.9 24.3 739.5 116.6 c 0
 758.4 168.6 764 228.9 764 295 c 2
 763.9 525.4 l 1
 765.8 602.4 779.3 601.4 839.3 603.9 c 1
 857.6 623.5 853 655.9 837.7 673 c 1
 792.2 671.8 755.1 668 720.9 668 c 0
 685.6 668 644.8 672 605.2 673 c 1
 586.2 651.8 588.9 619.7 603.6 603.9 c 1
 667.9 601.2 677.2 598.6 679 525.4 c 1
671 525.3 m 1
 669.3 597 665.5 593.3 601.7 596 c 2
 600.2 596.1 l 1
 599.1 597.2 l 2
 578.6 617.4 578 656.9 600.8 679.8 c 2
 602 681 l 1
 603.7 681 l 2
 645.4 680 685.6 676 720.9 676 c 0
 754.8 676 793.5 679.9 839.3 681 c 2
 841 681 l 1
 842.2 679.8 l 2
 861.9 660 867.3 620.3 843.9 597.2 c 2
 842.8 596.1 l 1
 841.2 596 l 2
 780.2 593.4 773.7 599.8 771.9 525.3 c 1
 772 295 l 2
 772 228.4 766.4 167.2 747 113.8 c 0
 712.2 18.2 631.8 -41 492 -41 c 0
 392.9 -41 229 10.9 229 236 c 0
 229 270 230 278.8 230 321 c 0
 230 403.8 230.1 442.4 228.1 525.3 c 0
 226.4 597 222.5 593.3 158.7 596 c 2
 157.2 596.1 l 1
 156.1 597.2 l 2
 135.6 617.4 135 656.9 157.8 679.8 c 2
 159 681 l 1
 160.7 681 l 2
 202.2 680 253.4 676 301.9 676 c 0
 347.1 676 395.2 680 440.3 681 c 2
 442 681 l 1
 443.2 679.8 l 2
 462.9 660 468.3 620.3 444.9 597.2 c 2
 443.8 596.1 l 1
 442.2 596 l 2
 381.2 593.4 374.7 599.9 372.9 525.3 c 0
 371.1 464.4 371.5 432.9 371.2 382.8 c 0
 371 352.6 372 293.1 372 269 c 0
 372 203.7 378.6 133.8 415.5 98.4 c 0
 442.6 72.4 476.3 52 513 52 c 0
 620.5 52 653 113.2 665.6 194.1 c 0
 669.8 220.8 671 249.3 671 277 c 2
 671 525.3 l 1
EndSplineSet
Position2: "'cpsp' Versalabstaende 1" dx=2 dy=0 dh=5 dv=0
Substitution2: "'ss01' Stilgruppe 1 1" Udieresis.alt
Substitution2: "'c2sc' Versale nach Kapitaelchen 1" udieresis.sc
AlternateSubs2: "'aalt' Alle Alternativen zeigen 1" udieresis.sc
EndChar

StartChar: Thorn
Encoding: 222 222 304
Width: 527
VWidth: 999
Flags: HMW
HStem: -2 33<7.625 80.75 200.25 273.375> 150 33<183.572 327.956> 490 33<184.346 338.289> 614 33<7.625 80.75 200.25 273.375>
VStem: 98 85<43.3808 159 184.631 483.495 519 601.619> 400 93<260.331 430.711>
AnchorPoint: "top_akzent" 281 850 basechar 0
LayerCount: 2
Fore
SplineSet
183.5 177.8 m 1
 192.9 174.9 216.7 173 254 173 c 0
 326 173 403 214 403 343 c 0
 403 463 331 500 272 500 c 0
 253.2 500 205.2 495.1 183.8 489.2 c 1
 182.4 431 182.1 386.4 182.1 320 c 0
 182.1 263 182.6 223.6 183.5 177.8 c 1
185.1 109 m 0
 187.1 26 202.1 21 272.1 18 c 1
 278.1 12 278.1 1 272.1 -5 c 1
 222.1 -4 193.4 0 143.1 0 c 0
 92.4 0 62.1 -4 13.1 -5 c 1
 7.1 1 7.1 12 13.1 18 c 1
 83.1 21 98.1 26 100.1 109 c 0
 102.1 192 103.1 238 103.1 321 c 0
 103.1 404 102.1 453 100.1 536 c 0
 98.1 619 83.1 624 13.1 627 c 1
 7.1 633 7.1 644 13.1 650 c 1
 63.1 649 91.8 645 142.1 645 c 0
 192.8 645 223.1 649 272.1 650 c 1
 278.1 644 278.1 633 272.1 627 c 1
 202.1 624 187.6 619 185.1 536 c 2
 184.6 519.1 l 1
 220 521.1 254.3 523 273 523 c 0
 458 523 490 414 490 343 c 0
 490 268 437 150 259 150 c 0
 224.7 150 199 153.8 183.9 158.7 c 1
 184.2 143.4 184.7 127.1 185.1 109 c 0
214 205 m 1
 228.2 204.1 241.6 204 254 204 c 0
 315.3 204 372 234.3 372 343 c 0
 372 450.2 313.7 469 272 469 c 0
 259.7 469 230.2 465.9 214.2 463.6 c 1
 213.2 411.8 213.1 373.5 213.1 320 c 0
 213.1 269.9 213.4 238.1 214 205 c 1
209.8 197.3 m 2
 206.1 197.5 l 1
 206 201.2 l 2
 205.4 236 205.1 268 205.1 320 c 0
 205.1 374.6 205.2 415 206.3 467.2 c 2
 206.4 470.5 l 1
 209.7 471 l 2
 227 473.7 258 477 272 477 c 0
 317 477 380 454.5 380 343 c 0
 380 230.3 318.9 196 254 196 c 0
 240.1 196 225.2 196.2 209.8 197.3 c 2
216 110.4 m 2
 217.4 51.8 216.4 51.4 283.9 48.5 c 2
 285.4 48.5 l 1
 286.6 47.4 l 2
 317.5 16.5 307.5 -13.4 285.8 -35.1 c 2
 284.6 -36.3 l 1
 282.9 -36.3 l 1
 225 -35.1 190.7 -31 143.1 -31 c 0
 87.7 -31 53.9 -35.2 2.2 -36.3 c 1
 0.5 -36.3 l 1
 -0.7 -35.1 l 2
 -32.3 -3.5 -22.6 25.8 -1.8 47 c 2
 -0.3 48.5 l 1
 1.9 48.6 l 2
 73.6 51.7 66.6 55 69.1 109.8 c 0
 73 195.9 72.1 241.3 72.1 321 c 0
 72.1 407.1 71.9 455.4 69.1 535.2 c 0
 67 593.6 57.6 594.1 1.2 596.5 c 2
 -0.3 596.5 l 1
 -1.4 597.6 l 2
 -32.3 628.5 -22.4 658.4 -0.7 680.1 c 2
 0.5 681.2 l 1
 2.2 681.2 l 1
 60.1 680 94.5 676 142.1 676 c 0
 197.5 676 231.2 680.1 282.9 681.2 c 1
 284.6 681.2 l 1
 285.8 680.1 l 2
 316 649.9 309 620 286.6 597.6 c 2
 285.4 596.5 l 1
 283.9 596.5 l 2
 225.2 594 221.4 593.8 217 551.9 c 1
 245.1 553.4 260.4 554 273 554 c 0
 480.7 554 521 421.5 521 343 c 0
 521 250.1 450.6 119 259 119 c 0
 238.9 119 224.8 120.3 215.8 121.2 c 1
 216 110.4 l 2
208 110.2 m 2
 207.6 130.2 l 1
 212.1 129.6 l 2
 221.5 128.5 236.6 127 259 127 c 0
 446 127 513 253.9 513 343 c 0
 513 418.7 475.7 546 273 546 c 0
 260 546 242.2 545.3 212.8 543.7 c 2
 208.2 543.4 l 1
 208.6 548 l 2
 213 597.4 221.6 601.8 282 604.4 c 1
 300.2 623.4 307.1 646.3 281.4 673.2 c 1
 232 672.1 197.3 668 142.1 668 c 0
 94.3 668 61.3 671.9 3.7 673.2 c 1
 -14 654.9 -23.1 631.9 3.1 604.4 c 1
 59 601.9 74.9 597 77.1 535.5 c 0
 79.9 455.6 80.1 407 80.1 321 c 0
 80.1 241.4 81 195.8 77.1 109.5 c 0
 74.6 53.9 76.6 43.9 3.1 40.6 c 1
 -14.5 22.3 -23 -0.200001 3.7 -28.2 c 1
 53.1 -27.1 87.9 -23 143.1 -23 c 0
 190.9 -23 223.8 -26.9 281.4 -28.2 c 1
 299.1 -9.9 308.2 13.1 282 40.6 c 1
 214.6 43.6 209.5 49.8 208 110.2 c 2
EndSplineSet
Position2: "'cpsp' Versalabstaende 1" dx=2 dy=0 dh=5 dv=0
Substitution2: "'c2sc' Versale nach Kapitaelchen 1" thorn.sc
AlternateSubs2: "'aalt' Alle Alternativen zeigen 1" thorn.sc
EndChar

